SplineFontDB: 3.2
FontName: Swanston-Bold
FullName: Swanston Bold
FamilyName: Swanston
Weight: Bold
Copyright: Copyright (c) 2023 Liam Whitelaw
UComments: "2023-4-7: Created with FontForge (http://fontforge.org)"
Version: 001.000
ItalicAngle: 0
UnderlinePosition: -4
UnderlineWidth: 0
Ascent: 52
Descent: 12
InvalidEm: 0
LayerCount: 2
Layer: 0 0 "Back" 1
Layer: 1 0 "Fore" 0
XUID: [1021 819 1899051707 1393]
StyleMap: 0x0020
FSType: 0
OS2Version: 0
OS2_WeightWidthSlopeOnly: 0
OS2_UseTypoMetrics: 1
CreationTime: 1680916401
ModificationTime: 1683508786
PfmFamily: 49
TTFWeight: 700
TTFWidth: 5
LineGap: 4
VLineGap: 0
Panose: 2 0 5 9 0 0 0 0 0 0
OS2TypoAscent: 0
OS2TypoAOffset: 1
OS2TypoDescent: 0
OS2TypoDOffset: 1
OS2TypoLinegap: 4
OS2WinAscent: 0
OS2WinAOffset: 1
OS2WinDescent: 0
OS2WinDOffset: 1
HheadAscent: 0
HheadAOffset: 1
HheadDescent: 0
HheadDOffset: 1
OS2CapHeight: 40
OS2XHeight: 28
OS2Vendor: 'PfEd'
MarkAttachClasses: 1
DEI: 91125
LangName: 1033
GaspTable: 2 24 1 65535 2 0
Encoding: UnicodeBmp
UnicodeInterp: none
NameList: AGL For New Fonts
DisplaySize: -48
AntiAlias: 1
FitToEm: 0
WinInfo: 992 32 8
BeginPrivate: 5
BlueValues 17 [0 0 28 28 40 40]
StdHW 3 [4]
StdVW 3 [8]
StemSnapH 5 [4 8]
StemSnapV 5 [4 8]
EndPrivate
Grid
0 40 m 25
 32 40 l 1049
0 28 m 25
 32 28 l 1049
EndSplineSet
TeXData: 1 0 0 346030 173015 115343 0 1048576 115343 783286 444596 497025 792723 393216 433062 380633 303038 157286 324010 404750 52429 2506097 1059062 262144
AnchorClass2: "bottom"""  "top""" 
BeginChars: 65536 695

StartChar: exclam
Encoding: 33 33 0
Width: 32
VWidth: 48
Flags: W
HStem: 0 10<11 21> 20 20G<11 21>
VStem: 11 10<0 10 15 40>
LayerCount: 2
Fore
SplineSet
11 40 m 25
 21 40 l 25
 21 15 l 25
 11 15 l 25
 11 40 l 25
11 10 m 25
 21 10 l 25
 21 0 l 25
 11 0 l 25
 11 10 l 25
EndSplineSet
EndChar

StartChar: quotedbl
Encoding: 34 34 1
Width: 32
VWidth: 48
Flags: W
HStem: 27 13<3 13 15 25>
VStem: 3 10<27 40> 15 10<27 40>
LayerCount: 2
Fore
SplineSet
15 40 m 29
 25 40 l 25
 25 27 l 25
 15 27 l 29
 15 40 l 29
3 40 m 29
 13 40 l 25
 13 27 l 25
 3 27 l 29
 3 40 l 29
EndSplineSet
EndChar

StartChar: numbersign
Encoding: 35 35 2
Width: 32
VWidth: 48
Flags: MW
HStem: 7 6<0 3 13 15 25 28> 27 6<0 3 13 15 25 28>
VStem: 3 10<0 7 13 27 33 40> 15 10<0 7 13 27 33 40>
LayerCount: 2
Fore
SplineSet
15 27 m 25
 13 27 l 29
 13 13 l 29
 15 13 l 25
 15 27 l 25
3 40 m 25
 13 40 l 29
 13 33 l 29
 15 33 l 25
 15 40 l 25
 25 40 l 29
 25 33 l 29
 28 33 l 25
 28 27 l 25
 25 27 l 5
 25 13 l 5
 28 13 l 1
 28 7 l 1
 25 7 l 5
 25 0 l 5
 15 0 l 1
 15 7 l 1
 13 7 l 5
 13 0 l 5
 3 0 l 1
 3 7 l 1
 0 7 l 1
 0 13 l 1
 3 13 l 1
 3 27 l 1
 0 27 l 25
 0 33 l 25
 3 33 l 25
 3 40 l 25
EndSplineSet
EndChar

StartChar: dollar
Encoding: 36 36 3
Width: 32
VWidth: 48
Flags: MW
HStem: 4 5<10 11 17 18> 15 10<10 11 17 18> 31 5<10 11 17 18>
VStem: 0 10<10 12 25 30> 11 6<0 4 9 15 25 31 36 40> 18 10<10 15 28 30>
CounterMasks: 1 1c
LayerCount: 2
Fore
SplineSet
28 28 m 1
 18 28 l 1
 18 31 l 1
 17 31 l 1
 17 25 l 1
 22 25 l 1
 28 19 l 1
 28 10 l 1
 22 4 l 1
 17 4 l 1
 17 0 l 1
 11 0 l 1
 11 4 l 1
 6 4 l 1
 0 10 l 1
 0 12 l 1
 10 12 l 1
 10 9 l 1
 11 9 l 1
 11 15 l 5
 6 15 l 1
 0 21 l 1
 0 30 l 1
 6 36 l 1
 11 36 l 1
 11 40 l 1
 17 40 l 1
 17 36 l 1
 22 36 l 1
 28 30 l 1
 28 28 l 1
17 15 m 1
 17 9 l 1
 18 9 l 1
 18 15 l 1
 17 15 l 1
11 25 m 5
 11 31 l 1
 10 31 l 1
 10 25 l 1
 11 25 l 5
EndSplineSet
EndChar

StartChar: percent
Encoding: 37 37 5
Width: 32
Flags: W
HStem: 0 5<21 23> 7 5<21 23> 28 5<5 7> 35 5<5 7>
VStem: 0 5<33 35> 7 5<33 35> 16 5<5 7> 23 5<5 7>
LayerCount: 2
Fore
SplineSet
23 7 m 1
 21 7 l 1
 21 5 l 1
 23 5 l 1
 23 7 l 1
7 35 m 1
 5 35 l 1
 5 33 l 1
 7 33 l 1
 7 35 l 1
16 8 m 17
 20 12 l 1
 24 12 l 17
 28 8 l 1
 28 4 l 1
 24 0 l 9
 20 0 l 1
 16 4 l 1
 16 8 l 17
0 36 m 25
 4 40 l 1
 8 40 l 25
 12 36 l 1
 12 32 l 1
 8 28 l 25
 4 28 l 17
 0 32 l 1
 0 36 l 25
20 40 m 1
 28 40 l 1
 28 38 l 5
 8 0 l 1
 0 0 l 1
 0 2 l 1
 20 40 l 1
EndSplineSet
EndChar

StartChar: ampersand
Encoding: 38 38 6
Width: 32
Flags: W
HStem: 0 5<10 15 25 28> 23 6<10 15 25 28> 35 5<10 16>
VStem: 0 10<6 22 30 34> 15 10<6 23 29 33>
LayerCount: 2
Fore
SplineSet
6 40 m 1
 16 40 l 1
 16 35 l 1
 10 35 l 1
 10 29 l 1
 15 29 l 1
 15 33 l 1
 25 33 l 1
 25 29 l 1
 28 29 l 1
 28 23 l 1
 25 23 l 1
 25 5 l 1
 28 5 l 1
 28 0 l 1
 21 0 l 1
 15 6 l 1
 15 23 l 1
 10 23 l 1
 10 5 l 5
 15 5 l 1
 15 0 l 1
 6 0 l 1
 0 6 l 1
 0 22 l 1
 4 26 l 1
 0 30 l 1
 0 34 l 1
 6 40 l 1
EndSplineSet
EndChar

StartChar: parenleft
Encoding: 40 40 7
Width: 32
Flags: MW
VStem: 0 10<16 24>
LayerCount: 2
Fore
SplineSet
12 40 m 1
 22 40 l 1
 14 32 l 1
 10 24 l 1
 10 16 l 1
 14 8 l 1
 22 0 l 1
 12 0 l 1
 4 8 l 1
 0 16 l 1
 0 24 l 1
 4 32 l 1
 12 40 l 1
EndSplineSet
EndChar

StartChar: parenright
Encoding: 41 41 8
Width: 32
Flags: MW
VStem: 18 10<16 24>
LayerCount: 2
Fore
SplineSet
16 40 m 1
 24 32 l 1
 28 24 l 1
 28 16 l 1
 24 8 l 1
 16 0 l 1
 6 0 l 1
 14 8 l 1
 18 16 l 1
 18 24 l 1
 14 32 l 1
 6 40 l 1
 16 40 l 1
EndSplineSet
EndChar

StartChar: asterisk
Encoding: 42 42 9
Width: 32
Flags: W
HStem: 15 10<0 7 21 28>
LayerCount: 2
Fore
SplineSet
0 32 m 1
 9 32 l 1
 12 29 l 1
 16 29 l 1
 19 32 l 1
 28 32 l 1
 21 25 l 1
 28 25 l 1
 28 15 l 1
 21 15 l 1
 28 8 l 1
 19 8 l 1
 16 11 l 1
 12 11 l 1
 9 8 l 1
 0 8 l 1
 7 15 l 1
 0 15 l 1
 0 25 l 1
 7 25 l 1
 0 32 l 1
EndSplineSet
EndChar

StartChar: plus
Encoding: 43 43 10
Width: 32
Flags: W
HStem: 15 10<3 11 21 29>
VStem: 11 10<7 15 25 33>
LayerCount: 2
Fore
SplineSet
11 33 m 25
 21 33 l 25
 21 25 l 25
 29 25 l 25
 29 15 l 25
 21 15 l 25
 21 7 l 25
 11 7 l 25
 11 15 l 25
 3 15 l 25
 3 25 l 25
 11 25 l 29
 11 33 l 25
EndSplineSet
EndChar

StartChar: comma
Encoding: 44 44 11
Width: 32
Flags: W
HStem: -4 14<11 17>
VStem: 11 10<4 10>
LayerCount: 2
Fore
SplineSet
11 10 m 1
 21 10 l 5
 21 4 l 25
 17 -4 l 1
 7 -4 l 1
 11 4 l 25
 11 10 l 1
EndSplineSet
EndChar

StartChar: hyphen
Encoding: 45 45 12
Width: 32
Flags: W
HStem: 15 10<3 29>
LayerCount: 2
Fore
SplineSet
3 25 m 25
 29 25 l 29
 29 15 l 25
 3 15 l 25
 3 25 l 25
EndSplineSet
EndChar

StartChar: period
Encoding: 46 46 13
Width: 32
Flags: W
HStem: 0 10<11 21>
VStem: 11 10<0 10>
LayerCount: 2
Fore
SplineSet
11 10 m 29
 21 10 l 29
 21 0 l 25
 11 0 l 25
 11 10 l 29
EndSplineSet
EndChar

StartChar: slash
Encoding: 47 47 14
Width: 32
Flags: MW
LayerCount: 2
Fore
SplineSet
18 40 m 9
 28 40 l 17
 28 38 l 1
 10 0 l 5
 0 0 l 1
 0 2 l 1
 18 40 l 9
EndSplineSet
EndChar

StartChar: zero
Encoding: 48 48 15
Width: 32
Flags: W
HStem: 0 6<10 18> 34 6<10 18>
VStem: 0 10<6 9 19 34> 18 10<6 21 31 34>
LayerCount: 2
Fore
SplineSet
18 21 m 1
 10 9 l 1
 10 6 l 1
 18 6 l 1
 18 21 l 1
18 34 m 1
 10 34 l 1
 10 19 l 1
 18 31 l 1
 18 34 l 1
6 40 m 5
 22 40 l 1
 28 34 l 1
 28 6 l 1
 22 0 l 1
 6 0 l 1
 0 6 l 1
 0 34 l 1
 6 40 l 5
EndSplineSet
EndChar

StartChar: one
Encoding: 49 49 16
Width: 32
Flags: MW
HStem: 0 6<4 11 21 28>
VStem: 11 10<6 28>
LayerCount: 2
Fore
SplineSet
4 0 m 25
 4 6 l 1
 11 6 l 1
 11 28 l 1
 4 28 l 1
 4 31 l 1
 13 40 l 1
 21 40 l 1
 21 6 l 25
 28 6 l 25
 28 0 l 25
 4 0 l 25
EndSplineSet
EndChar

StartChar: two
Encoding: 50 50 17
Width: 32
Flags: W
HStem: 0 6<10 28> 34 6<10 18>
VStem: 0 10<26 34> 18 10<24 34>
LayerCount: 2
Fore
SplineSet
0 34 m 1
 6 40 l 1
 22 40 l 1
 28 34 l 1
 28 24 l 1
 10 6 l 1
 28 6 l 1
 28 0 l 25
 0 0 l 1
 0 6 l 1
 18 24 l 1
 18 34 l 1
 10 34 l 1
 10 26 l 1
 0 26 l 1
 0 34 l 1
EndSplineSet
EndChar

StartChar: three
Encoding: 51 51 18
Width: 32
Flags: W
HStem: 0 6<10 18> 18 8<12 18> 34 6<10 18>
VStem: 0 10<6 14 26 34> 18 10<6 18 26 34>
LayerCount: 2
Fore
SplineSet
0 34 m 1
 6 40 l 1
 22 40 l 1
 28 34 l 1
 28 26 l 1
 24 22 l 1
 28 18 l 1
 28 6 l 1
 22 0 l 1
 6 0 l 1
 0 6 l 1
 0 14 l 1
 10 14 l 1
 10 6 l 1
 18 6 l 1
 18 18 l 1
 12 18 l 1
 12 26 l 1
 18 26 l 1
 18 34 l 1
 10 34 l 1
 10 26 l 5
 0 26 l 1
 0 34 l 1
EndSplineSet
EndChar

StartChar: four
Encoding: 52 52 19
Width: 32
Flags: MW
HStem: 7 6<8 15 25 28>
VStem: 15 10<0 7 13 26>
LayerCount: 2
Fore
SplineSet
15 26 m 5
 8 13 l 1
 15 13 l 1
 15 26 l 5
15 40 m 1
 25 40 l 1
 25 13 l 1
 28 13 l 1
 28 7 l 1
 25 7 l 1
 25 0 l 1
 15 0 l 1
 15 7 l 1
 0 7 l 1
 0 13 l 1
 15 40 l 1
EndSplineSet
EndChar

StartChar: A
Encoding: 65 65 20
Width: 32
Flags: MW
HStem: 11 6<10 18>
VStem: 0 10<0 11 17 24> 18 10<0 11 17 24>
AnchorPoint: "bottom" 24 0 basechar 0
AnchorPoint: "top" 14 40 basechar 0
LayerCount: 2
Fore
SplineSet
14 32 m 5
 10 24 l 5
 10 17 l 5
 18 17 l 5
 18 24 l 5
 14 32 l 5
8 40 m 5
 20 40 l 5
 28 24 l 5
 28 0 l 5
 18 0 l 5
 18 11 l 5
 10 11 l 5
 10 0 l 5
 0 0 l 5
 0 24 l 29
 8 40 l 5
EndSplineSet
EndChar

StartChar: B
Encoding: 66 66 21
Width: 32
Flags: W
HStem: 0 6<10 18> 19 6<10 18> 34 6<10 18>
VStem: 0 10<6 19 25 34> 18 10<6 18 26 34>
AnchorPoint: "top" 14 40 basechar 0
LayerCount: 2
Fore
SplineSet
18 19 m 1
 10 19 l 1
 10 6 l 1
 18 6 l 5
 18 19 l 1
18 34 m 25
 10 34 l 25
 10 25 l 25
 18 25 l 25
 18 34 l 25
0 40 m 1
 22 40 l 1
 28 34 l 1
 28 26 l 1
 24 22 l 1
 28 18 l 1
 28 6 l 1
 22 0 l 1
 0 0 l 1
 0 40 l 1
EndSplineSet
EndChar

StartChar: C
Encoding: 67 67 22
Width: 32
Flags: W
HStem: 0 6<10 18> 34 6<10 18>
VStem: 0 10<6 34> 18 10<6 14 26 34>
AnchorPoint: "bottom" 14 0 basechar 0
AnchorPoint: "top" 14 40 basechar 0
LayerCount: 2
Fore
SplineSet
0 34 m 1
 6 40 l 1
 22 40 l 1
 28 34 l 1
 28 26 l 1
 18 26 l 25
 18 34 l 1
 10 34 l 1
 10 6 l 1
 18 6 l 1
 18 14 l 1
 28 14 l 5
 28 6 l 1
 22 0 l 1
 6 0 l 1
 0 6 l 1
 0 34 l 1
EndSplineSet
EndChar

StartChar: five
Encoding: 53 53 23
Width: 32
Flags: W
HStem: 0 6<10 18> 19 6<10 18> 34 6<10 28>
VStem: 0 10<6 10 25 34> 18 10<6 19>
LayerCount: 2
Fore
SplineSet
0 10 m 1
 10 10 l 25
 10 6 l 5
 18 6 l 1
 18 19 l 1
 0 19 l 1
 0 40 l 1
 28 40 l 1
 28 34 l 1
 10 34 l 1
 10 25 l 1
 22 25 l 1
 28 19 l 1
 28 6 l 1
 22 0 l 1
 6 0 l 1
 0 6 l 1
 0 10 l 1
EndSplineSet
EndChar

StartChar: six
Encoding: 54 54 24
Width: 32
Flags: W
HStem: 0 6<10 18> 19 6<10 18> 34 6<14 26>
VStem: 0 10<6 19 25 30> 18 10<6 19>
LayerCount: 2
Fore
SplineSet
18 19 m 1
 10 19 l 1
 10 6 l 1
 18 6 l 1
 18 19 l 1
10 40 m 1
 26 40 l 1
 26 34 l 1
 14 34 l 1
 10 30 l 1
 10 25 l 1
 22 25 l 1
 28 19 l 5
 28 6 l 1
 22 0 l 1
 6 0 l 1
 0 6 l 1
 0 24 l 1
 0 30 l 1
 10 40 l 1
EndSplineSet
EndChar

StartChar: seven
Encoding: 55 55 25
Width: 32
Flags: MW
HStem: 34 6<0 18>
LayerCount: 2
Fore
SplineSet
0 40 m 1
 28 40 l 25
 28 34 l 1
 12 0 l 1
 2 0 l 1
 18 34 l 1
 0 34 l 1
 0 40 l 1
EndSplineSet
EndChar

StartChar: eight
Encoding: 56 56 26
Width: 32
Flags: W
HStem: 0 6<10 18> 19 6<10 18> 34 6<10 18>
VStem: 0 10<6 18 26 34> 18 10<6 18 26 34>
LayerCount: 2
Fore
SplineSet
18 19 m 1
 10 19 l 1
 10 6 l 1
 18 6 l 5
 18 19 l 1
18 34 m 25
 10 34 l 25
 10 25 l 25
 18 25 l 25
 18 34 l 25
6 40 m 1
 22 40 l 1
 28 34 l 1
 28 26 l 1
 24 22 l 1
 28 18 l 1
 28 6 l 1
 22 0 l 1
 6 0 l 1
 0 6 l 1
 0 18 l 1
 4 22 l 1
 0 26 l 1
 0 34 l 1
 6 40 l 1
EndSplineSet
EndChar

StartChar: nine
Encoding: 57 57 27
Width: 32
Flags: W
HStem: 0 6<2 14> 19 6<10 18> 34 6<10 18>
VStem: 0 10<25 34> 18 10<10 19 25 34>
LayerCount: 2
Fore
SplineSet
10 25 m 1
 18 25 l 1
 18 34 l 1
 10 34 l 1
 10 25 l 1
2 0 m 5
 2 6 l 1
 14 6 l 1
 18 10 l 1
 18 19 l 1
 6 19 l 1
 0 25 l 1
 0 34 l 1
 6 40 l 1
 22 40 l 1
 28 34 l 1
 28 20 l 1
 28 10 l 1
 18 0 l 1
 2 0 l 5
EndSplineSet
EndChar

StartChar: colon
Encoding: 58 58 28
Width: 32
Flags: W
HStem: 0 10<11 21> 18 10<11 21>
VStem: 11 10<0 10 18 28>
LayerCount: 2
Fore
SplineSet
11 10 m 25
 21 10 l 25
 21 0 l 29
 11 0 l 25
 11 10 l 25
11 28 m 25
 21 28 l 1
 21 18 l 25
 11 18 l 1
 11 28 l 25
EndSplineSet
EndChar

StartChar: semicolon
Encoding: 59 59 29
Width: 32
Flags: W
HStem: 18 10<11 21>
VStem: 11 10<4 10 18 28>
LayerCount: 2
Fore
SplineSet
11 10 m 13
 21 10 l 17
 21 4 l 1
 17 -4 l 1
 7 -4 l 1
 11 4 l 1
 11 10 l 13
11 28 m 25
 21 28 l 1
 21 18 l 25
 11 18 l 1
 11 28 l 25
EndSplineSet
EndChar

StartChar: less
Encoding: 60 60 30
Width: 32
Flags: MW
LayerCount: 2
Fore
SplineSet
16 40 m 1
 26 40 l 1
 10 20 l 1
 26 0 l 5
 16 0 l 1
 0 20 l 1
 16 40 l 1
EndSplineSet
EndChar

StartChar: greater
Encoding: 62 62 31
Width: 32
Flags: MW
LayerCount: 2
Fore
SplineSet
12 40 m 1
 28 20 l 1
 12 0 l 1
 2 0 l 5
 18 20 l 1
 2 40 l 1
 12 40 l 1
EndSplineSet
EndChar

StartChar: equal
Encoding: 61 61 32
Width: 32
Flags: W
HStem: 7 10<0 28> 19 10<0 28>
LayerCount: 2
Fore
SplineSet
0 17 m 29
 28 17 l 29
 28 7 l 29
 0 7 l 29
 0 17 l 29
0 29 m 1
 28 29 l 1
 28 19 l 1
 0 19 l 1
 0 29 l 1
EndSplineSet
EndChar

StartChar: question
Encoding: 63 63 33
Width: 32
Flags: W
HStem: 0 10<8 18> 34 6<10 15>
VStem: 0 10<26 34> 8 10<0 10> 15 10<24 34>
LayerCount: 2
Fore
SplineSet
0 26 m 1xe8
 0 34 l 1
 6 40 l 1
 19 40 l 1
 25 34 l 1
 25 24 l 1xe8
 18 16 l 1
 8 16 l 1xd0
 15 24 l 1
 15 34 l 1
 10 34 l 1
 10 26 l 1
 0 26 l 1xe8
8 10 m 25xd0
 18 10 l 25
 18 0 l 29
 8 0 l 25
 8 10 l 25xd0
EndSplineSet
EndChar

StartChar: at
Encoding: 64 64 34
Width: 32
Flags: W
HStem: 0 6<10 18> 34 6<10 18>
VStem: 0 10<6 13 23 34> 18 10<6 10 23 34>
LayerCount: 2
Fore
SplineSet
0 34 m 1
 6 40 l 1
 22 40 l 1
 28 34 l 1
 28 22 l 1
 18 11 l 1
 12 11 l 1
 10 13 l 1
 10 6 l 1
 18 6 l 1
 18 10 l 1
 28 10 l 1
 28 6 l 1
 22 0 l 1
 6 0 l 1
 0 6 l 1
 0 34 l 1
12 25 m 1
 16 25 l 1
 18 23 l 1
 18 34 l 1
 10 34 l 1
 10 23 l 1
 12 25 l 1
15 19 m 1
 13 19 l 1
 13 17 l 1
 15 17 l 1
 15 19 l 1
EndSplineSet
EndChar

StartChar: D
Encoding: 68 68 35
Width: 32
Flags: W
HStem: 0 6<10 13> 34 6<10 13>
VStem: 0 10<6 34> 18 10<12 28>
AnchorPoint: "bottom" 14 0 basechar 0
AnchorPoint: "top" 14 40 basechar 0
LayerCount: 2
Fore
SplineSet
13 34 m 5
 10 34 l 1
 10 6 l 1
 13 6 l 1
 18 12 l 1
 18 28 l 1
 13 34 l 5
0 40 m 25
 20 40 l 25
 28 28 l 25
 28 12 l 1
 20 0 l 25
 0 0 l 1
 0 40 l 25
EndSplineSet
EndChar

StartChar: E
Encoding: 69 69 36
Width: 32
Flags: W
HStem: 0 6<10 28> 19 6<10 26> 34 6<10 28>
VStem: 0 10<6 19 25 34>
AnchorPoint: "bottom" 26 0 basechar 0
AnchorPoint: "top" 14 40 basechar 0
LayerCount: 2
Fore
SplineSet
0 40 m 25
 28 40 l 25
 28 34 l 25
 10 34 l 1
 10 25 l 1
 26 25 l 5
 26 19 l 1
 10 19 l 1
 10 6 l 1
 28 6 l 25
 28 0 l 25
 0 0 l 25
 0 40 l 25
EndSplineSet
EndChar

StartChar: F
Encoding: 70 70 37
Width: 32
Flags: MW
HStem: 19 6<10 26> 34 6<10 28>
VStem: 0 10<0 19 25 34>
AnchorPoint: "top" 14 40 basechar 0
LayerCount: 2
Fore
SplineSet
0 40 m 25
 28 40 l 25
 28 34 l 25
 10 34 l 1
 10 25 l 1
 26 25 l 1
 26 19 l 5
 10 19 l 1
 10 0 l 1
 0 0 l 1
 0 40 l 25
EndSplineSet
EndChar

StartChar: G
Encoding: 71 71 38
Width: 32
Flags: W
HStem: 0 6<10 18> 15 6<12 18> 34 6<10 18>
VStem: 0 10<6 34> 18 10<6 15 26 34>
AnchorPoint: "bottom" 14 0 basechar 0
AnchorPoint: "top" 14 40 basechar 0
LayerCount: 2
Fore
SplineSet
0 34 m 1
 6 40 l 1
 22 40 l 1
 28 34 l 1
 28 26 l 5
 18 26 l 1
 18 34 l 1
 10 34 l 1
 10 6 l 1
 18 6 l 1
 18 15 l 25
 12 15 l 1
 12 21 l 1
 28 21 l 1
 28 6 l 1
 22 0 l 1
 6 0 l 1
 0 6 l 1
 0 34 l 1
EndSplineSet
EndChar

StartChar: H
Encoding: 72 72 39
Width: 32
Flags: MW
HStem: 19 6<10 18>
VStem: 0 10<0 19 25 40> 18 10<0 19 25 40>
AnchorPoint: "top" 14 40 basechar 0
LayerCount: 2
Fore
SplineSet
0 40 m 25
 10 40 l 29
 10 25 l 25
 18 25 l 25
 18 40 l 25
 28 40 l 25
 28 0 l 25
 18 0 l 25
 18 19 l 25
 10 19 l 25
 10 0 l 25
 0 0 l 25
 0 40 l 25
EndSplineSet
EndChar

StartChar: I
Encoding: 73 73 40
Width: 32
Flags: MW
HStem: 0 6<3 7 17 21> 34 6<3 7 17 21>
VStem: 7 10<6 34>
AnchorPoint: "bottom" 12 0 basechar 0
AnchorPoint: "top" 12 40 basechar 0
LayerCount: 2
Fore
SplineSet
3 40 m 25
 21 40 l 25
 21 34 l 25
 17 34 l 25
 17 6 l 25
 21 6 l 25
 21 0 l 25
 3 0 l 29
 3 6 l 25
 7 6 l 29
 7 34 l 25
 3 34 l 25
 3 40 l 25
EndSplineSet
EndChar

StartChar: J
Encoding: 74 74 41
Width: 32
Flags: W
HStem: 0 6<10 18> 20 20G<18 28>
VStem: 0 10<6 14> 18 10<6 40>
LayerCount: 2
Fore
SplineSet
18 40 m 5
 28 40 l 1
 28 6 l 1
 22 0 l 1
 6 0 l 1
 0 6 l 1
 0 14 l 1
 10 14 l 1
 10 6 l 1
 18 6 l 1
 18 40 l 5
EndSplineSet
EndChar

StartChar: K
Encoding: 75 75 42
Width: 32
Flags: MW
VStem: 0 10<0 12 28 40>
AnchorPoint: "bottom" 14 0 basechar 0
LayerCount: 2
Fore
SplineSet
0 40 m 25
 10 40 l 1
 10 28 l 29
 18 40 l 1
 28 40 l 1
 14 20 l 1
 28 0 l 1
 18 0 l 1
 10 12 l 25
 10 0 l 1
 0 0 l 25
 0 40 l 25
EndSplineSet
EndChar

StartChar: L
Encoding: 76 76 43
Width: 32
Flags: MW
HStem: 0 6<10 28>
VStem: 0 10<6 40>
AnchorPoint: "top" 4 40 basechar 0
AnchorPoint: "bottom" 16 0 basechar 0
LayerCount: 2
Fore
SplineSet
0 40 m 25
 10 40 l 29
 10 6 l 25
 28 6 l 25
 28 0 l 25
 0 0 l 25
 0 40 l 25
EndSplineSet
EndChar

StartChar: M
Encoding: 77 77 44
Width: 32
Flags: MW
VStem: 0 10<0 26> 18 10<0 26>
LayerCount: 2
Fore
SplineSet
0 0 m 25
 0 40 l 25
 10 40 l 1
 14 34 l 5
 18 40 l 1
 28 40 l 1
 28 0 l 1
 18 0 l 1
 18 26 l 1
 14 20 l 1
 10 26 l 1
 10 0 l 1
 0 0 l 25
EndSplineSet
EndChar

StartChar: N
Encoding: 78 78 45
Width: 32
Flags: MW
VStem: 0 10<0 22> 18 10<18 40>
AnchorPoint: "top" 14 40 basechar 0
LayerCount: 2
Fore
SplineSet
0 40 m 25
 10 40 l 1
 18 18 l 29
 18 40 l 1
 28 40 l 25
 28 0 l 25
 18 0 l 1
 10 22 l 1
 10 0 l 1
 0 0 l 1
 0 40 l 25
EndSplineSet
EndChar

StartChar: O
Encoding: 79 79 46
Width: 32
Flags: W
HStem: 0 6<10 18> 34 6<10 18>
VStem: 0 10<6 34> 18 10<6 34>
AnchorPoint: "bottom" 14 0 basechar 0
AnchorPoint: "top" 14 40 basechar 0
LayerCount: 2
Fore
SplineSet
18 34 m 25
 10 34 l 25
 10 6 l 25
 18 6 l 29
 18 34 l 25
6 40 m 1
 22 40 l 1
 28 34 l 1
 28 6 l 1
 22 0 l 1
 6 0 l 1
 0 6 l 1
 0 34 l 1
 6 40 l 1
EndSplineSet
EndChar

StartChar: P
Encoding: 80 80 47
Width: 32
Flags: HMW
HStem: 19 6<10 18> 34 6<10 18>
VStem: 0 10<0 19 25 34> 18 10<25 34>
AnchorPoint: "top" 14 40 basechar 0
LayerCount: 2
Fore
SplineSet
18 34 m 25
 10 34 l 25
 10 25 l 25
 18 25 l 25
 18 34 l 25
0 0 m 25
 0 40 l 1
 22 40 l 1
 28 34 l 1
 28 25 l 1
 22 19 l 5
 10 19 l 1
 10 0 l 25
 0 0 l 25
EndSplineSet
EndChar

StartChar: Q
Encoding: 81 81 48
Width: 32
Flags: MW
HStem: 0 6<10 12> 34 6<10 18>
VStem: 0 10<6 34> 18 10<12 34>
AnchorPoint: "bottom" 14 0 basechar 0
AnchorPoint: "top" 14 40 basechar 0
LayerCount: 2
Fore
SplineSet
18 34 m 1
 10 34 l 25
 10 6 l 1
 12 6 l 5
 18 12 l 1
 18 34 l 1
0 34 m 1
 6 40 l 1
 22 40 l 1
 28 34 l 1
 28 12 l 1
 25 9 l 1
 28 6 l 1
 28 0 l 1
 22 0 l 1
 19 3 l 25
 16 0 l 5
 6 0 l 1
 0 6 l 1
 0 34 l 1
EndSplineSet
EndChar

StartChar: R
Encoding: 82 82 49
Width: 32
Flags: MW
HStem: 19 6<10 10.3258> 34 6<10 18>
VStem: 0 10<0 19 25 34> 18 10<0 8 25 34>
AnchorPoint: "top" 14 40 basechar 0
LayerCount: 2
Fore
SplineSet
18 34 m 1
 10 34 l 25
 10 25 l 5
 18 25 l 25
 18 34 l 1
0 0 m 25
 0 40 l 1
 22 40 l 1
 28 34 l 1
 28 25 l 1
 22 19 l 1
 20 19 l 1
 28 8 l 1
 28 0 l 1
 18 0 l 1
 18 8 l 1
 10 19 l 5
 10 0 l 1
 0 0 l 25
EndSplineSet
EndChar

StartChar: S
Encoding: 83 83 50
Width: 32
Flags: W
HStem: 0 6<10 18> 34 6<10 18>
VStem: 0 10<6 10 28 34> 18 10<6 14 30 34>
AnchorPoint: "bottom" 14 0 basechar 0
AnchorPoint: "top" 14 40 basechar 0
LayerCount: 2
Fore
SplineSet
0 34 m 1
 6 40 l 1
 22 40 l 1
 28 34 l 1
 28 30 l 1
 18 30 l 25
 18 34 l 25
 10 34 l 1
 10 28 l 1
 28 16 l 1
 28 6 l 1
 22 0 l 1
 6 0 l 1
 0 6 l 1
 0 10 l 1
 10 10 l 1
 10 6 l 1
 18 6 l 1
 18 14 l 5
 0 26 l 1
 0 34 l 1
EndSplineSet
EndChar

StartChar: T
Encoding: 84 84 51
Width: 32
Flags: MW
HStem: 34 6<0 7 17 24>
VStem: 7 10<0 34>
AnchorPoint: "bottom" 12 0 basechar 0
AnchorPoint: "top" 12 40 basechar 0
LayerCount: 2
Fore
SplineSet
0 40 m 25
 24 40 l 25
 24 34 l 29
 17 34 l 25
 17 0 l 25
 7 0 l 25
 7 34 l 25
 0 34 l 25
 0 40 l 25
EndSplineSet
EndChar

StartChar: U
Encoding: 85 85 52
Width: 32
Flags: MW
HStem: 0 6<10 18>
VStem: 0 10<6 40> 18 10<6 40>
AnchorPoint: "bottom" 14 0 basechar 0
AnchorPoint: "top" 14 40 basechar 0
LayerCount: 2
Fore
SplineSet
0 40 m 25
 10 40 l 29
 10 6 l 25
 18 6 l 25
 18 40 l 25
 28 40 l 25
 28 6 l 25
 22 0 l 25
 6 0 l 25
 0 6 l 25
 0 40 l 25
EndSplineSet
EndChar

StartChar: V
Encoding: 86 86 53
Width: 32
Flags: MW
LayerCount: 2
Fore
SplineSet
0 40 m 1
 10 40 l 1
 14 21 l 5
 18 40 l 1
 28 40 l 1
 19 0 l 1
 9 0 l 1
 0 40 l 1
EndSplineSet
EndChar

StartChar: W
Encoding: 87 87 54
Width: 32
Flags: MW
VStem: 0 10<14 40> 18 10<14 40>
AnchorPoint: "top" 14 40 basechar 0
LayerCount: 2
Fore
SplineSet
0 40 m 25
 10 40 l 1
 10 14 l 1
 14 20 l 5
 18 14 l 1
 18 40 l 1
 28 40 l 25
 28 0 l 25
 18 0 l 1
 14 6 l 1
 10 0 l 1
 0 0 l 25
 0 40 l 25
EndSplineSet
EndChar

StartChar: X
Encoding: 88 88 55
Width: 32
Flags: MW
LayerCount: 2
Fore
SplineSet
0 40 m 1
 10 40 l 1
 14 30 l 1
 18 40 l 1
 28 40 l 1
 20 20 l 1
 28 0 l 1
 18 0 l 1
 14 10 l 5
 10 0 l 1
 0 0 l 1
 8 20 l 1
 0 40 l 1
EndSplineSet
EndChar

StartChar: Y
Encoding: 89 89 56
Width: 32
Flags: MW
VStem: 9 10<0 16>
AnchorPoint: "top" 14 40 basechar 0
LayerCount: 2
Fore
SplineSet
0 40 m 1
 10 40 l 1
 14 28 l 5
 18 40 l 1
 28 40 l 1
 19 16 l 1
 19 0 l 1
 9 0 l 1
 9 16 l 1
 0 40 l 1
EndSplineSet
EndChar

StartChar: Z
Encoding: 90 90 57
Width: 32
Flags: W
HStem: 0 6<10 28> 34 6<0 18>
AnchorPoint: "bottom" 14 0 basechar 0
AnchorPoint: "top" 14 40 basechar 0
LayerCount: 2
Fore
SplineSet
0 40 m 1
 28 40 l 29
 28 34 l 25
 10 6 l 1
 28 6 l 25
 28 0 l 25
 0 0 l 1
 0 6 l 1
 18 34 l 25
 0 34 l 1
 0 40 l 1
EndSplineSet
EndChar

StartChar: bracketleft
Encoding: 91 91 58
Width: 32
Flags: W
HStem: 0 6<10 20> 34 6<10 20>
VStem: 0 10<6 34>
LayerCount: 2
Fore
SplineSet
0 40 m 25
 20 40 l 25
 20 34 l 25
 10 34 l 25
 10 6 l 25
 20 6 l 29
 20 0 l 25
 0 0 l 25
 0 40 l 25
EndSplineSet
EndChar

StartChar: backslash
Encoding: 92 92 59
Width: 32
Flags: MW
LayerCount: 2
Fore
SplineSet
0 40 m 9
 10 40 l 1
 28 2 l 1
 28 0 l 1
 18 0 l 21
 0 38 l 1
 0 40 l 9
EndSplineSet
EndChar

StartChar: bracketright
Encoding: 93 93 60
Width: 32
Flags: W
HStem: 0 6<8 18> 34 6<8 18>
VStem: 18 10<6 34>
LayerCount: 2
Fore
SplineSet
8 40 m 25
 28 40 l 1
 28 0 l 1
 8 0 l 25
 8 6 l 29
 18 6 l 1
 18 34 l 1
 8 34 l 25
 8 40 l 25
EndSplineSet
EndChar

StartChar: underscore
Encoding: 95 95 61
Width: 32
Flags: W
HStem: 0 6<0 28>
LayerCount: 2
Fore
SplineSet
0 6 m 25
 28 6 l 5
 28 0 l 25
 0 0 l 1
 0 6 l 25
EndSplineSet
EndChar

StartChar: grave
Encoding: 96 96 62
Width: 32
Flags: W
HStem: 32 8<8 14>
VStem: 4 14
LayerCount: 2
Fore
SplineSet
4 40 m 25
 14 40 l 29
 18 32 l 25
 8 32 l 25
 4 40 l 25
EndSplineSet
EndChar

StartChar: a
Encoding: 97 97 63
Width: 32
Flags: W
HStem: 0 6<10 18> 11 6<10 18> 22 6<2 18>
VStem: 0 10<6 11> 18 10<6 11 17 22>
CounterMasks: 1 e0
AnchorPoint: "bottom" 14 0 basechar 0
AnchorPoint: "top" 14 28 basechar 0
LayerCount: 2
Fore
SplineSet
18 11 m 25
 10 11 l 25
 10 6 l 25
 18 6 l 25
 18 11 l 25
0 6 m 1
 0 11 l 1
 6 17 l 1
 18 17 l 1
 18 22 l 1
 2 22 l 1
 2 28 l 5
 22 28 l 1
 28 22 l 1
 28 6 l 1
 22 0 l 1
 6 0 l 1
 0 6 l 1
EndSplineSet
EndChar

StartChar: b
Encoding: 98 98 64
Width: 32
Flags: MW
HStem: 0 6<10 18> 22 6<10 18>
VStem: 0 10<6 22 28 40> 18 10<6 22>
LayerCount: 2
Fore
SplineSet
18 22 m 25
 10 22 l 1
 10 6 l 1
 18 6 l 1
 18 22 l 25
0 40 m 25
 10 40 l 1
 10 28 l 1
 22 28 l 1
 28 22 l 5
 28 6 l 1
 22 0 l 1
 0 0 l 1
 0 40 l 25
EndSplineSet
EndChar

StartChar: c
Encoding: 99 99 65
Width: 32
Flags: W
HStem: 0 6<10 18> 22 6<10 18>
VStem: 0 10<6 22> 18 10<6 10 18 22>
AnchorPoint: "bottom" 14 0 basechar 0
AnchorPoint: "top" 14 28 basechar 0
LayerCount: 2
Fore
SplineSet
6 28 m 1
 22 28 l 1
 28 22 l 1
 28 18 l 1
 18 18 l 25
 18 22 l 25
 10 22 l 25
 10 6 l 1
 18 6 l 25
 18 10 l 25
 28 10 l 5
 28 6 l 1
 22 0 l 1
 6 0 l 1
 0 6 l 1
 0 22 l 1
 6 28 l 1
EndSplineSet
EndChar

StartChar: d
Encoding: 100 100 66
Width: 32
Flags: MW
HStem: 0 6<10 18> 22 6<10 18>
VStem: 0 10<6 22> 18 10<6 22 28 40>
LayerCount: 2
Fore
SplineSet
18 22 m 25
 10 22 l 25
 10 6 l 25
 18 6 l 25
 18 22 l 25
18 40 m 25
 28 40 l 25
 28 0 l 1
 6 0 l 1
 0 6 l 1
 0 22 l 1
 6 28 l 1
 18 28 l 1
 18 40 l 25
EndSplineSet
EndChar

StartChar: e
Encoding: 101 101 67
Width: 32
Flags: W
HStem: 0 6<10 18> 11 6<10 18> 22 6<10 18>
VStem: 0 10<6 11 17 22> 18 10<6 10 17 22>
CounterMasks: 1 e0
AnchorPoint: "bottom" 14 0 basechar 0
AnchorPoint: "top" 14 28 basechar 0
LayerCount: 2
Fore
SplineSet
18 22 m 25
 10 22 l 25
 10 17 l 25
 18 17 l 25
 18 22 l 25
6 28 m 1
 22 28 l 1
 28 22 l 1
 28 11 l 1
 10 11 l 1
 10 6 l 1
 18 6 l 1
 18 10 l 1
 28 10 l 5
 28 6 l 1
 22 0 l 1
 6 0 l 1
 0 6 l 1
 0 22 l 1
 6 28 l 1
EndSplineSet
EndChar

StartChar: f
Encoding: 102 102 68
Width: 32
Flags: MW
HStem: 22 6<0 7 17 26> 34 6<17 26>
VStem: 7 10<0 22 28 34>
LayerCount: 2
Fore
SplineSet
7 0 m 1
 7 22 l 25
 0 22 l 25
 0 28 l 25
 7 28 l 1
 7 34 l 1
 13 40 l 1
 26 40 l 1
 26 34 l 1
 17 34 l 1
 17 28 l 1
 26 28 l 1
 26 22 l 1
 17 22 l 1
 17 0 l 1
 7 0 l 1
EndSplineSet
EndChar

StartChar: g
Encoding: 103 103 69
Width: 32
Flags: MW
HStem: -8 6<10 18> 3 6<10 18> 22 6<10 18>
VStem: 0 10<-2 0 9 22> 18 10<-2 3 9 22>
AnchorPoint: "bottom" 14 -8 basechar 0
AnchorPoint: "top" 14 28 basechar 0
LayerCount: 2
Fore
SplineSet
18 22 m 25
 10 22 l 25
 10 9 l 25
 18 9 l 25
 18 22 l 25
0 22 m 1
 6 28 l 1
 28 28 l 1
 28 -2 l 1
 22 -8 l 1
 6 -8 l 1
 0 -2 l 1
 0 0 l 5
 10 0 l 25
 10 -2 l 25
 18 -2 l 25
 18 3 l 1
 6 3 l 1
 0 9 l 1
 0 22 l 1
EndSplineSet
EndChar

StartChar: h
Encoding: 104 104 70
Width: 32
Flags: MW
HStem: 22 6<10 18>
VStem: 0 10<0 22 28 40> 18 10<0 22>
LayerCount: 2
Fore
SplineSet
0 40 m 25
 10 40 l 25
 10 28 l 1
 22 28 l 1
 28 22 l 1
 28 0 l 1
 18 0 l 25
 18 22 l 25
 10 22 l 25
 10 0 l 25
 0 0 l 25
 0 40 l 25
EndSplineSet
EndChar

StartChar: i
Encoding: 105 105 71
Width: 32
Flags: W
HStem: 0 6<3 7 17 21> 19 6<3 7> 30 10<7 17>
VStem: 7 10<6 19 30 40>
AnchorPoint: "top" 12 28 basechar 0
LayerCount: 2
Fore
SplineSet
7 30 m 25
 7 40 l 25
 17 40 l 25
 17 30 l 25
 7 30 l 25
3 0 m 1
 3 6 l 1
 7 6 l 1
 7 19 l 1
 3 19 l 1
 3 25 l 1
 17 25 l 1
 17 6 l 1
 21 6 l 1
 21 0 l 5
 3 0 l 1
EndSplineSet
EndChar

StartChar: j
Encoding: 106 106 72
Width: 32
Flags: MW
HStem: -8 6<10 18> 19 6<14 18> 30 10<18 28>
VStem: 0 10<-2 0> 18 10<-2 19 30 40>
AnchorPoint: "top" 24 28 basechar 0
LayerCount: 2
Fore
SplineSet
14 25 m 1
 28 25 l 1
 28 -2 l 1
 22 -8 l 1
 6 -8 l 1
 0 -2 l 1
 0 0 l 5
 10 0 l 25
 10 -2 l 29
 18 -2 l 1
 18 19 l 1
 14 19 l 1
 14 25 l 1
18 40 m 25
 28 40 l 25
 28 30 l 25
 18 30 l 25
 18 40 l 25
EndSplineSet
EndChar

StartChar: k
Encoding: 107 107 73
Width: 32
Flags: MW
VStem: 0 10<0 10 18 40>
AnchorPoint: "bottom" 12 0 basechar 0
AnchorPoint: "top" 14 40 basechar 0
LayerCount: 2
Fore
SplineSet
0 40 m 25
 10 40 l 1
 10 18 l 1
 18 28 l 1
 28 28 l 1
 20 18 l 1
 20 10 l 1
 28 0 l 1
 18 0 l 1
 10 10 l 25
 10 0 l 1
 0 0 l 25
 0 40 l 25
EndSplineSet
EndChar

StartChar: l
Encoding: 108 108 74
Width: 32
Flags: MW
VStem: 11 10<6 40>
AnchorPoint: "bottom" 16 0 basechar 0
AnchorPoint: "top" 16 40 basechar 0
LayerCount: 2
Fore
SplineSet
11 40 m 1
 21 40 l 1
 21 6 l 1
 27 0 l 1
 17 0 l 5
 11 6 l 1
 11 40 l 1
EndSplineSet
EndChar

StartChar: m
Encoding: 109 109 75
Width: 32
Flags: MW
VStem: 0 10<0 18> 11 6<0 18> 18 10<0 18>
CounterMasks: 1 e0
LayerCount: 2
Fore
SplineSet
0 0 m 25
 0 28 l 1
 10 28 l 1
 16 22 l 1
 16 28 l 1
 22 28 l 1
 28 22 l 1
 28 0 l 1
 18 0 l 5
 18 18 l 25
 17 18 l 1
 17 0 l 25
 11 0 l 1
 11 18 l 25
 10 18 l 1
 10 0 l 25
 0 0 l 25
EndSplineSet
EndChar

StartChar: n
Encoding: 110 110 76
Width: 32
Flags: MW
HStem: 22 6<10 18>
VStem: 0 10<0 22> 18 10<0 22>
AnchorPoint: "top" 14 28 basechar 0
LayerCount: 2
Fore
SplineSet
0 0 m 25
 0 28 l 17
 22 28 l 1
 28 22 l 1
 28 0 l 1
 18 0 l 29
 18 22 l 17
 10 22 l 9
 10 0 l 1
 0 0 l 25
EndSplineSet
EndChar

StartChar: o
Encoding: 111 111 77
Width: 32
Flags: W
HStem: 0 6<10 18> 22 6<10 18>
VStem: 0 10<6 22> 18 10<6 22>
AnchorPoint: "bottom" 14 0 basechar 0
AnchorPoint: "top" 14 28 basechar 0
LayerCount: 2
Fore
SplineSet
18 22 m 25
 10 22 l 25
 10 6 l 25
 18 6 l 29
 18 22 l 25
6 28 m 1
 22 28 l 1
 28 22 l 1
 28 6 l 1
 22 0 l 1
 6 0 l 1
 0 6 l 1
 0 22 l 1
 6 28 l 1
EndSplineSet
EndChar

StartChar: p
Encoding: 112 112 78
Width: 32
Flags: W
HStem: 0 6<10 18> 22 6<10 18>
VStem: 0 10<-8 0 6 22> 18 10<6 22>
LayerCount: 2
Fore
SplineSet
18 22 m 25
 10 22 l 25
 10 6 l 25
 18 6 l 25
 18 22 l 25
0 -8 m 25
 0 28 l 1
 22 28 l 1
 28 22 l 1
 28 6 l 1
 22 0 l 1
 10 0 l 1
 10 -8 l 29
 0 -8 l 25
EndSplineSet
EndChar

StartChar: q
Encoding: 113 113 79
Width: 32
Flags: W
HStem: 0 6<10 18> 22 6<10 18>
VStem: 0 10<6 22> 18 10<-8 0 6 22>
LayerCount: 2
Fore
SplineSet
10 22 m 25
 10 6 l 25
 18 6 l 25
 18 22 l 25
 10 22 l 25
28 -8 m 25
 18 -8 l 29
 18 0 l 1
 6 0 l 1
 0 6 l 1
 0 22 l 1
 6 28 l 1
 28 28 l 1
 28 -8 l 25
EndSplineSet
EndChar

StartChar: r
Encoding: 114 114 80
Width: 32
Flags: MW
VStem: 0 10<0 9 21 28>
AnchorPoint: "top" 14 28 basechar 0
LayerCount: 2
Fore
SplineSet
0 0 m 25
 0 28 l 25
 10 28 l 25
 10 21 l 25
 16 28 l 1
 26 28 l 1
 10 9 l 5
 10 0 l 1
 0 0 l 25
EndSplineSet
EndChar

StartChar: s
Encoding: 115 115 81
Width: 32
Flags: W
HStem: 0 6<10 18> 22 6<10 18>
VStem: 0 10<6 10 20 22> 18 10<6 8 18 22>
AnchorPoint: "bottom" 14 0 basechar 0
AnchorPoint: "top" 14 28 basechar 0
LayerCount: 2
Fore
SplineSet
0 22 m 1
 6 28 l 1
 22 28 l 1
 28 22 l 1
 28 18 l 1
 18 18 l 25
 18 22 l 25
 10 22 l 1
 10 20 l 5
 28 10 l 1
 28 6 l 1
 22 0 l 1
 6 0 l 1
 0 6 l 1
 0 10 l 1
 10 10 l 25
 10 6 l 25
 18 6 l 1
 18 8 l 1
 0 18 l 1
 0 22 l 1
EndSplineSet
EndChar

StartChar: t
Encoding: 116 116 82
Width: 32
Flags: MW
HStem: 0 6<17 26> 22 6<0 7 17 26>
VStem: 7 10<6 22 28 40>
AnchorPoint: "bottom" 16 0 basechar 0
LayerCount: 2
Fore
SplineSet
7 40 m 1
 17 40 l 1
 17 28 l 25
 26 28 l 29
 26 22 l 25
 17 22 l 1
 17 6 l 1
 26 6 l 1
 26 0 l 1
 13 0 l 1
 7 6 l 1
 7 22 l 1
 0 22 l 25
 0 28 l 25
 7 28 l 25
 7 40 l 1
EndSplineSet
EndChar

StartChar: u
Encoding: 117 117 83
Width: 32
Flags: MW
HStem: 0 6<10 18>
VStem: 0 10<6 28> 18 10<6 28>
AnchorPoint: "bottom" 14 0 basechar 0
AnchorPoint: "top" 14 28 basechar 0
LayerCount: 2
Fore
SplineSet
0 28 m 1
 10 28 l 25
 10 6 l 25
 18 6 l 25
 18 28 l 29
 28 28 l 1
 28 6 l 1
 22 0 l 1
 6 0 l 1
 0 6 l 1
 0 28 l 1
EndSplineSet
EndChar

StartChar: v
Encoding: 118 118 84
Width: 32
Flags: MW
LayerCount: 2
Fore
SplineSet
0 28 m 1
 10 28 l 1
 14 15 l 5
 18 28 l 1
 28 28 l 1
 19 0 l 1
 9 0 l 1
 0 28 l 1
EndSplineSet
EndChar

StartChar: w
Encoding: 119 119 85
Width: 32
Flags: MW
VStem: 0 10<14 28> 18 10<14 28>
AnchorPoint: "top" 14 28 basechar 0
LayerCount: 2
Fore
SplineSet
0 28 m 25
 10 28 l 1
 10 14 l 1
 14 20 l 1
 18 14 l 1
 18 28 l 1
 28 28 l 25
 28 0 l 25
 18 0 l 1
 14 6 l 5
 10 0 l 1
 0 0 l 25
 0 28 l 25
EndSplineSet
EndChar

StartChar: x
Encoding: 120 120 86
Width: 32
Flags: MW
LayerCount: 2
Fore
SplineSet
0 28 m 1
 10 28 l 1
 14 22 l 1
 18 28 l 1
 28 28 l 1
 19 14 l 1
 28 0 l 1
 18 0 l 1
 14 6 l 1
 10 0 l 1
 0 0 l 1
 9 14 l 5
 0 28 l 1
EndSplineSet
EndChar

StartChar: y
Encoding: 121 121 87
Width: 32
Flags: W
HStem: -8 6<2 16> 0 6<10 18> 8 20G<0 10 18 28>
VStem: 0 10<6 28> 18 10<6 28>
AnchorPoint: "top" 14 28 basechar 0
LayerCount: 2
Fore
SplineSet
0 28 m 1
 10 28 l 25
 10 6 l 25
 18 6 l 25
 18 28 l 25
 28 28 l 25
 28 0 l 25
 20 -8 l 25
 2 -8 l 25
 2 -2 l 25
 16 -2 l 25
 18 0 l 5
 6 0 l 1
 0 6 l 1
 0 28 l 1
EndSplineSet
EndChar

StartChar: z
Encoding: 122 122 88
Width: 32
Flags: W
HStem: 0 6<10 28> 22 6<0 18>
AnchorPoint: "bottom" 14 0 basechar 0
AnchorPoint: "top" 14 28 basechar 0
LayerCount: 2
Fore
SplineSet
0 28 m 25
 28 28 l 25
 28 22 l 25
 10 6 l 25
 28 6 l 25
 28 0 l 25
 0 0 l 25
 0 6 l 29
 18 22 l 25
 0 22 l 25
 0 28 l 25
EndSplineSet
EndChar

StartChar: braceleft
Encoding: 123 123 89
Width: 32
Flags: W
HStem: 0 6<17 24> 34 6<17 24>
VStem: 7 10<6 16 24 34>
LayerCount: 2
Fore
SplineSet
13 40 m 5
 24 40 l 1
 24 34 l 1
 17 34 l 1
 17 24 l 1
 11 20 l 1
 17 16 l 1
 17 6 l 25
 24 6 l 1
 24 0 l 1
 13 0 l 1
 7 6 l 1
 7 16 l 1
 1 20 l 1
 7 24 l 1
 7 34 l 1
 13 40 l 5
EndSplineSet
EndChar

StartChar: bar
Encoding: 124 124 90
Width: 32
Flags: MW
VStem: 11 10<0 40>
LayerCount: 2
Fore
SplineSet
11 40 m 29
 21 40 l 25
 21 0 l 25
 11 0 l 25
 11 40 l 29
EndSplineSet
EndChar

StartChar: braceright
Encoding: 125 125 91
Width: 32
Flags: W
HStem: 0 6<4 11> 34 6<4 11>
VStem: 11 10<6 16 24 34>
LayerCount: 2
Fore
SplineSet
15 40 m 1
 21 34 l 1
 21 24 l 1
 27 20 l 1
 21 16 l 1
 21 6 l 1
 15 0 l 1
 4 0 l 1
 4 6 l 1
 11 6 l 25
 11 16 l 1
 17 20 l 5
 11 24 l 1
 11 34 l 1
 4 34 l 1
 4 40 l 1
 15 40 l 1
EndSplineSet
EndChar

StartChar: asciitilde
Encoding: 126 126 92
Width: 32
Flags: W
HStem: 11 17
LayerCount: 2
Fore
SplineSet
4 21 m 25
 12 28 l 25
 20 21 l 25
 28 28 l 25
 28 18 l 29
 20 11 l 25
 12 18 l 25
 4 11 l 25
 4 21 l 25
EndSplineSet
EndChar

StartChar: gravecomb
Encoding: 768 768 93
Width: 32
Flags: W
HStem: 44 8<11 17>
VStem: 7 14
AnchorPoint: "top" 16 40 mark 0
LayerCount: 2
Fore
SplineSet
7 52 m 5
 17 52 l 1
 21 44 l 1
 11 44 l 1
 7 52 l 5
EndSplineSet
EndChar

StartChar: acutecomb
Encoding: 769 769 104
Width: 32
Flags: W
HStem: 44 8<15 21>
VStem: 11 14
AnchorPoint: "top" 16 40 mark 0
LayerCount: 2
Fore
SplineSet
15 52 m 1
 25 52 l 5
 21 44 l 1
 11 44 l 1
 15 52 l 1
EndSplineSet
EndChar

StartChar: uni0302
Encoding: 770 770 105
Width: 32
Flags: W
HStem: 44 8
AnchorPoint: "top" 16 40 mark 0
LayerCount: 2
Fore
SplineSet
4 44 m 1
 16 52 l 1
 28 44 l 1
 20 44 l 5
 16 47 l 1
 12 44 l 1
 4 44 l 1
EndSplineSet
EndChar

StartChar: tildecomb
Encoding: 771 771 106
Width: 32
Flags: W
HStem: 44 8
AnchorPoint: "top" 16 40 mark 0
LayerCount: 2
Fore
SplineSet
4 49 m 1
 12 52 l 1
 20 49 l 1
 28 52 l 1
 28 47 l 5
 20 44 l 1
 12 47 l 1
 4 44 l 1
 4 49 l 1
EndSplineSet
EndChar

StartChar: uni0304
Encoding: 772 772 129
Width: 32
Flags: W
HStem: 42 10<3 29>
AnchorPoint: "top" 16 40 mark 0
LayerCount: 2
Fore
SplineSet
3 52 m 1
 29 52 l 1
 29 42 l 5
 3 42 l 1
 3 52 l 1
EndSplineSet
EndChar

StartChar: uni0305
Encoding: 773 773 130
Width: 32
Flags: W
HStem: 46 6<0 32>
AnchorPoint: "top" 16 40 mark 0
LayerCount: 2
Fore
SplineSet
0 52 m 1
 32 52 l 1
 32 46 l 1
 0 46 l 5
 0 52 l 1
EndSplineSet
EndChar

StartChar: uni0306
Encoding: 774 774 131
Width: 32
Flags: W
HStem: 44 8<10 13 19 22>
AnchorPoint: "top" 16 40 mark 0
LayerCount: 2
Fore
SplineSet
13 52 m 1
 13 49 l 1
 19 49 l 1
 19 52 l 1
 28 52 l 1
 28 50 l 5
 22 44 l 1
 10 44 l 1
 4 50 l 1
 4 52 l 1
 13 52 l 1
EndSplineSet
EndChar

StartChar: uni0307
Encoding: 775 775 132
Width: 32
Flags: W
HStem: 42 10<11 21>
VStem: 11 10<42 52>
AnchorPoint: "top" 16 40 mark 0
LayerCount: 2
Fore
SplineSet
11 52 m 1
 21 52 l 1
 21 42 l 5
 11 42 l 1
 11 52 l 1
EndSplineSet
EndChar

StartChar: uni0308
Encoding: 776 776 133
Width: 32
Flags: W
HStem: 42 10<5 15 17 27>
VStem: 5 10<42 52> 17 10<42 52>
AnchorPoint: "top" 16 40 mark 0
LayerCount: 2
Fore
SplineSet
17 52 m 1
 27 52 l 1
 27 42 l 5
 17 42 l 1
 17 52 l 1
5 52 m 1
 15 52 l 1
 15 42 l 1
 5 42 l 1
 5 52 l 1
EndSplineSet
EndChar

StartChar: dotlessi
Encoding: 305 305 180
Width: 32
Flags: W
HStem: 0 5<3 7 17 21> 19 6<3 7>
VStem: 7 10<5 19>
AnchorPoint: "top" 12 28 basechar 0
LayerCount: 2
Fore
SplineSet
3 0 m 1
 3 5 l 1
 7 5 l 1
 7 19 l 1
 3 19 l 1
 3 25 l 1
 17 25 l 1
 17 5 l 1
 21 5 l 1
 21 0 l 5
 3 0 l 1
EndSplineSet
EndChar

StartChar: uni030A
Encoding: 778 778 247
Width: 32
Flags: MW
HStem: 42 4<15 17> 48 4<15 17>
VStem: 9 6<46 48> 9 14 17 6<46 48>
AnchorPoint: "top" 16 40 mark 0
LayerCount: 2
Fore
SplineSet
17 48 m 5
 15 48 l 1
 15 46 l 1
 17 46 l 1
 17 48 l 5
13 52 m 1
 19 52 l 1
 23 48 l 5
 23 46 l 1
 19 42 l 1
 13 42 l 1
 9 46 l 1
 9 48 l 1
 13 52 l 1
EndSplineSet
EndChar

StartChar: uni030C
Encoding: 780 780 248
Width: 32
Flags: W
HStem: 44 8
AnchorPoint: "top" 16 40 mark 0
LayerCount: 2
Fore
SplineSet
28 52 m 1
 16 44 l 1
 4 52 l 1
 12 52 l 1
 16 49 l 5
 20 52 l 1
 28 52 l 1
EndSplineSet
EndChar

StartChar: uni0237
Encoding: 567 567 254
Width: 32
Flags: MW
HStem: -8 6<10 18> 19 6<14 18>
VStem: 0 10<-2 0> 18 10<-2 19>
AnchorPoint: "top" 24 28 basechar 0
LayerCount: 2
Fore
SplineSet
14 25 m 1
 28 25 l 1
 28 -2 l 1
 22 -8 l 1
 6 -8 l 1
 0 -2 l 1
 0 0 l 5
 10 0 l 25
 10 -2 l 29
 18 -2 l 1
 18 19 l 1
 14 19 l 1
 14 25 l 1
EndSplineSet
EndChar

StartChar: exclamdown
Encoding: 161 161 255
Width: 32
VWidth: 48
Flags: W
HStem: 22 10<11 21>
VStem: 11 10<-8 18 22 32>
LayerCount: 2
Fore
SplineSet
21 -8 m 25
 11 -8 l 25
 11 18 l 25
 21 18 l 25
 21 -8 l 25
21 22 m 25
 11 22 l 25
 11 32 l 25
 21 32 l 25
 21 22 l 25
EndSplineSet
EndChar

StartChar: quotesingle
Encoding: 39 39 266
Width: 32
Flags: W
HStem: 27 13<7 17>
VStem: 7 10<27 40>
LayerCount: 2
Fore
SplineSet
7 40 m 5
 17 40 l 1
 17 27 l 1
 7 27 l 1
 7 40 l 5
EndSplineSet
EndChar

StartChar: asciicircum
Encoding: 94 94 267
Width: 32
Flags: W
HStem: 26 14
LayerCount: 2
Fore
SplineSet
0 26 m 1
 14 40 l 1
 28 26 l 25
 18 26 l 1
 14 30 l 5
 10 26 l 1
 0 26 l 1
EndSplineSet
EndChar

StartChar: cent
Encoding: 162 162 268
Width: 32
Flags: MW
HStem: 3 6<10 11 17 18> 19 6<10 11 17 18>
VStem: 0 10<9 19> 11 6<0 3 9 19 25 28> 18 10<9 13 15 19>
CounterMasks: 1 38
LayerCount: 2
Fore
SplineSet
11 19 m 25
 10 19 l 25
 10 9 l 25
 11 9 l 25
 11 19 l 25
11 28 m 1
 17 28 l 1
 17 25 l 1
 22 25 l 1
 28 19 l 1
 28 15 l 1
 18 15 l 1
 18 19 l 1
 17 19 l 1
 17 9 l 5
 18 9 l 1
 18 13 l 1
 28 13 l 1
 28 9 l 1
 22 3 l 1
 17 3 l 5
 17 0 l 1
 11 0 l 1
 11 3 l 1
 6 3 l 1
 0 9 l 1
 0 19 l 1
 6 25 l 1
 11 25 l 1
 11 28 l 1
EndSplineSet
EndChar

StartChar: sterling
Encoding: 163 163 269
Width: 32
Flags: W
HStem: 0 6<0 3 13 28> 22 6<0 3 13 28> 34 6<13 20>
VStem: 3 10<6 22 28 34> 20 8<30 34>
LayerCount: 2
Fore
SplineSet
0 0 m 25
 0 6 l 25
 3 6 l 1
 3 22 l 1
 0 22 l 1
 0 28 l 1
 3 28 l 1
 3 34 l 1
 9 40 l 5
 22 40 l 1
 28 34 l 1
 28 30 l 1
 20 30 l 1
 20 34 l 1
 13 34 l 1
 13 28 l 1
 28 28 l 1
 28 22 l 1
 13 22 l 1
 13 6 l 1
 28 6 l 1
 28 0 l 25
 0 0 l 25
EndSplineSet
EndChar

StartChar: currency
Encoding: 164 164 270
Width: 32
Flags: W
HStem: 4 10<10 18> 22 10<10 18>
VStem: 0 10<14 22> 18 10<14 22>
LayerCount: 2
Fore
SplineSet
18 22 m 25
 10 22 l 25
 10 14 l 25
 18 14 l 25
 18 22 l 25
10 32 m 1
 18 32 l 1
 21 29 l 1
 24 32 l 1
 28 32 l 1
 28 28 l 1
 25 25 l 1
 28 22 l 1
 28 14 l 1
 25 11 l 1
 28 8 l 1
 28 4 l 1
 24 4 l 1
 21 7 l 1
 18 4 l 1
 10 4 l 1
 7 7 l 1
 4 4 l 1
 0 4 l 1
 0 8 l 1
 3 11 l 1
 0 14 l 1
 0 22 l 1
 3 25 l 5
 0 28 l 1
 0 32 l 1
 4 32 l 1
 7 29 l 1
 10 32 l 1
EndSplineSet
EndChar

StartChar: yen
Encoding: 165 165 271
Width: 32
Flags: MW
HStem: 3 6<3 9 19 25> 11 6<3 9 19 25>
VStem: 9 10<0 3 9 11>
LayerCount: 2
Fore
SplineSet
0 40 m 1
 10 40 l 1
 14 28 l 1
 18 40 l 1
 28 40 l 1
 19 17 l 1
 25 17 l 1
 25 11 l 1
 19 11 l 1
 19 9 l 1
 25 9 l 5
 25 3 l 1
 19 3 l 1
 19 0 l 1
 9 0 l 1
 9 3 l 1
 3 3 l 1
 3 9 l 1
 9 9 l 1
 9 11 l 1
 3 11 l 1
 3 17 l 1
 9 17 l 1
 0 40 l 1
EndSplineSet
EndChar

StartChar: brokenbar
Encoding: 166 166 272
Width: 32
Flags: MW
VStem: 11 10<0 18 22 40>
LayerCount: 2
Fore
SplineSet
11 18 m 1
 21 18 l 1
 21 0 l 1
 11 0 l 1
 11 18 l 1
21 22 m 1
 11 22 l 1
 11 40 l 1
 21 40 l 1
 21 22 l 1
EndSplineSet
EndChar

StartChar: section
Encoding: 167 167 273
Width: 32
Flags: W
HStem: 0 6<2 8> 34 6<20 26>
VStem: 0 10<14 26> 18 10<14 26>
LayerCount: 2
Fore
SplineSet
18 26 m 1
 10 26 l 1
 10 14 l 1
 18 14 l 1
 18 26 l 1
0 26 m 1
 14 40 l 1
 26 40 l 1
 26 34 l 1
 20 34 l 1
 28 26 l 1
 28 14 l 1
 14 0 l 1
 2 0 l 1
 2 6 l 1
 8 6 l 5
 0 14 l 1
 0 26 l 1
EndSplineSet
EndChar

StartChar: dieresis
Encoding: 168 168 274
Width: 32
Flags: W
HStem: 30 10<3 13 15 25>
VStem: 3 10<30 40> 15 10<30 40>
LayerCount: 2
Fore
SplineSet
15 40 m 1
 25 40 l 5
 25 30 l 1
 15 30 l 1
 15 40 l 1
3 40 m 1
 13 40 l 1
 13 30 l 1
 3 30 l 1
 3 40 l 1
EndSplineSet
EndChar

StartChar: copyright
Encoding: 169 169 275
Width: 32
Flags: W
HStem: 0 6<6 22> 7 6<14 21> 23 6<14 21> 30 6<6 22>
VStem: 0 6<6 30> 7 6<14 22> 22 6<6 30>
LayerCount: 2
Fore
SplineSet
7 22 m 5
 14 29 l 5
 21 29 l 5
 21 23 l 5
 14 23 l 5
 13 22 l 5
 13 14 l 5
 14 13 l 5
 21 13 l 5
 21 7 l 5
 14 7 l 5
 7 14 l 5
 7 22 l 5
22 30 m 5
 6 30 l 5
 6 6 l 5
 22 6 l 5
 22 30 l 5
6 36 m 5
 22 36 l 5
 28 30 l 5
 28 6 l 5
 22 0 l 5
 6 0 l 5
 0 6 l 5
 0 30 l 5
 6 36 l 5
EndSplineSet
EndChar

StartChar: ordfeminine
Encoding: 170 170 276
Width: 32
Flags: MW
HStem: 20 5<13 15> 27 6<13 15> 35 5<8 14>
VStem: 8 5<25 27> 15 5<25 27 33 34>
LayerCount: 2
Fore
SplineSet
15 27 m 29
 13 27 l 25
 13 25 l 25
 15 25 l 25
 15 27 l 29
8 40 m 1
 14 40 l 1
 20 34 l 1
 20 20 l 1
 12 20 l 1
 8 24 l 1
 8 29 l 1
 12 33 l 1
 15 33 l 5
 15 35 l 1
 8 35 l 1
 8 40 l 1
EndSplineSet
EndChar

StartChar: guillemotleft
Encoding: 171 171 277
Width: 32
Flags: MW
LayerCount: 2
Fore
SplineSet
19 20 m 1
 28 20 l 1
 20 10 l 1
 28 0 l 1
 19 0 l 1
 11 10 l 1
 19 20 l 1
8 20 m 1
 17 20 l 1
 9 10 l 1
 17 0 l 5
 8 0 l 1
 0 10 l 1
 8 20 l 1
EndSplineSet
EndChar

StartChar: logicalnot
Encoding: 172 172 278
Width: 32
Flags: MW
HStem: 22 6<0 18>
VStem: 18 10<18 22>
LayerCount: 2
Fore
SplineSet
0 28 m 1
 28 28 l 25
 28 18 l 29
 18 18 l 29
 18 22 l 1
 0 22 l 25
 0 28 l 1
EndSplineSet
EndChar

StartChar: uni00AD
Encoding: 173 173 279
Width: 32
Flags: W
HStem: 15 10<3 29>
LayerCount: 2
Fore
SplineSet
3 25 m 25
 29 25 l 29
 29 15 l 25
 3 15 l 25
 3 25 l 25
EndSplineSet
EndChar

StartChar: uni0327
Encoding: 807 807 280
Width: 32
Flags: MW
AnchorPoint: "bottom" 14 0 mark 0
LayerCount: 2
Fore
SplineSet
11 0 m 5
 17 0 l 1
 21 -6 l 1
 17 -12 l 1
 11 -12 l 1
 15 -6 l 1
 11 0 l 5
EndSplineSet
EndChar

StartChar: uni0328
Encoding: 808 808 283
Width: 32
Flags: MW
AnchorPoint: "bottom" 14 0 mark 0
LayerCount: 2
Fore
SplineSet
11 0 m 5
 17 0 l 1
 13 -6 l 25
 17 -12 l 1
 11 -12 l 1
 7 -6 l 25
 11 0 l 5
EndSplineSet
EndChar

StartChar: registered
Encoding: 174 174 296
Width: 32
Flags: MW
HStem: 0 6<6 22> 23 6<13 15> 30 6<6 22>
VStem: 0 6<6 30> 7 6<7 15 21 23> 15 6<7 13 21 23> 22 6<6 30>
LayerCount: 2
Back
Fore
SplineSet
15 23 m 25
 13 23 l 25
 13 21 l 29
 15 21 l 25
 15 23 l 25
7 29 m 25
 16 29 l 1
 21 24 l 1
 21 21 l 1
 18 18 l 25
 21 15 l 25
 21 7 l 25
 15 7 l 25
 15 13 l 1
 13 15 l 21
 13 7 l 25
 7 7 l 25
 7 29 l 25
22 30 m 9
 6 30 l 9
 6 6 l 9
 22 6 l 25
 22 30 l 9
6 36 m 1
 22 36 l 1
 28 30 l 1
 28 6 l 1
 22 0 l 1
 6 0 l 1
 0 6 l 1
 0 30 l 1
 6 36 l 1
EndSplineSet
EndChar

StartChar: macron
Encoding: 175 175 297
Width: 32
Flags: W
HStem: 42 10<2 28>
LayerCount: 2
Fore
SplineSet
2 52 m 5
 28 52 l 1
 28 42 l 1
 2 42 l 1
 2 52 l 5
EndSplineSet
EndChar

StartChar: degree
Encoding: 176 176 298
Width: 32
Flags: MW
HStem: 18 6<13 15> 34 6<13 15>
VStem: 3 10<25 33> 15 10<25 33>
LayerCount: 2
Back
Fore
SplineSet
15 34 m 29
 13 34 l 25
 13 24 l 25
 15 24 l 25
 15 34 l 29
10 40 m 1
 18 40 l 5
 25 33 l 1
 25 25 l 1
 18 18 l 1
 10 18 l 1
 3 25 l 1
 3 33 l 1
 10 40 l 1
EndSplineSet
EndChar

StartChar: plusminus
Encoding: 177 177 299
Width: 32
Flags: MW
HStem: 0 10<3 29> 22 10<3 11 21 29>
VStem: 11 10<14 22 32 40>
LayerCount: 2
Fore
SplineSet
3 10 m 25
 29 10 l 25
 29 0 l 25
 3 0 l 25
 3 10 l 25
11 40 m 29
 21 40 l 29
 21 32 l 29
 29 32 l 29
 29 22 l 29
 21 22 l 29
 21 14 l 29
 11 14 l 29
 11 22 l 29
 3 22 l 29
 3 32 l 29
 11 32 l 29
 11 40 l 29
EndSplineSet
EndChar

StartChar: uni00B2
Encoding: 178 178 300
Width: 32
Flags: MW
HStem: 20 5<13 20> 27 6<13 15> 35 5<8 15>
VStem: 8 5<25 27> 15 5<33 35>
LayerCount: 2
Fore
SplineSet
8 40 m 1
 20 40 l 25
 20 27 l 25
 13 27 l 5
 13 25 l 1
 20 25 l 1
 20 20 l 1
 8 20 l 1
 8 33 l 1
 15 33 l 5
 15 35 l 1
 8 35 l 1
 8 40 l 1
EndSplineSet
EndChar

StartChar: uni00B3
Encoding: 179 179 301
Width: 32
Flags: MW
HStem: 20 5<8 15> 27 6<8 15> 35 5<8 15>
VStem: 15 5<25 27 33 35>
CounterMasks: 1 e0
LayerCount: 2
Fore
SplineSet
8 40 m 1
 20 40 l 25
 20 20 l 25
 8 20 l 25
 8 25 l 29
 15 25 l 25
 15 27 l 25
 8 27 l 25
 8 33 l 25
 15 33 l 25
 15 35 l 1
 8 35 l 25
 8 40 l 1
EndSplineSet
EndChar

StartChar: acute
Encoding: 180 180 302
Width: 32
Flags: W
HStem: 32 8<12 18>
VStem: 8 14
LayerCount: 2
Fore
SplineSet
12 40 m 1
 22 40 l 5
 18 32 l 5
 8 32 l 1
 12 40 l 1
EndSplineSet
EndChar

StartChar: mu
Encoding: 181 181 303
Width: 32
Flags: MW
HStem: 0 6<10 18>
VStem: 0 10<-8 0 6 28> 18 10<6 28>
LayerCount: 2
Fore
SplineSet
0 28 m 25
 10 28 l 25
 10 6 l 25
 18 6 l 29
 18 28 l 25
 28 28 l 1
 28 6 l 1
 22 0 l 1
 10 0 l 1
 10 -8 l 25
 0 -8 l 25
 0 28 l 25
EndSplineSet
EndChar

StartChar: paragraph
Encoding: 182 182 304
Width: 32
Flags: MW
HStem: 34 6<16 18>
VStem: 6 10<0 18> 18 10<0 34>
LayerCount: 2
Fore
SplineSet
8 40 m 1
 28 40 l 5
 28 0 l 1
 18 0 l 1
 18 34 l 1
 16 34 l 5
 16 0 l 1
 6 0 l 1
 6 18 l 1
 0 24 l 1
 0 32 l 1
 8 40 l 1
EndSplineSet
EndChar

StartChar: periodcentered
Encoding: 183 183 305
Width: 32
Flags: W
HStem: 15 10<11 21>
VStem: 11 10<15 25>
LayerCount: 2
Fore
SplineSet
11 25 m 1
 21 25 l 1
 21 15 l 1
 11 15 l 5
 11 25 l 1
EndSplineSet
EndChar

StartChar: cedilla
Encoding: 184 184 306
Width: 32
Flags: MW
VStem: 11 10
LayerCount: 2
Fore
SplineSet
11 0 m 25
 17 0 l 29
 21 -6 l 1
 17 -12 l 1
 11 -12 l 1
 15 -6 l 1
 11 0 l 25
EndSplineSet
EndChar

StartChar: uni00B9
Encoding: 185 185 307
Width: 32
Flags: MW
HStem: 20 5<8 11 17 20> 31 6<8 11>
VStem: 11 6<25 31 37 40>
LayerCount: 2
Fore
SplineSet
11 40 m 1
 17 40 l 25
 17 25 l 25
 20 25 l 25
 20 20 l 25
 8 20 l 25
 8 25 l 25
 11 25 l 1
 11 31 l 1
 8 31 l 1
 8 37 l 1
 11 37 l 1
 11 40 l 1
EndSplineSet
EndChar

StartChar: ordmasculine
Encoding: 186 186 308
Width: 32
Flags: W
HStem: 20 5<13 15> 35 5<13 15>
VStem: 8 5<25 35> 15 5<25 35>
LayerCount: 2
Fore
SplineSet
15 35 m 1
 13 35 l 1
 13 25 l 1
 15 25 l 5
 15 35 l 1
8 36 m 1
 12 40 l 1
 16 40 l 1
 20 36 l 1
 20 24 l 1
 16 20 l 1
 12 20 l 1
 8 24 l 1
 8 36 l 1
EndSplineSet
EndChar

StartChar: guillemotright
Encoding: 187 187 309
Width: 32
Flags: MW
LayerCount: 2
Fore
SplineSet
9 0 m 1
 0 0 l 1
 8 10 l 1
 0 20 l 1
 9 20 l 1
 17 10 l 1
 9 0 l 1
20 0 m 1
 11 0 l 1
 19 10 l 1
 11 20 l 5
 20 20 l 1
 28 10 l 1
 20 0 l 1
EndSplineSet
EndChar

StartChar: onequarter
Encoding: 188 188 310
Width: 32
Flags: MW
HStem: 3 6<21 23> 24 5<0 3 9 12> 35 6<0 3>
VStem: 3 6<29 35 41 44> 15 6<9 16> 23 5<-4 3 9 16>
LayerCount: 2
Back
Fore
SplineSet
22 36 m 1
 28 36 l 1
 6 4 l 1
 0 4 l 1
 22 36 l 1
15 16 m 25
 21 16 l 25
 21 9 l 29
 23 9 l 25
 23 16 l 25
 28 16 l 25
 28 -4 l 25
 23 -4 l 25
 23 3 l 29
 15 3 l 25
 15 16 l 25
0 41 m 25
 3 41 l 25
 3 44 l 25
 9 44 l 25
 9 29 l 25
 12 29 l 25
 12 24 l 25
 0 24 l 25
 0 29 l 25
 3 29 l 25
 3 35 l 25
 0 35 l 25
 0 41 l 25
EndSplineSet
EndChar

StartChar: onehalf
Encoding: 189 189 311
Width: 32
Flags: MW
HStem: -4 5<21 28> 3 6<21 23> 11 5<16 23> 24 5<0 3 9 12> 35 6<0 3>
VStem: 3 6<29 35 41 44> 16 5<1 3> 23 5<9 11>
LayerCount: 2
Fore
SplineSet
16 16 m 1
 28 16 l 1
 28 3 l 5
 21 3 l 1
 21 1 l 1
 28 1 l 1
 28 -4 l 1
 16 -4 l 1
 16 9 l 1
 23 9 l 5
 23 11 l 1
 16 11 l 1
 16 16 l 1
22 36 m 1
 28 36 l 1
 6 4 l 1
 0 4 l 1
 22 36 l 1
0 41 m 25
 3 41 l 1
 3 44 l 25
 9 44 l 25
 9 29 l 25
 12 29 l 25
 12 24 l 25
 0 24 l 25
 0 29 l 25
 3 29 l 25
 3 35 l 25
 0 35 l 1
 0 41 l 25
EndSplineSet
EndChar

StartChar: threequarters
Encoding: 190 190 312
Width: 32
Flags: MW
HStem: 3 6<21 23> 24 5<0 7> 31 6<0 7> 39 5<0 7>
VStem: 7 5<29 31 37 39> 16 5<9 16> 23 5<-4 3 9 16>
CounterMasks: 1 70
LayerCount: 2
Fore
SplineSet
22 36 m 1
 28 36 l 1
 6 4 l 1
 0 4 l 1
 22 36 l 1
16 16 m 25
 21 16 l 25
 21 9 l 25
 23 9 l 29
 23 16 l 25
 28 16 l 25
 28 -4 l 25
 23 -4 l 25
 23 3 l 29
 16 3 l 25
 16 16 l 25
0 37 m 1
 7 37 l 1
 7 39 l 1
 0 39 l 1
 0 44 l 1
 12 44 l 1
 12 24 l 1
 0 24 l 25
 0 29 l 1
 7 29 l 1
 7 31 l 1
 0 31 l 1
 0 37 l 1
EndSplineSet
EndChar

StartChar: questiondown
Encoding: 191 191 313
Width: 32
Flags: W
HStem: -8 6<10 14> 22 10<7 17>
VStem: 0 10<-2 8> 7 10<22 32> 14 10<-2 6>
LayerCount: 2
Fore
SplineSet
24 6 m 1xe8
 24 -2 l 1
 18 -8 l 1
 6 -8 l 1
 0 -2 l 1
 0 8 l 1xe8
 7 16 l 1
 17 16 l 1xd0
 10 8 l 1
 10 -2 l 1
 14 -2 l 1
 14 6 l 1
 24 6 l 1xe8
17 22 m 25xd0
 7 22 l 25
 7 32 l 25
 17 32 l 25
 17 22 l 25xd0
EndSplineSet
EndChar

StartChar: AE
Encoding: 198 198 314
Width: 32
Flags: MW
HStem: 0 5<21 28> 11 6<9 11> 19 6<21 28> 34 6<9 11 21 28>
VStem: 0 9<0 11 17 34> 11 10<5 11 17 19 25 34>
AnchorPoint: "top" 14 40 basechar 0
LayerCount: 2
Fore
SplineSet
11 34 m 25
 9 34 l 25
 9 17 l 25
 11 17 l 29
 11 34 l 25
6 40 m 1
 28 40 l 1
 28 34 l 1
 21 34 l 1
 21 25 l 1
 28 25 l 1
 28 19 l 1
 21 19 l 1
 21 5 l 1
 28 5 l 1
 28 0 l 1
 11 0 l 1
 11 11 l 5
 9 11 l 1
 9 0 l 1
 0 0 l 1
 0 34 l 1
 6 40 l 1
EndSplineSet
EndChar

StartChar: ae
Encoding: 230 230 315
Width: 32
Flags: MW
HStem: 0 6<10 11 21 28> 7 6<21 22> 23 5<2 11>
VStem: 0 10<6 15> 11 10<6 7 13 15> 22 6<13 20>
AnchorPoint: "top" 14 28 basechar 0
LayerCount: 2
Fore
SplineSet
11 15 m 1
 10 15 l 25
 10 6 l 1
 11 6 l 25
 11 15 l 1
22 20 m 1
 21 20 l 1
 21 13 l 1
 22 13 l 5
 22 20 l 1
2 28 m 1
 22 28 l 1
 28 22 l 1
 28 7 l 5
 21 7 l 1
 21 6 l 1
 28 6 l 1
 28 0 l 1
 6 0 l 1
 0 6 l 1
 0 15 l 1
 6 21 l 1
 11 21 l 1
 11 23 l 1
 2 23 l 25
 2 28 l 1
EndSplineSet
EndChar

StartChar: Eth
Encoding: 208 208 316
Width: 32
Flags: MW
HStem: 15 10<0 3 13 17>
VStem: 3 10<6 15 25 34> 18 10<12 28>
AnchorPoint: "top" 14 40 basechar 0
AnchorPoint: "bottom" 14 0 basechar 0
LayerCount: 2
Fore
SplineSet
13 34 m 1
 13 25 l 1
 17 25 l 1
 17 15 l 1
 13 15 l 1
 13 6 l 1
 18 12 l 1
 18 28 l 1
 13 34 l 1
3 40 m 1
 20 40 l 1
 28 28 l 1
 28 12 l 1
 20 0 l 5
 3 0 l 1
 3 15 l 1
 0 15 l 1
 0 25 l 1
 3 25 l 1
 3 40 l 1
EndSplineSet
EndChar

StartChar: eth
Encoding: 240 240 317
Width: 32
Flags: MW
HStem: 0 6<10 15> 22 6<10 15> 31 6<10 15 25 28>
VStem: 0 10<6 22> 15 10<6 22 28 31 37 40>
LayerCount: 2
Fore
SplineSet
15 40 m 5
 25 40 l 5
 25 37 l 5
 28 37 l 5
 28 31 l 5
 25 31 l 5
 25 0 l 5
 6 0 l 5
 0 6 l 5
 0 22 l 5
 6 28 l 5
 15 28 l 5
 15 31 l 5
 10 31 l 5
 10 37 l 5
 15 37 l 5
 15 40 l 5
15 22 m 5
 10 22 l 5
 10 6 l 5
 15 6 l 5
 15 22 l 5
EndSplineSet
EndChar

StartChar: multiply
Encoding: 215 215 318
Width: 32
Flags: W
LayerCount: 2
Fore
SplineSet
4 27 m 1
 4 32 l 1
 9 32 l 1
 16 25 l 5
 23 32 l 1
 28 32 l 1
 28 27 l 1
 21 20 l 1
 28 13 l 1
 28 8 l 1
 23 8 l 1
 16 15 l 1
 9 8 l 1
 4 8 l 1
 4 13 l 1
 11 20 l 1
 4 27 l 1
EndSplineSet
EndChar

StartChar: divide
Encoding: 247 247 319
Width: 32
Flags: W
HStem: 6 6<11 21> 15 10<3 29> 28 6<11 21>
VStem: 11 10<6 12 28 34>
CounterMasks: 1 e0
LayerCount: 2
Fore
SplineSet
21 28 m 1
 11 28 l 1
 11 34 l 1
 21 34 l 1
 21 28 l 1
21 12 m 5
 21 6 l 1
 11 6 l 1
 11 12 l 1
 21 12 l 5
29 15 m 1
 3 15 l 25
 3 25 l 1
 29 25 l 1
 29 15 l 1
EndSplineSet
EndChar

StartChar: Oslash
Encoding: 216 216 320
Width: 32
Flags: MW
HStem: 0 6<10 18> 34 6<10 18>
VStem: 0 10<14 34> 18 10<6 26>
AnchorPoint: "top" 14 40 basechar 0
AnchorPoint: "bottom" 14 0 basechar 0
LayerCount: 2
Fore
SplineSet
23 44 m 1
 28 44 l 1
 28 40 l 1
 28 34 l 1
 28 6 l 1
 22 0 l 1
 5 0 l 1
 5 -4 l 1
 0 -4 l 1
 0 2 l 1
 0 6 l 1
 0 34 l 1
 6 40 l 1
 23 40 l 1
 23 44 l 1
10 14 m 1
 18 34 l 1
 10 34 l 1
 10 14 l 1
10 6 m 1
 18 6 l 1
 18 26 l 5
 10 6 l 1
EndSplineSet
EndChar

StartChar: oslash
Encoding: 248 248 321
Width: 32
Flags: MW
HStem: 0 6<10 18> 22 6<10 18>
VStem: 0 10<10 22> 18 10<6 18>
AnchorPoint: "top" 14 28 basechar 0
AnchorPoint: "bottom" 14 0 basechar 0
LayerCount: 2
Fore
SplineSet
23 32 m 1
 28 32 l 1
 28 6 l 1
 22 0 l 1
 5 0 l 1
 5 -4 l 1
 0 -4 l 1
 0 22 l 1
 6 28 l 1
 23 28 l 1
 23 32 l 1
18 22 m 5
 10 22 l 1
 10 10 l 1
 18 22 l 5
10 6 m 1
 18 6 l 1
 18 18 l 1
 10 6 l 1
EndSplineSet
EndChar

StartChar: Thorn
Encoding: 222 222 322
Width: 32
Flags: MW
HStem: 11 6<10 18> 22 6<10 18>
VStem: 0 10<0 11 17 22 28 40> 18 10<17 22>
LayerCount: 2
Fore
SplineSet
18 22 m 1
 10 22 l 1
 10 17 l 1
 18 17 l 1
 18 22 l 1
0 40 m 25
 10 40 l 25
 10 28 l 1
 22 28 l 1
 28 22 l 1
 28 17 l 5
 22 11 l 1
 10 11 l 1
 10 0 l 1
 0 0 l 25
 0 40 l 25
EndSplineSet
EndChar

StartChar: thorn
Encoding: 254 254 323
Width: 32
Flags: MW
HStem: 3 6<10 18> 22 6<10 18>
VStem: 0 10<-8 3 9 22 28 40> 18 10<9 22>
LayerCount: 2
Fore
SplineSet
18 22 m 1
 10 22 l 1
 10 9 l 1
 18 9 l 1
 18 22 l 1
0 40 m 25
 10 40 l 25
 10 28 l 1
 22 28 l 1
 28 22 l 1
 28 9 l 1
 22 3 l 1
 10 3 l 1
 10 -8 l 5
 0 -8 l 25
 0 40 l 25
EndSplineSet
EndChar

StartChar: germandbls
Encoding: 223 223 324
Width: 32
Flags: MW
HStem: 34 6<10 18>
VStem: 0 10<0 34> 18 10<6 18>
LayerCount: 2
Fore
SplineSet
0 0 m 1
 0 40 l 1
 22 40 l 1
 28 34 l 1
 22 28 l 1
 22 24 l 1
 28 18 l 1
 28 6 l 1
 22 0 l 1
 12 0 l 1
 18 6 l 5
 18 18 l 1
 12 24 l 1
 12 28 l 1
 18 34 l 1
 10 34 l 1
 10 0 l 25
 0 0 l 1
EndSplineSet
EndChar

StartChar: uni030B
Encoding: 779 779 331
Width: 32
Flags: W
HStem: 44 8<8 13 19 24>
AnchorPoint: "top" 16 40 mark 0
LayerCount: 2
Fore
SplineSet
19 52 m 5
 28 52 l 1
 24 44 l 1
 15 44 l 1
 19 52 l 5
8 52 m 1
 17 52 l 1
 13 44 l 1
 4 44 l 1
 8 52 l 1
EndSplineSet
EndChar

StartChar: ogonek
Encoding: 731 731 332
Width: 32
Flags: W
HStem: -12 12
VStem: 8 8
AnchorPoint: "bottom" 14 0 mark 0
LayerCount: 2
Fore
SplineSet
12 0 m 5
 16 0 l 5
 12 -6 l 29
 16 -12 l 5
 12 -12 l 5
 8 -6 l 29
 12 0 l 5
EndSplineSet
EndChar

StartChar: hungarumlaut
Encoding: 733 733 333
Width: 32
Flags: W
HStem: 44 8<8 12 20 24>
LayerCount: 2
Fore
SplineSet
20 52 m 1
 28 52 l 1
 24 44 l 1
 16 44 l 5
 20 52 l 1
8 52 m 1
 16 52 l 1
 12 44 l 1
 4 44 l 1
 8 52 l 1
EndSplineSet
EndChar

StartChar: uni02C9
Encoding: 713 713 334
Width: 32
Flags: W
HStem: 42 10<3 29>
LayerCount: 2
Fore
SplineSet
3 52 m 5
 29 52 l 1
 29 42 l 1
 3 42 l 1
 3 52 l 5
EndSplineSet
EndChar

StartChar: caron
Encoding: 711 711 335
Width: 32
Flags: W
HStem: 44 8
LayerCount: 2
Fore
SplineSet
28 52 m 1
 16 44 l 1
 4 52 l 1
 12 52 l 1
 16 49 l 5
 20 52 l 1
 28 52 l 1
EndSplineSet
EndChar

StartChar: circumflex
Encoding: 710 710 336
Width: 32
Flags: W
HStem: 44 8
LayerCount: 2
Fore
SplineSet
4 44 m 1
 16 52 l 1
 28 44 l 1
 20 44 l 1
 16 47 l 5
 12 44 l 1
 4 44 l 1
EndSplineSet
EndChar

StartChar: dcaron
Encoding: 271 271 341
Width: 32
Flags: MW
HStem: 0 6<9 11> 22 6<9 11>
VStem: 0 9<6 22> 11 10<6 22 28 40> 22 6<28 40>
LayerCount: 2
Fore
SplineSet
22 40 m 1
 28 40 l 1
 28 28 l 1
 22 28 l 1
 22 40 l 1
11 22 m 25
 9 22 l 25
 9 6 l 25
 11 6 l 29
 11 22 l 25
11 40 m 25
 21 40 l 25
 21 0 l 1
 6 0 l 5
 0 6 l 1
 0 22 l 1
 6 28 l 1
 11 28 l 1
 11 40 l 25
EndSplineSet
EndChar

StartChar: uni0122
Encoding: 290 290 342
Width: 32
Flags: MW
HStem: 0 6<10 11 17 18> 15 6<12 18> 34 6<10 18>
VStem: 0 10<6 34> 18 10<6 15 26 34>
AnchorPoint: "top" 14 40 basechar 0
LayerCount: 2
Fore
SplineSet
0 34 m 1
 6 40 l 1
 22 40 l 1
 28 34 l 1
 28 26 l 1
 18 26 l 1
 18 34 l 1
 10 34 l 1
 10 6 l 1
 18 6 l 5
 18 15 l 1
 12 15 l 1
 12 21 l 1
 28 21 l 1
 28 6 l 1
 22 0 l 1
 17 0 l 5
 21 -6 l 1
 17 -12 l 1
 11 -12 l 1
 15 -6 l 1
 11 0 l 1
 6 0 l 1
 0 6 l 1
 0 34 l 1
EndSplineSet
EndChar

StartChar: uni0123
Encoding: 291 291 343
Width: 32
Flags: MW
HStem: -8 6<10 18> 3 6<10 18> 22 6<10 11 17 18>
VStem: 0 10<-2 0 9 22> 18 10<-2 3 9 22>
AnchorPoint: "bottom" 14 -8 basechar 0
LayerCount: 2
Fore
SplineSet
0 22 m 1
 6 28 l 1
 11 28 l 1
 7 34 l 1
 11 40 l 1
 17 40 l 1
 13 34 l 1
 17 28 l 5
 28 28 l 1
 28 -2 l 1
 22 -8 l 1
 6 -8 l 1
 0 -2 l 1
 0 0 l 1
 10 0 l 1
 10 -2 l 1
 18 -2 l 1
 18 3 l 1
 6 3 l 1
 0 9 l 1
 0 22 l 1
18 22 m 5
 10 22 l 1
 10 9 l 1
 18 9 l 1
 18 22 l 5
EndSplineSet
EndChar

StartChar: Hbar
Encoding: 294 294 344
Width: 32
Flags: MW
HStem: 19 6<10 18> 28 6<10 18>
VStem: 0 10<0 19 25 28 34 40> 18 10<0 19 25 28 34 40>
AnchorPoint: "top" 14 40 basechar 0
LayerCount: 2
Fore
SplineSet
0 40 m 1
 10 40 l 1
 10 34 l 1
 18 34 l 1
 18 40 l 1
 28 40 l 1
 28 0 l 1
 18 0 l 5
 18 19 l 1
 10 19 l 1
 10 0 l 1
 0 0 l 1
 0 40 l 1
10 28 m 1
 10 25 l 1
 18 25 l 1
 18 28 l 1
 10 28 l 1
EndSplineSet
EndChar

StartChar: hbar
Encoding: 295 295 345
Width: 32
Flags: MW
HStem: 22 6<13 18> 31 6<0 3 13 18>
VStem: 3 10<0 22 28 31 37 40> 18 10<0 22>
LayerCount: 2
Fore
SplineSet
3 40 m 1
 13 40 l 1
 13 37 l 1
 18 37 l 1
 18 31 l 1
 13 31 l 1
 13 28 l 1
 22 28 l 1
 28 22 l 1
 28 0 l 1
 18 0 l 5
 18 22 l 1
 13 22 l 1
 13 0 l 1
 3 0 l 1
 3 31 l 1
 0 31 l 1
 0 37 l 1
 3 37 l 1
 3 40 l 1
EndSplineSet
EndChar

StartChar: IJ
Encoding: 306 306 346
Width: 32
Flags: MW
HStem: 0 6<21 22>
VStem: 0 10<0 40> 11 10<7 14> 22 10<7 40>
CounterMasks: 1 70
LayerCount: 2
Fore
SplineSet
22 40 m 1
 32 40 l 1
 32 7 l 1
 25 0 l 5
 18 0 l 1
 11 7 l 1
 11 14 l 1
 21 14 l 1
 21 6 l 1
 22 6 l 5
 22 40 l 1
0 40 m 1
 10 40 l 1
 10 0 l 1
 0 0 l 1
 0 40 l 1
EndSplineSet
EndChar

StartChar: ij
Encoding: 307 307 347
Width: 32
Flags: MW
HStem: -8 6<21 22> 20 6<19 22> 30 10<0 10 22 32>
VStem: 0 10<0 26 30 40> 11 10<-2 0> 22 10<-2 20 30 40>
LayerCount: 2
Fore
SplineSet
19 26 m 1
 32 26 l 1
 32 -2 l 1
 26 -8 l 5
 17 -8 l 1
 11 -2 l 1
 11 0 l 1
 21 0 l 25
 21 -2 l 25
 22 -2 l 5
 22 20 l 1
 19 20 l 1
 19 26 l 1
22 40 m 1
 32 40 l 25
 32 30 l 1
 22 30 l 25
 22 40 l 1
0 30 m 25
 0 40 l 25
 10 40 l 25
 10 30 l 25
 0 30 l 25
0 0 m 1
 0 26 l 1
 10 26 l 1
 10 0 l 1
 0 0 l 1
EndSplineSet
EndChar

StartChar: uni0136
Encoding: 310 310 348
Width: 32
Flags: MW
VStem: 0 10<0 12 28 40>
LayerCount: 2
Fore
SplineSet
11 0 m 1
 17 0 l 1
 21 -6 l 1
 17 -12 l 1
 11 -12 l 1
 15 -6 l 1
 11 0 l 1
0 40 m 25
 10 40 l 1
 10 28 l 25
 18 40 l 1
 28 40 l 1
 14 20 l 1
 28 0 l 1
 18 0 l 1
 10 12 l 29
 10 0 l 1
 0 0 l 25
 0 40 l 25
EndSplineSet
EndChar

StartChar: uni0137
Encoding: 311 311 349
Width: 32
Flags: MW
VStem: 0 10<0 10 18 40>
LayerCount: 2
Fore
SplineSet
11 0 m 1
 17 0 l 1
 21 -6 l 1
 17 -12 l 1
 11 -12 l 1
 15 -6 l 1
 11 0 l 1
0 40 m 25
 10 40 l 1
 10 18 l 1
 18 28 l 1
 28 28 l 1
 20 18 l 5
 20 10 l 5
 28 0 l 1
 18 0 l 1
 10 10 l 25
 10 0 l 1
 0 0 l 25
 0 40 l 25
EndSplineSet
EndChar

StartChar: kgreenlandic
Encoding: 312 312 350
Width: 32
Flags: MW
VStem: 0 10<0 8 20 28>
LayerCount: 2
Fore
SplineSet
0 28 m 25
 10 28 l 1
 10 20 l 25
 18 28 l 1
 28 28 l 1
 14 14 l 5
 28 0 l 1
 18 0 l 1
 10 8 l 25
 10 0 l 1
 0 0 l 25
 0 28 l 25
EndSplineSet
EndChar

StartChar: uni013B
Encoding: 315 315 351
Width: 32
Flags: MW
HStem: 0 6<10 11 17 28>
VStem: 0 10<6 40>
AnchorPoint: "top" 4 40 basechar 0
LayerCount: 2
Fore
SplineSet
0 40 m 1
 10 40 l 1
 10 6 l 1
 28 6 l 1
 28 0 l 1
 17 0 l 1
 21 -6 l 1
 17 -12 l 5
 11 -12 l 1
 15 -6 l 1
 11 0 l 1
 0 0 l 1
 0 40 l 1
EndSplineSet
EndChar

StartChar: Lcaron
Encoding: 317 317 352
Width: 32
Flags: MW
HStem: 0 6<10 28>
VStem: 0 10<6 40>
AnchorPoint: "bottom" 16 0 basechar 0
AnchorPoint: "top" 4 40 basechar 0
LayerCount: 2
Fore
SplineSet
18 40 m 1
 24 40 l 1
 28 34 l 1
 24 28 l 5
 18 28 l 1
 22 34 l 1
 18 40 l 1
0 40 m 25
 10 40 l 25
 10 6 l 25
 28 6 l 25
 28 0 l 25
 0 0 l 25
 0 40 l 25
EndSplineSet
EndChar

StartChar: Ldot
Encoding: 319 319 353
Width: 32
Flags: MW
HStem: 0 6<10 28> 18 10<13 23>
VStem: 0 10<6 40> 13 10<18 28>
AnchorPoint: "top" 4 40 basechar 0
AnchorPoint: "bottom" 16 0 basechar 0
LayerCount: 2
Fore
SplineSet
13 28 m 1
 23 28 l 1
 23 18 l 1
 13 18 l 1
 13 28 l 1
0 40 m 25
 10 40 l 25
 10 6 l 25
 28 6 l 25
 28 0 l 25
 0 0 l 25
 0 40 l 25
EndSplineSet
EndChar

StartChar: uni013C
Encoding: 316 316 354
Width: 32
Flags: MW
VStem: 11 10<6 40>
AnchorPoint: "top" 16 40 basechar 0
LayerCount: 2
Fore
SplineSet
10 0 m 1
 16 0 l 1
 20 -6 l 1
 16 -12 l 1
 10 -12 l 5
 14 -6 l 1
 10 0 l 1
11 40 m 1
 21 40 l 1
 21 6 l 1
 27 0 l 1
 17 0 l 1
 11 6 l 1
 11 40 l 1
EndSplineSet
EndChar

StartChar: lcaron
Encoding: 318 318 355
Width: 32
Flags: MW
VStem: 7 10<6 40>
AnchorPoint: "top" 12 40 basechar 0
AnchorPoint: "bottom" 12 0 basechar 0
LayerCount: 2
Fore
SplineSet
18 40 m 1
 24 40 l 1
 28 34 l 1
 24 28 l 1
 18 28 l 1
 22 34 l 1
 18 40 l 1
7 40 m 1
 17 40 l 1
 17 6 l 1
 23 0 l 1
 13 0 l 1
 7 6 l 1
 7 40 l 1
EndSplineSet
EndChar

StartChar: ldot
Encoding: 320 320 356
Width: 32
Flags: MW
HStem: 18 10<18 28>
VStem: 7 10<6 40> 18 10<18 28>
AnchorPoint: "top" 12 40 basechar 0
AnchorPoint: "bottom" 12 0 basechar 0
LayerCount: 2
Fore
SplineSet
18 28 m 1
 28 28 l 1
 28 18 l 1
 18 18 l 1
 18 28 l 1
7 40 m 5
 17 40 l 1
 17 6 l 1
 23 0 l 1
 13 0 l 1
 7 6 l 1
 7 40 l 5
EndSplineSet
EndChar

StartChar: lslash
Encoding: 322 322 357
Width: 32
Flags: MW
VStem: 10 10<6 12 17 20 25 40>
AnchorPoint: "top" 15 40 basechar 0
AnchorPoint: "bottom" 15 0 basechar 0
LayerCount: 2
Fore
SplineSet
10 40 m 1
 20 40 l 1
 20 25 l 1
 23 28 l 1
 28 28 l 1
 20 20 l 1
 20 6 l 1
 26 0 l 1
 16 0 l 1
 10 6 l 1
 10 12 l 1
 6 8 l 1
 1 8 l 1
 10 17 l 1
 10 40 l 1
EndSplineSet
EndChar

StartChar: Lslash
Encoding: 321 321 358
Width: 32
Flags: MW
HStem: 0 6<13 28>
VStem: 3 10<6 11 15 19 25 40>
AnchorPoint: "bottom" 16 0 basechar 0
AnchorPoint: "top" 8 40 basechar 0
LayerCount: 2
Fore
SplineSet
3 40 m 1
 13 40 l 1
 13 25 l 1
 16 28 l 1
 22 28 l 1
 13 19 l 1
 13 6 l 1
 28 6 l 1
 28 0 l 1
 3 0 l 1
 3 11 l 5
 0 11 l 1
 3 15 l 1
 3 40 l 1
EndSplineSet
EndChar

StartChar: uni0145
Encoding: 325 325 359
Width: 32
Flags: MW
VStem: 0 10<0 22> 18 10<18 40>
AnchorPoint: "top" 14 40 basechar 0
LayerCount: 2
Fore
SplineSet
11 0 m 1
 17 0 l 1
 21 -6 l 5
 17 -12 l 1
 11 -12 l 1
 15 -6 l 1
 11 0 l 1
0 40 m 25
 10 40 l 1
 18 18 l 25
 18 40 l 1
 28 40 l 25
 28 0 l 25
 18 0 l 1
 10 22 l 1
 10 0 l 1
 0 0 l 1
 0 40 l 25
EndSplineSet
EndChar

StartChar: uni0146
Encoding: 326 326 360
Width: 32
Flags: MW
HStem: 22 6<10 18>
VStem: 0 10<0 22> 18 10<0 22>
AnchorPoint: "top" 14 28 basechar 0
LayerCount: 2
Fore
SplineSet
11 0 m 1
 17 0 l 1
 21 -6 l 1
 17 -12 l 1
 11 -12 l 1
 15 -6 l 1
 11 0 l 1
0 0 m 25
 0 28 l 17
 22 28 l 1
 28 22 l 1
 28 0 l 1
 18 0 l 25
 18 22 l 17
 10 22 l 9
 10 0 l 1
 0 0 l 25
EndSplineSet
EndChar

StartChar: napostrophe
Encoding: 329 329 361
Width: 32
Flags: MW
HStem: 22 6<10 18> 30 10<0 10>
VStem: 0 10<0 22 30 40> 18 10<0 22>
AnchorPoint: "top" 14 28 basechar 0
LayerCount: 2
Fore
SplineSet
0 40 m 25
 10 40 l 25
 10 30 l 25
 0 30 l 25
 0 40 l 25
0 0 m 25
 0 28 l 17
 22 28 l 1
 28 22 l 1
 28 0 l 1
 18 0 l 25
 18 22 l 17
 10 22 l 9
 10 0 l 1
 0 0 l 25
EndSplineSet
EndChar

StartChar: eng
Encoding: 331 331 362
Width: 32
Flags: MW
HStem: 22 6<10 18>
VStem: 0 10<0 22> 18 10<0 22>
AnchorPoint: "top" 14 28 basechar 0
LayerCount: 2
Fore
SplineSet
0 0 m 1
 0 28 l 1
 22 28 l 1
 28 22 l 1
 28 0 l 1
 20 -8 l 1
 10 -8 l 5
 18 0 l 1
 18 22 l 1
 10 22 l 1
 10 0 l 1
 0 0 l 1
EndSplineSet
EndChar

StartChar: Eng
Encoding: 330 330 363
Width: 32
Flags: MW
HStem: 34 6<10 18>
VStem: 0 10<0 34> 18 10<0 34>
AnchorPoint: "top" 14 40 basechar 0
LayerCount: 2
Fore
SplineSet
0 0 m 1
 0 40 l 1
 22 40 l 1
 28 34 l 1
 28 0 l 1
 20 -8 l 1
 10 -8 l 1
 18 0 l 1
 18 34 l 1
 10 34 l 1
 10 0 l 1
 0 0 l 1
EndSplineSet
EndChar

StartChar: OE
Encoding: 338 338 364
Width: 32
Flags: W
HStem: 0 6<10 11 21 28> 19 6<21 28> 34 6<10 11 21 28>
VStem: 0 10<6 34> 11 10<6 19 25 34>
AnchorPoint: "top" 14 40 basechar 0
LayerCount: 2
Fore
SplineSet
11 34 m 1
 10 34 l 1
 10 6 l 1
 11 6 l 1
 11 34 l 1
6 40 m 1
 28 40 l 1
 28 34 l 5
 21 34 l 1
 21 25 l 1
 28 25 l 1
 28 19 l 1
 21 19 l 1
 21 6 l 1
 28 6 l 1
 28 0 l 1
 6 0 l 1
 0 6 l 1
 0 34 l 1
 6 40 l 1
EndSplineSet
EndChar

StartChar: oe
Encoding: 339 339 365
Width: 32
Flags: MW
HStem: 0 6<10 11 21 28> 7 6<21 22> 22 6<10 11>
VStem: 0 10<6 22> 11 10<6 7 13 20> 22 6<13 20>
AnchorPoint: "top" 14 28 basechar 0
LayerCount: 2
Fore
SplineSet
11 22 m 1
 10 22 l 1
 10 6 l 1
 11 6 l 1
 11 22 l 1
22 20 m 1
 21 20 l 1
 21 13 l 1
 22 13 l 5
 22 20 l 1
6 28 m 1
 22 28 l 1
 28 22 l 1
 28 7 l 1
 21 7 l 5
 21 6 l 1
 28 6 l 1
 28 0 l 1
 6 0 l 1
 0 6 l 1
 0 22 l 1
 6 28 l 1
EndSplineSet
EndChar

StartChar: uni0156
Encoding: 342 342 366
Width: 32
Flags: MW
HStem: 19 6<10 10.3258> 34 6<10 18>
VStem: 0 10<0 19 25 34> 18 10<0 8 26 34>
AnchorPoint: "top" 14 40 basechar 0
LayerCount: 2
Fore
SplineSet
11 0 m 1
 17 0 l 1
 21 -6 l 1
 17 -12 l 1
 11 -12 l 1
 15 -6 l 1
 11 0 l 1
18 34 m 1
 10 34 l 25
 10 25 l 1
 18 25 l 29
 18 34 l 1
0 0 m 25
 0 40 l 1
 22 40 l 1
 28 34 l 1
 28 26 l 1
 22 19 l 1
 20 19 l 5
 28 8 l 1
 28 0 l 1
 18 0 l 1
 18 8 l 1
 10 19 l 1
 10 0 l 1
 0 0 l 25
EndSplineSet
EndChar

StartChar: uni0157
Encoding: 343 343 367
Width: 32
Flags: MW
VStem: 0 10<0 9 21 28>
AnchorPoint: "top" 14 28 basechar 0
LayerCount: 2
Fore
SplineSet
0 0 m 1
 0 28 l 1
 10 28 l 1
 10 21 l 1
 16 28 l 1
 26 28 l 1
 10 9 l 1
 10 0 l 1
 7 0 l 1
 11 -6 l 1
 7 -12 l 1
 1 -12 l 1
 5 -6 l 1
 1 0 l 1
 0 0 l 1
EndSplineSet
EndChar

StartChar: tcaron
Encoding: 357 357 368
Width: 32
Flags: MW
HStem: 0 6<17 26> 22 6<0 7 17 26>
VStem: 7 10<6 22 28 40>
AnchorPoint: "bottom" 16 0 basechar 0
LayerCount: 2
Fore
SplineSet
18 44 m 1
 24 44 l 1
 28 38 l 1
 24 32 l 1
 18 32 l 1
 22 38 l 1
 18 44 l 1
7 40 m 1
 17 40 l 1
 17 28 l 1
 26 28 l 25
 26 22 l 1
 17 22 l 1
 17 6 l 1
 26 6 l 1
 26 0 l 1
 13 0 l 1
 7 6 l 1
 7 22 l 1
 0 22 l 25
 0 28 l 25
 7 28 l 25
 7 40 l 1
EndSplineSet
EndChar

StartChar: Tbar
Encoding: 358 358 369
Width: 32
Flags: MW
HStem: 22 6<3 7 17 21> 34 6<0 7 17 24>
VStem: 7 10<0 22 28 34>
AnchorPoint: "top" 12 40 basechar 0
AnchorPoint: "bottom" 12 0 basechar 0
LayerCount: 2
Fore
SplineSet
0 40 m 1
 24 40 l 1
 24 34 l 1
 17 34 l 1
 17 28 l 1
 21 28 l 1
 21 22 l 1
 17 22 l 1
 17 0 l 1
 7 0 l 5
 7 22 l 1
 3 22 l 1
 3 28 l 1
 7 28 l 1
 7 34 l 1
 0 34 l 1
 0 40 l 1
EndSplineSet
EndChar

StartChar: tbar
Encoding: 359 359 370
Width: 32
Flags: MW
HStem: 0 6<17 26> 14 6<3 7 17 21> 22 6<0 7 17 26>
VStem: 7 10<6 14 20 22 28 40>
AnchorPoint: "bottom" 16 0 basechar 0
LayerCount: 2
Fore
SplineSet
7 40 m 1
 17 40 l 1
 17 28 l 1
 26 28 l 1
 26 22 l 1
 17 22 l 1
 17 20 l 5
 21 20 l 1
 21 14 l 1
 17 14 l 1
 17 6 l 1
 26 6 l 1
 26 0 l 1
 13 0 l 1
 7 6 l 1
 7 14 l 1
 3 14 l 1
 3 20 l 1
 7 20 l 1
 7 22 l 1
 0 22 l 1
 0 28 l 1
 7 28 l 1
 7 40 l 1
EndSplineSet
EndChar

StartChar: longs
Encoding: 383 383 371
Width: 32
Flags: MW
VStem: 7 10<0 32>
LayerCount: 2
Fore
SplineSet
15 40 m 1
 25 40 l 5
 17 32 l 1
 17 0 l 1
 7 0 l 1
 7 32 l 1
 15 40 l 1
EndSplineSet
EndChar

StartChar: florin
Encoding: 402 402 372
Width: 32
Flags: W
HStem: -8 6<0 7> 22 6<0 7 17 26> 34 6<17 26>
VStem: 7 10<-2 22 28 34>
LayerCount: 2
Fore
SplineSet
0 -2 m 1
 7 -2 l 1
 7 22 l 1
 0 22 l 1
 0 28 l 1
 7 28 l 1
 7 34 l 1
 13 40 l 1
 26 40 l 1
 26 34 l 1
 17 34 l 1
 17 28 l 1
 26 28 l 1
 26 22 l 1
 17 22 l 1
 17 -2 l 1
 11 -8 l 5
 0 -8 l 1
 0 -2 l 1
EndSplineSet
EndChar

StartChar: Aringacute
Encoding: 506 506 374
Width: 32
Flags: MW
HStem: 3 6<10 18> 30 4<13 15> 36 4<13 15> 42 8<13 19>
VStem: 0 10<0 3 9 12> 7 6<34 36> 7 14 9 14 15 6<34 36> 18 10<0 3 9 12>
AnchorPoint: "top" 14 28 basechar 0
AnchorPoint: "bottom" 24 0 basechar 0
LayerCount: 2
Fore
SplineSet
14 20 m 5xf840
 10 12 l 5
 10 9 l 5
 18 9 l 5
 18 12 l 5
 14 20 l 5xf840
8 28 m 5
 20 28 l 5
 28 12 l 5
 28 0 l 5
 18 0 l 5
 18 3 l 5
 10 3 l 5
 10 0 l 5
 0 0 l 5
 0 12 l 29
 8 28 l 5
EndSplineSet
Refer: 104 769 N 1 0 0 1 -2 -2 2
Refer: 247 778 N 1 0 0 1 -2 -12 2
EndChar

StartChar: dieresistonos
Encoding: 901 901 376
Width: 32
Flags: W
HStem: 30 10<0 8 11 17 20 28>
VStem: 0 8<30 40> 20 8<30 40>
LayerCount: 2
Fore
SplineSet
20 40 m 25
 28 40 l 25
 28 30 l 29
 20 30 l 25
 20 40 l 25
9 30 m 1
 11 40 l 1
 19 40 l 1
 17 30 l 1
 9 30 l 1
0 40 m 25
 8 40 l 25
 8 30 l 25
 0 30 l 25
 0 40 l 25
EndSplineSet
EndChar

StartChar: uni03A9
Encoding: 937 937 384
Width: 32
Flags: MW
HStem: 0 6<0 3 25 28> 30 10<12 16>
VStem: 0 10<16 28> 18 10<16 28>
LayerCount: 2
Fore
SplineSet
0 6 m 1
 3 6 l 1
 3 8 l 1
 0 14 l 1
 0 34 l 1
 6 40 l 1
 22 40 l 5
 28 34 l 1
 28 14 l 1
 25 8 l 1
 25 6 l 1
 28 6 l 1
 28 0 l 1
 15 0 l 1
 15 10 l 1
 18 16 l 1
 18 28 l 1
 16 30 l 5
 12 30 l 1
 10 28 l 1
 10 16 l 1
 13 10 l 1
 13 0 l 1
 0 0 l 1
 0 6 l 1
EndSplineSet
EndChar

StartChar: iota
Encoding: 953 953 386
Width: 32
Flags: MW
VStem: 11 10<6 28>
AnchorPoint: "top" 16 28 basechar 0
AnchorPoint: "bottom" 16 0 basechar 0
LayerCount: 2
Fore
SplineSet
11 28 m 1
 21 28 l 1
 21 6 l 1
 27 0 l 1
 17 0 l 5
 11 6 l 1
 11 28 l 1
EndSplineSet
EndChar

StartChar: Gamma
Encoding: 915 915 388
Width: 32
Flags: MW
HStem: 34 6<10 28>
VStem: 0 10<0 34>
LayerCount: 2
Fore
SplineSet
0 40 m 25
 28 40 l 1
 28 34 l 1
 10 34 l 1
 10 0 l 5
 0 0 l 25
 0 40 l 25
EndSplineSet
EndChar

StartChar: uni0394
Encoding: 916 916 389
Width: 32
Flags: MW
HStem: 0 6<10 18>
LayerCount: 2
Fore
SplineSet
14 20 m 1
 10 6 l 1
 18 6 l 5
 14 20 l 1
0 0 m 25
 12 40 l 25
 16 40 l 25
 28 0 l 25
 0 0 l 25
EndSplineSet
EndChar

StartChar: Lambda
Encoding: 923 923 390
Width: 32
Flags: MW
LayerCount: 2
Fore
SplineSet
0 0 m 1
 12 40 l 25
 16 40 l 25
 28 0 l 1
 18 0 l 1
 18 4 l 1
 14 20 l 1
 10 4 l 5
 10 0 l 1
 0 0 l 1
EndSplineSet
EndChar

StartChar: Theta
Encoding: 920 920 396
Width: 32
Flags: W
HStem: 0 6<10 18> 19 6<11 17> 34 6<10 18>
VStem: 0 10<6 34> 11 6<19 25> 18 10<6 34>
CounterMasks: 1 1c
AnchorPoint: "top" 14 40 basechar 0
AnchorPoint: "bottom" 14 0 basechar 0
LayerCount: 2
Fore
SplineSet
11 25 m 1
 17 25 l 1
 17 19 l 5
 11 19 l 1
 11 25 l 1
18 34 m 25
 10 34 l 25
 10 6 l 25
 18 6 l 25
 18 34 l 25
6 40 m 1
 22 40 l 1
 28 34 l 1
 28 6 l 1
 22 0 l 1
 6 0 l 1
 0 6 l 1
 0 34 l 1
 6 40 l 1
EndSplineSet
EndChar

StartChar: Xi
Encoding: 926 926 401
Width: 32
Flags: W
HStem: 0 6<0 28> 19 6<3 25> 34 6<0 28>
LayerCount: 2
Fore
SplineSet
0 6 m 5
 28 6 l 5
 28 0 l 1
 0 0 l 1
 0 6 l 5
3 25 m 1
 25 25 l 1
 25 19 l 1
 3 19 l 1
 3 25 l 1
0 40 m 1
 28 40 l 1
 28 34 l 1
 0 34 l 1
 0 40 l 1
EndSplineSet
EndChar

StartChar: Pi
Encoding: 928 928 403
Width: 32
Flags: MW
HStem: 34 6<10 18>
VStem: 0 10<0 34> 18 10<0 34>
LayerCount: 2
Fore
SplineSet
0 40 m 25
 28 40 l 25
 28 0 l 1
 18 0 l 5
 18 34 l 5
 10 34 l 1
 10 0 l 1
 0 0 l 1
 0 40 l 25
EndSplineSet
EndChar

StartChar: Sigma
Encoding: 931 931 405
Width: 32
Flags: W
HStem: 0 6<10 28> 34 6<10 28>
LayerCount: 2
Fore
SplineSet
0 40 m 1
 28 40 l 25
 28 34 l 25
 10 34 l 25
 21 22 l 25
 21 18 l 25
 10 6 l 29
 28 6 l 25
 28 0 l 25
 0 0 l 1
 0 6 l 25
 11 20 l 1
 0 34 l 25
 0 40 l 1
EndSplineSet
EndChar

StartChar: Phi
Encoding: 934 934 408
Width: 32
Flags: MW
HStem: 3 6<10 11 17 18> 31 6<10 11 17 18>
VStem: 0 10<9 31> 11 6<0 3 9 31 37 40> 18 10<9 31>
CounterMasks: 1 38
LayerCount: 2
Fore
SplineSet
18 31 m 1
 17 31 l 5
 17 9 l 1
 18 9 l 1
 18 31 l 1
11 31 m 25
 10 31 l 25
 10 9 l 25
 11 9 l 25
 11 31 l 25
0 31 m 1
 6 37 l 1
 11 37 l 1
 11 40 l 1
 17 40 l 1
 17 37 l 5
 22 37 l 1
 28 31 l 1
 28 9 l 1
 22 3 l 1
 17 3 l 1
 17 0 l 1
 11 0 l 1
 11 3 l 1
 6 3 l 1
 0 9 l 1
 0 31 l 1
EndSplineSet
EndChar

StartChar: Psi
Encoding: 936 936 410
Width: 32
Flags: MW
HStem: 6 6<10 11 17 18>
VStem: 0 10<12 40> 11 6<0 6 12 40> 18 10<12 40>
CounterMasks: 1 70
LayerCount: 2
Fore
SplineSet
0 40 m 25
 10 40 l 1
 10 12 l 1
 11 12 l 1
 11 40 l 1
 17 40 l 1
 17 12 l 1
 18 12 l 5
 18 40 l 1
 28 40 l 1
 28 12 l 1
 22 6 l 1
 17 6 l 5
 17 0 l 25
 11 0 l 25
 11 6 l 25
 6 6 l 25
 0 12 l 25
 0 40 l 25
EndSplineSet
EndChar

StartChar: alpha
Encoding: 945 945 413
Width: 32
Flags: W
HStem: 0 6<10 11 24 28> 22 6<10 11 24 28>
VStem: 0 10<6 22> 11 10<10 18>
LayerCount: 2
Fore
SplineSet
11 22 m 1
 10 22 l 5
 10 6 l 5
 11 6 l 1
 11 22 l 1
6 28 m 1
 16 28 l 1
 18 24 l 1
 20 28 l 1
 28 28 l 1
 28 22 l 1
 24 22 l 1
 21 18 l 1
 21 10 l 1
 24 6 l 1
 28 6 l 1
 28 0 l 1
 20 0 l 1
 18 4 l 1
 16 0 l 1
 6 0 l 1
 0 6 l 1
 0 22 l 1
 6 28 l 1
EndSplineSet
EndChar

StartChar: epsilon
Encoding: 949 949 414
Width: 32
Flags: W
HStem: 0 6<10 28> 11 6<10 26> 22 6<10 28>
VStem: 0 10<6 10 18 22>
CounterMasks: 1 e0
LayerCount: 2
Fore
SplineSet
6 28 m 1
 28 28 l 1
 28 22 l 1
 10 22 l 1
 10 17 l 1
 26 17 l 5
 26 11 l 5
 10 11 l 1
 10 6 l 1
 28 6 l 1
 28 0 l 1
 6 0 l 1
 0 6 l 1
 0 10 l 1
 4 14 l 1
 0 18 l 1
 0 22 l 1
 6 28 l 1
EndSplineSet
EndChar

StartChar: eta
Encoding: 951 951 417
Width: 32
Flags: MW
HStem: 22 6<10 18>
VStem: 0 10<0 22> 18 10<-10 22>
LayerCount: 2
Fore
SplineSet
0 0 m 1
 0 28 l 1
 22 28 l 25
 28 22 l 1
 28 -10 l 29
 18 -10 l 5
 18 22 l 1
 10 22 l 1
 10 0 l 1
 0 0 l 1
EndSplineSet
EndChar

StartChar: theta
Encoding: 952 952 425
Width: 32
Flags: W
HStem: 0 6<10 18> 19 6<10 18> 34 6<10 18>
VStem: 0 10<6 19 25 34> 18 10<6 19 25 34>
AnchorPoint: "bottom" 14 0 basechar 0
AnchorPoint: "top" 14 40 basechar 0
LayerCount: 2
Fore
SplineSet
6 40 m 1
 22 40 l 1
 28 34 l 1
 28 6 l 1
 22 0 l 1
 6 0 l 1
 0 6 l 1
 0 34 l 1
 6 40 l 1
18 34 m 1
 10 34 l 1
 10 25 l 1
 18 25 l 1
 18 34 l 1
10 19 m 1
 10 6 l 5
 18 6 l 5
 18 19 l 1
 10 19 l 1
EndSplineSet
EndChar

StartChar: beta
Encoding: 946 946 426
Width: 32
Flags: MW
HStem: 34 6<10 18>
VStem: 0 10<-8 34> 18 10<6 18>
LayerCount: 2
Fore
SplineSet
0 -8 m 1
 0 40 l 1
 22 40 l 1
 28 34 l 1
 22 28 l 1
 22 24 l 1
 28 18 l 1
 28 6 l 1
 22 0 l 1
 12 0 l 1
 18 6 l 5
 18 18 l 1
 12 24 l 1
 12 28 l 1
 18 34 l 1
 10 34 l 1
 10 -8 l 25
 0 -8 l 1
EndSplineSet
EndChar

StartChar: sigma
Encoding: 963 963 427
Width: 32
Flags: W
HStem: 0 6<10 15> 22 6<10 15 25 28>
VStem: 0 10<6 22> 15 10<6 22>
LayerCount: 2
Fore
SplineSet
15 22 m 1
 10 22 l 1
 10 6 l 1
 15 6 l 1
 15 22 l 1
0 22 m 1
 6 28 l 1
 28 28 l 25
 28 22 l 1
 25 22 l 1
 25 6 l 1
 19 0 l 5
 6 0 l 1
 0 6 l 1
 0 22 l 1
EndSplineSet
EndChar

StartChar: tau
Encoding: 964 964 428
Width: 32
Flags: W
HStem: 0 6<17 26> 22 6<0 7 17 26>
VStem: 7 10<6 22>
LayerCount: 2
Fore
SplineSet
0 28 m 1
 26 28 l 1
 26 22 l 1
 17 22 l 1
 17 6 l 1
 26 6 l 1
 26 0 l 1
 13 0 l 5
 7 6 l 1
 7 22 l 25
 0 22 l 1
 0 28 l 1
EndSplineSet
EndChar

StartChar: gamma
Encoding: 947 947 434
Width: 32
Flags: MW
VStem: 9 10<-9 4>
LayerCount: 2
Fore
SplineSet
0 28 m 1
 10 28 l 1
 14 16 l 5
 18 28 l 1
 28 28 l 1
 19 4 l 1
 19 -9 l 1
 9 -9 l 1
 9 4 l 1
 0 28 l 1
EndSplineSet
EndChar

StartChar: lambda
Encoding: 955 955 435
Width: 32
Flags: MW
LayerCount: 2
Fore
SplineSet
0 40 m 1
 10 40 l 1
 28 0 l 1
 18 0 l 1
 14 9 l 5
 10 0 l 1
 0 0 l 1
 9 20 l 1
 0 40 l 1
EndSplineSet
EndChar

StartChar: psi
Encoding: 968 968 436
Width: 32
Flags: MW
HStem: 0 6<10 11 17 18>
VStem: 0 10<6 28> 11 6<-9 0 6 33> 18 10<6 28>
CounterMasks: 1 70
LayerCount: 2
Fore
SplineSet
0 28 m 25
 10 28 l 1
 10 6 l 1
 11 6 l 5
 11 33 l 1
 17 33 l 1
 17 6 l 1
 18 6 l 1
 18 28 l 1
 28 28 l 1
 28 6 l 1
 22 0 l 1
 17 0 l 1
 17 -9 l 25
 11 -9 l 25
 11 0 l 29
 6 0 l 25
 0 6 l 25
 0 28 l 25
EndSplineSet
EndChar

StartChar: phi
Encoding: 966 966 437
Width: 32
Flags: MW
HStem: 0 6<10 11 17 18> 22 6<17 18>
VStem: 0 10<6 28> 11 6<-6 0 6 22> 18 10<6 22>
CounterMasks: 1 38
LayerCount: 2
Fore
SplineSet
18 22 m 5
 17 22 l 1
 17 6 l 1
 18 6 l 1
 18 22 l 5
0 28 m 1
 10 28 l 25
 10 6 l 1
 11 6 l 25
 11 28 l 1
 22 28 l 29
 28 22 l 1
 28 6 l 1
 22 0 l 1
 17 0 l 1
 17 -6 l 1
 11 -6 l 1
 11 0 l 1
 6 0 l 1
 0 6 l 1
 0 28 l 1
EndSplineSet
EndChar

StartChar: chi
Encoding: 967 967 438
Width: 32
Flags: MW
LayerCount: 2
Fore
SplineSet
0 28 m 1
 10 28 l 1
 14 19 l 1
 18 28 l 1
 28 28 l 1
 19 10 l 1
 28 -8 l 1
 18 -8 l 1
 14 1 l 5
 10 -8 l 1
 0 -8 l 1
 9 10 l 1
 0 28 l 1
EndSplineSet
EndChar

StartChar: rho
Encoding: 961 961 439
Width: 32
Flags: W
HStem: 0 6<10 18> 22 6<10 18>
VStem: 0 10<-10 0 6 22> 18 10<6 22>
LayerCount: 2
Fore
SplineSet
18 22 m 1
 10 22 l 1
 10 6 l 1
 18 6 l 1
 18 22 l 1
0 -10 m 5
 0 22 l 1
 6 28 l 1
 22 28 l 1
 28 22 l 1
 28 6 l 1
 22 0 l 1
 10 0 l 1
 10 -10 l 5
 0 -10 l 5
EndSplineSet
EndChar

StartChar: pi
Encoding: 960 960 440
Width: 32
Flags: MW
HStem: 22 6<0 3 13 15 25 28>
VStem: 3 10<0 22> 15 10<0 22>
LayerCount: 2
Fore
SplineSet
0 28 m 25
 28 28 l 25
 28 22 l 1
 25 22 l 5
 25 0 l 5
 15 0 l 1
 15 22 l 25
 13 22 l 25
 13 0 l 1
 3 0 l 1
 3 22 l 1
 0 22 l 1
 0 28 l 25
EndSplineSet
EndChar

StartChar: omega
Encoding: 969 969 441
Width: 32
Flags: MW
VStem: 0 10<6 22> 11 6<4 18> 18 10<6 22>
CounterMasks: 1 e0
LayerCount: 2
Fore
SplineSet
0 22 m 1
 6 28 l 1
 10 28 l 1
 10 4 l 1
 11 4 l 1
 11 18 l 29
 17 18 l 29
 17 4 l 1
 18 4 l 1
 18 28 l 1
 22 28 l 1
 28 22 l 1
 28 6 l 1
 22 0 l 1
 18 0 l 1
 14 2 l 1
 10 0 l 1
 6 0 l 1
 0 6 l 1
 0 22 l 1
EndSplineSet
EndChar

StartChar: delta
Encoding: 948 948 442
Width: 32
Flags: MW
HStem: 0 6<10 18> 22 6<10 18> 36 4<11 11>
VStem: 0 10<6 22> 18 10<6 22>
LayerCount: 2
Fore
SplineSet
18 22 m 25
 10 22 l 25
 10 6 l 25
 18 6 l 25
 18 22 l 25
11 40 m 13
 21 40 l 17
 21 36 l 1
 28 28 l 1
 28 0 l 1
 6 0 l 1
 0 6 l 1
 0 22 l 1
 6 28 l 1
 18 28 l 1
 11 36 l 5
 11 40 l 13
EndSplineSet
EndChar

StartChar: sigma1
Encoding: 962 962 443
Width: 32
Flags: MW
HStem: 0 6<10 18> 22 6<10 18>
VStem: 0 10<6 22> 18 10<-10 0 18 22>
AnchorPoint: "top" 14 28 basechar 0
AnchorPoint: "bottom" 14 0 basechar 0
LayerCount: 2
Fore
SplineSet
6 28 m 1
 22 28 l 1
 28 22 l 1
 28 18 l 1
 18 18 l 25
 18 22 l 25
 10 22 l 25
 10 6 l 1
 28 6 l 1
 28 -10 l 5
 18 -10 l 5
 18 0 l 1
 6 0 l 1
 0 6 l 1
 0 22 l 1
 6 28 l 1
EndSplineSet
EndChar

StartChar: zeta
Encoding: 950 950 444
Width: 32
Flags: MW
HStem: 0 6<10 18> 34 6<0 18>
VStem: 0 10<6 12> 18 10<-10 0>
AnchorPoint: "top" 14 40 basechar 0
AnchorPoint: "bottom" 14 0 basechar 0
LayerCount: 2
Fore
SplineSet
0 40 m 1
 28 40 l 25
 28 34 l 1
 10 12 l 1
 10 6 l 1
 28 6 l 1
 28 -10 l 5
 18 -10 l 5
 18 0 l 1
 0 0 l 1
 0 12 l 1
 18 34 l 1
 0 34 l 1
 0 40 l 1
EndSplineSet
EndChar

StartChar: xi
Encoding: 958 958 445
Width: 32
Flags: W
HStem: -10 16<18 28> 0 6<10 18> 19 6<10 26> 34 6<10 28>
VStem: 0 10<6 18 26 34> 18 10<-10 0>
LayerCount: 2
Fore
SplineSet
6 40 m 1x7c
 28 40 l 1
 28 34 l 1
 10 34 l 1
 10 25 l 1
 26 25 l 1
 26 19 l 1
 10 19 l 1
 10 6 l 1x7c
 28 6 l 1
 28 -10 l 5
 18 -10 l 5xbc
 18 0 l 1
 6 0 l 1
 0 6 l 1
 0 18 l 1
 4 22 l 1
 0 26 l 1
 0 34 l 1
 6 40 l 1x7c
EndSplineSet
EndChar

StartChar: uni045F
Encoding: 1119 1119 449
Width: 32
Flags: MW
HStem: 0 6<10 11 17 18>
VStem: 0 10<6 28> 11 6<-10 0> 18 10<6 28>
CounterMasks: 1 70
LayerCount: 2
Fore
SplineSet
0 28 m 1
 10 28 l 25
 10 6 l 5
 18 6 l 1
 18 28 l 1
 28 28 l 1
 28 0 l 25
 17 0 l 1
 17 -10 l 1
 11 -10 l 1
 11 0 l 5
 0 0 l 25
 0 28 l 1
EndSplineSet
EndChar

StartChar: uni043F
Encoding: 1087 1087 477
Width: 32
Flags: MW
HStem: 22 6<10 18>
VStem: 0 10<0 22> 18 10<0 22>
LayerCount: 2
Fore
SplineSet
0 0 m 1
 0 28 l 25
 28 28 l 1
 28 0 l 1
 18 0 l 5
 18 22 l 5
 10 22 l 1
 10 0 l 1
 0 0 l 1
EndSplineSet
EndChar

StartChar: uni043D
Encoding: 1085 1085 478
Width: 32
Flags: MW
HStem: 11 6<10 18>
VStem: 0 10<0 11 17 28> 18 10<0 11 17 28>
LayerCount: 2
Fore
SplineSet
0 28 m 1
 10 28 l 25
 10 17 l 1
 18 17 l 1
 18 28 l 25
 28 28 l 1
 28 0 l 25
 18 0 l 29
 18 11 l 29
 10 11 l 25
 10 0 l 25
 0 0 l 25
 0 28 l 1
EndSplineSet
EndChar

StartChar: uni0442
Encoding: 1090 1090 479
Width: 32
Flags: MW
HStem: 22 6<0 7 17 24>
VStem: 7 10<0 22>
LayerCount: 2
Fore
SplineSet
0 28 m 25
 24 28 l 25
 24 22 l 25
 17 22 l 1
 17 0 l 25
 7 0 l 5
 7 22 l 29
 0 22 l 25
 0 28 l 25
EndSplineSet
EndChar

StartChar: uni0433
Encoding: 1075 1075 486
Width: 32
Flags: MW
HStem: 22 6<10 28>
VStem: 0 10<0 22>
AnchorPoint: "top" 14 28 basechar 0
LayerCount: 2
Fore
SplineSet
0 0 m 1
 0 28 l 25
 28 28 l 25
 28 22 l 25
 10 22 l 5
 10 0 l 29
 0 0 l 1
EndSplineSet
EndChar

StartChar: uni042F
Encoding: 1071 1071 487
Width: 32
Flags: MW
HStem: 19 6<17.6742 18> 34 6<10 18>
VStem: 0 10<0 8 25 34> 18 10<0 19 25 34>
AnchorPoint: "top" 14 40 basechar 0
LayerCount: 2
Fore
SplineSet
10 34 m 1
 10 25 l 29
 18 25 l 1
 18 34 l 25
 10 34 l 1
28 0 m 25
 18 0 l 1
 18 19 l 5
 10 8 l 1
 10 0 l 1
 0 0 l 1
 0 8 l 1
 8 19 l 1
 6 19 l 1
 0 25 l 1
 0 34 l 1
 6 40 l 1
 28 40 l 1
 28 0 l 25
EndSplineSet
EndChar

StartChar: uni044F
Encoding: 1103 1103 488
Width: 32
Flags: MW
HStem: 11 6<17.5927 18> 22 6<10 18>
VStem: 0 10<17 22> 18 10<0 11 17 22>
AnchorPoint: "top" 14 28 basechar 0
LayerCount: 2
Fore
SplineSet
10 22 m 1
 10 17 l 29
 18 17 l 1
 18 22 l 25
 10 22 l 1
28 0 m 25
 18 0 l 1
 18 11 l 1
 8 0 l 1
 0 0 l 1
 10 11 l 5
 6 11 l 1
 0 17 l 1
 0 22 l 1
 6 28 l 1
 28 28 l 1
 28 0 l 25
EndSplineSet
EndChar

StartChar: uni043C
Encoding: 1084 1084 489
Width: 32
Flags: MW
VStem: 0 10<0 16> 18 10<0 16>
LayerCount: 2
Fore
SplineSet
0 0 m 25
 0 28 l 25
 10 28 l 1
 14 22 l 5
 18 28 l 1
 28 28 l 1
 28 0 l 1
 18 0 l 1
 18 16 l 1
 14 10 l 1
 10 16 l 1
 10 0 l 1
 0 0 l 25
EndSplineSet
EndChar

StartChar: uni0432
Encoding: 1074 1074 490
Width: 32
Flags: W
HStem: 0 6<10 18> 11 6<10 18> 22 6<10 18>
VStem: 0 10<6 11 17 22> 18 10<6 10 18 22>
CounterMasks: 1 e0
AnchorPoint: "top" 14 28 basechar 0
LayerCount: 2
Fore
SplineSet
18 11 m 1
 10 11 l 1
 10 6 l 5
 18 6 l 5
 18 11 l 1
18 22 m 25
 10 22 l 25
 10 17 l 25
 18 17 l 25
 18 22 l 25
0 28 m 1
 22 28 l 1
 28 22 l 1
 28 18 l 1
 24 14 l 1
 28 10 l 1
 28 6 l 1
 22 0 l 1
 0 0 l 1
 0 28 l 1
EndSplineSet
EndChar

StartChar: uni0428
Encoding: 1064 1064 491
Width: 32
Flags: MW
HStem: 0 6<10 11 17 18>
VStem: 0 10<6 40> 11 6<6 40> 18 10<6 40>
CounterMasks: 1 70
LayerCount: 2
Fore
SplineSet
0 40 m 25
 10 40 l 25
 10 6 l 25
 11 6 l 25
 11 40 l 25
 17 40 l 25
 17 6 l 29
 18 6 l 25
 18 40 l 25
 28 40 l 25
 28 0 l 29
 0 0 l 25
 0 40 l 25
EndSplineSet
EndChar

StartChar: uni0448
Encoding: 1096 1096 492
Width: 32
Flags: MW
HStem: 0 6<10 11 17 18>
VStem: 0 10<6 28> 11 6<6 28> 18 10<6 28>
CounterMasks: 1 70
LayerCount: 2
Fore
SplineSet
0 28 m 25
 10 28 l 25
 10 6 l 25
 11 6 l 29
 11 28 l 25
 17 28 l 25
 17 6 l 25
 18 6 l 25
 18 28 l 25
 28 28 l 25
 28 0 l 29
 0 0 l 25
 0 28 l 25
EndSplineSet
EndChar

StartChar: uni0429
Encoding: 1065 1065 493
Width: 32
Flags: MW
HStem: 0 6<10 11 17 19>
VStem: 0 10<6 40> 11 6<6 40> 19 6<6 40> 22 6<-10 0>
LayerCount: 2
Fore
SplineSet
0 40 m 25xe8
 10 40 l 25
 10 6 l 25
 11 6 l 25
 11 40 l 25
 17 40 l 25
 17 6 l 25
 19 6 l 25
 19 40 l 1
 25 40 l 1
 25 6 l 1xf0
 28 6 l 1
 28 -10 l 5
 22 -10 l 5
 22 0 l 1
 0 0 l 1
 0 40 l 25xe8
EndSplineSet
EndChar

StartChar: uni0449
Encoding: 1097 1097 494
Width: 32
Flags: MW
HStem: 0 6<10 11 17 19>
VStem: 0 10<6 28> 11 6<6 28> 19 6<6 28> 22 6<-10 0>
LayerCount: 2
Fore
SplineSet
0 28 m 25xe8
 10 28 l 25
 10 6 l 25
 11 6 l 25
 11 28 l 25
 17 28 l 25
 17 6 l 25
 19 6 l 25
 19 28 l 1
 25 28 l 1
 25 6 l 1xf0
 28 6 l 1
 28 -10 l 5
 22 -10 l 5
 22 0 l 1
 0 0 l 1
 0 28 l 25xe8
EndSplineSet
EndChar

StartChar: uni0416
Encoding: 1046 1046 495
Width: 32
Flags: MW
VStem: 11 6<0 16 24 40>
LayerCount: 2
Fore
SplineSet
0 40 m 1
 9 40 l 1
 11 24 l 1
 11 40 l 1
 17 40 l 1
 17 24 l 1
 19 40 l 1
 28 40 l 1
 24 20 l 1
 28 0 l 1
 19 0 l 1
 17 16 l 1
 17 0 l 1
 11 0 l 1
 11 16 l 1
 9 0 l 1
 0 0 l 1
 4 20 l 29
 0 40 l 1
EndSplineSet
EndChar

StartChar: uni0436
Encoding: 1078 1078 496
Width: 32
Flags: MW
VStem: 11 6<0 10 18 28>
LayerCount: 2
Fore
SplineSet
0 28 m 1
 9 28 l 1
 11 18 l 1
 11 28 l 1
 17 28 l 1
 17 18 l 1
 19 28 l 1
 28 28 l 1
 24 14 l 5
 28 0 l 1
 19 0 l 1
 17 10 l 1
 17 0 l 1
 11 0 l 1
 11 10 l 1
 9 0 l 1
 0 0 l 1
 4 14 l 25
 0 28 l 1
EndSplineSet
EndChar

StartChar: uni0426
Encoding: 1062 1062 497
Width: 32
Flags: MW
HStem: 0 6<10 15>
VStem: 0 10<6 40> 15 10<6 40> 22 6<-10 0>
LayerCount: 2
Fore
SplineSet
0 40 m 1xd0
 10 40 l 1
 10 6 l 1
 15 6 l 1
 15 40 l 1
 25 40 l 1
 25 6 l 1xe0
 28 6 l 1
 28 -10 l 5
 22 -10 l 5
 22 0 l 1
 0 0 l 1
 0 40 l 1xd0
EndSplineSet
EndChar

StartChar: uni0446
Encoding: 1094 1094 498
Width: 32
Flags: MW
HStem: 0 6<10 15>
VStem: 0 10<6 28> 15 10<6 28> 22 6<-10 0>
LayerCount: 2
Fore
SplineSet
0 28 m 1xd0
 10 28 l 1
 10 6 l 1
 15 6 l 1
 15 28 l 1
 25 28 l 1
 25 6 l 1xe0
 28 6 l 1
 28 -10 l 5
 22 -10 l 5
 22 0 l 1
 0 0 l 1
 0 28 l 1xd0
EndSplineSet
EndChar

StartChar: uni0427
Encoding: 1063 1063 499
Width: 32
Flags: MW
HStem: 15 6<10 18>
VStem: 0 10<22 40> 18 10<0 15 21 40>
LayerCount: 2
Fore
SplineSet
0 40 m 1
 10 40 l 25
 10 21 l 25
 18 21 l 25
 18 40 l 25
 28 40 l 25
 28 0 l 1
 18 0 l 25
 18 15 l 1
 7 15 l 5
 0 22 l 1
 0 40 l 1
EndSplineSet
EndChar

StartChar: uni0447
Encoding: 1095 1095 500
Width: 32
Flags: MW
HStem: 11 6<10 18>
VStem: 0 10<17 28> 18 10<0 11 17 28>
LayerCount: 2
Fore
SplineSet
0 28 m 1
 10 28 l 25
 10 17 l 25
 18 17 l 25
 18 28 l 25
 28 28 l 25
 28 0 l 1
 18 0 l 25
 18 11 l 1
 6 11 l 1
 0 17 l 5
 0 28 l 1
EndSplineSet
EndChar

StartChar: uni040F
Encoding: 1039 1039 501
Width: 32
Flags: MW
HStem: 0 3 0 6<18 18>
VStem: 0 10<6 40> 10 8<-10 0> 18 10<6 40>
LayerCount: 2
Fore
SplineSet
0 40 m 1x04
 10 40 l 25
 10 6 l 1
 18 6 l 5
 18 40 l 1
 28 40 l 1
 28 0 l 25x05
 18 0 l 5
 18 -10 l 1
 10 -10 l 1
 10 0 l 1x02
 0 0 l 25
 0 40 l 1x04
EndSplineSet
EndChar

StartChar: uni0437
Encoding: 1079 1079 502
Width: 32
Flags: W
HStem: 0 6<0 18> 11 6<2 18> 22 6<0 18>
VStem: 18 10<6 10 18 22>
CounterMasks: 1 e0
LayerCount: 2
Fore
SplineSet
22 0 m 1
 0 0 l 1
 0 6 l 1
 18 6 l 5
 18 11 l 5
 2 11 l 1
 2 17 l 1
 18 17 l 1
 18 22 l 1
 0 22 l 1
 0 28 l 1
 22 28 l 1
 28 22 l 1
 28 18 l 1
 24 14 l 1
 28 10 l 1
 28 6 l 1
 22 0 l 1
EndSplineSet
EndChar

StartChar: uni0417
Encoding: 1047 1047 503
Width: 32
Flags: W
HStem: 0 6<0 18> 19 6<2 18> 34 6<0 18>
VStem: 18 10<6 18 26 34>
LayerCount: 2
Fore
SplineSet
22 0 m 1
 0 0 l 1
 0 6 l 5
 18 6 l 5
 18 19 l 1
 2 19 l 1
 2 25 l 1
 18 25 l 1
 18 34 l 1
 0 34 l 1
 0 40 l 1
 22 40 l 1
 28 34 l 1
 28 26 l 1
 24 22 l 1
 28 18 l 1
 28 6 l 1
 22 0 l 1
EndSplineSet
EndChar

StartChar: uni0411
Encoding: 1041 1041 504
Width: 32
Flags: W
HStem: 0 6<10 18> 22 6<10 18> 34 6<10 26>
VStem: 0 10<6 22 28 34> 18 10<6 22>
LayerCount: 2
Fore
SplineSet
18 22 m 1
 10 22 l 1
 10 6 l 5
 18 6 l 5
 18 22 l 1
0 40 m 1
 26 40 l 1
 26 34 l 1
 10 34 l 1
 10 28 l 1
 22 28 l 1
 28 22 l 1
 28 6 l 1
 22 0 l 1
 0 0 l 1
 0 40 l 1
EndSplineSet
EndChar

StartChar: uni042A
Encoding: 1066 1066 505
Width: 32
Flags: W
HStem: 0 6<13 18> 22 6<13 18> 34 6<0 3>
VStem: 3 10<6 22 28 34> 18 10<6 22>
LayerCount: 2
Fore
SplineSet
18 22 m 5
 13 22 l 5
 13 6 l 1
 18 6 l 1
 18 22 l 5
3 34 m 1
 0 34 l 1
 0 40 l 1
 13 40 l 1
 13 28 l 1
 22 28 l 1
 28 22 l 1
 28 6 l 1
 22 0 l 1
 3 0 l 1
 3 34 l 1
EndSplineSet
EndChar

StartChar: uni044A
Encoding: 1098 1098 506
Width: 32
Flags: W
HStem: 0 6<13 18> 11 6<13 18> 22 6<0 3>
VStem: 3 10<6 11 17 22> 18 10<6 11>
CounterMasks: 1 e0
LayerCount: 2
Fore
SplineSet
18 11 m 1
 13 11 l 1
 13 6 l 1
 18 6 l 1
 18 11 l 1
3 22 m 1
 0 22 l 1
 0 28 l 1
 13 28 l 1
 13 17 l 1
 22 17 l 1
 28 11 l 5
 28 6 l 1
 22 0 l 1
 3 0 l 1
 3 22 l 1
EndSplineSet
EndChar

StartChar: uni042C
Encoding: 1068 1068 507
Width: 32
Flags: MW
HStem: 0 6<10 18> 22 6<10 18>
VStem: 0 10<6 22 28 40> 18 10<6 22>
LayerCount: 2
Fore
SplineSet
18 22 m 1
 10 22 l 1
 10 6 l 1
 18 6 l 1
 18 22 l 1
0 40 m 25
 10 40 l 5
 10 28 l 29
 22 28 l 1
 28 22 l 25
 28 6 l 25
 22 0 l 25
 0 0 l 25
 0 40 l 25
EndSplineSet
EndChar

StartChar: uni044C
Encoding: 1100 1100 508
Width: 32
Flags: MW
HStem: 0 6<10 18> 11 6<10 18>
VStem: 0 10<6 11 17 28> 18 10<6 11>
LayerCount: 2
Fore
SplineSet
18 11 m 1
 10 11 l 1
 10 6 l 1
 18 6 l 1
 18 11 l 1
0 28 m 25
 10 28 l 1
 10 17 l 25
 22 17 l 1
 28 11 l 29
 28 6 l 25
 22 0 l 25
 0 0 l 25
 0 28 l 25
EndSplineSet
EndChar

StartChar: uni042B
Encoding: 1067 1067 509
Width: 32
Flags: MW
HStem: 0 6<10 11> 22 6<10 11>
VStem: 0 10<6 22 28 40> 11 6<6 22> 18 10<0 40>
CounterMasks: 1 38
LayerCount: 2
Fore
SplineSet
18 40 m 25
 28 40 l 25
 28 0 l 25
 18 0 l 25
 18 40 l 25
11 22 m 1
 10 22 l 1
 10 6 l 5
 11 6 l 1
 11 22 l 1
0 40 m 25
 10 40 l 1
 10 28 l 1
 13 28 l 1
 17 24 l 1
 17 4 l 1
 13 0 l 5
 0 0 l 1
 0 40 l 25
EndSplineSet
EndChar

StartChar: uni044B
Encoding: 1099 1099 510
Width: 32
Flags: MW
HStem: 0 5<10 11> 11 5<10 11>
VStem: 0 10<5 11 16 28> 11 6<5 11> 18 10<0 28>
CounterMasks: 1 38
LayerCount: 2
Fore
SplineSet
18 28 m 25
 28 28 l 25
 28 0 l 25
 18 0 l 25
 18 28 l 25
11 11 m 1
 10 11 l 1
 10 5 l 1
 11 5 l 5
 11 11 l 1
0 28 m 25
 10 28 l 1
 10 16 l 1
 13 16 l 1
 17 12 l 1
 17 4 l 1
 13 0 l 5
 0 0 l 1
 0 28 l 25
EndSplineSet
EndChar

StartChar: uni042E
Encoding: 1070 1070 511
Width: 32
Flags: MW
HStem: 0 6<17 18> 20 4<6 7> 34 6<17 18>
VStem: 0 6<0 20 24 40> 7 10<6 20 24 34> 18 10<6 34>
LayerCount: 2
Fore
SplineSet
18 34 m 1
 17 34 l 1
 17 6 l 1
 18 6 l 5
 18 34 l 1
0 40 m 25
 6 40 l 1
 6 24 l 1
 7 24 l 1
 7 34 l 1
 13 40 l 1
 22 40 l 1
 28 34 l 1
 28 6 l 1
 22 0 l 5
 13 0 l 1
 7 6 l 1
 7 20 l 1
 6 20 l 1
 6 0 l 1
 0 0 l 25
 0 40 l 25
EndSplineSet
EndChar

StartChar: uni044E
Encoding: 1102 1102 512
Width: 32
Flags: MW
HStem: 0 4<17 18> 11 6<6 7> 24 4<17 18>
VStem: 0 6<0 11 17 28> 7 10<6 11 17 22> 18 10<6 22>
LayerCount: 2
Fore
SplineSet
18 24 m 1
 17 24 l 1
 17 4 l 1
 18 4 l 1
 18 24 l 1
0 28 m 25
 6 28 l 1
 6 17 l 1
 7 17 l 5
 7 22 l 1
 13 28 l 1
 22 28 l 1
 28 22 l 1
 28 6 l 1
 22 0 l 1
 13 0 l 1
 7 6 l 1
 7 11 l 5
 6 11 l 1
 6 0 l 1
 0 0 l 25
 0 28 l 25
EndSplineSet
EndChar

StartChar: uni0444
Encoding: 1092 1092 513
Width: 32
Flags: MW
HStem: 0 6<10 11 17 18> 22 6<10 11 17 18>
VStem: 0 10<6 22> 11 6<-9 0 6 22 28 37> 18 10<6 22>
CounterMasks: 1 38
LayerCount: 2
Fore
SplineSet
18 22 m 1
 17 22 l 1
 17 6 l 1
 18 6 l 1
 18 22 l 1
11 22 m 25
 10 22 l 25
 10 6 l 25
 11 6 l 29
 11 22 l 25
0 22 m 1
 6 28 l 1
 11 28 l 1
 11 37 l 1
 17 37 l 1
 17 28 l 1
 22 28 l 1
 28 22 l 1
 28 6 l 1
 22 0 l 1
 17 0 l 1
 17 -9 l 1
 11 -9 l 1
 11 0 l 5
 6 0 l 1
 0 6 l 1
 0 22 l 1
EndSplineSet
EndChar

StartChar: uni040A
Encoding: 1034 1034 514
Width: 32
Flags: MW
HStem: 0 6<17 18> 22 6<6 7 17 18>
VStem: 0 6<0 22 28 40> 7 10<6 22 28 40> 18 10<6 22>
LayerCount: 2
Fore
SplineSet
7 40 m 1
 17 40 l 1
 17 28 l 1
 22 28 l 1
 28 22 l 1
 28 6 l 1
 22 0 l 5
 7 0 l 1
 7 22 l 1
 6 22 l 1
 6 0 l 1
 0 0 l 1
 0 40 l 1
 6 40 l 1
 6 28 l 1
 7 28 l 1
 7 40 l 1
18 22 m 1
 17 22 l 1
 17 6 l 1
 18 6 l 5
 18 22 l 1
EndSplineSet
EndChar

StartChar: uni045A
Encoding: 1114 1114 515
Width: 32
Flags: MW
HStem: 0 6<17 18> 11 6<6 7 17 18>
VStem: 0 6<0 11 17 28> 7 10<6 11 17 28> 18 10<6 11>
LayerCount: 2
Fore
SplineSet
7 28 m 1
 17 28 l 1
 17 17 l 1
 22 17 l 1
 28 11 l 1
 28 6 l 1
 22 0 l 5
 7 0 l 1
 7 11 l 1
 6 11 l 1
 6 0 l 1
 0 0 l 1
 0 28 l 1
 6 28 l 1
 6 17 l 1
 7 17 l 1
 7 28 l 1
18 11 m 1
 17 11 l 1
 17 6 l 1
 18 6 l 5
 18 11 l 1
EndSplineSet
EndChar

StartChar: uni0418
Encoding: 1048 1048 516
Width: 32
Flags: MW
VStem: 0 10<18 40> 18 10<0 22>
AnchorPoint: "top" 14 40 basechar 0
LayerCount: 2
Fore
SplineSet
0 0 m 25
 0 40 l 1
 10 40 l 1
 10 18 l 1
 18 40 l 1
 28 40 l 25
 28 0 l 25
 18 0 l 1
 18 22 l 29
 10 0 l 1
 0 0 l 25
EndSplineSet
EndChar

StartChar: uni0438
Encoding: 1080 1080 517
Width: 32
Flags: MW
VStem: 0 10<14 28> 18 10<0 14>
AnchorPoint: "top" 14 28 basechar 0
LayerCount: 2
Fore
SplineSet
0 0 m 25
 0 28 l 1
 10 28 l 1
 10 14 l 1
 18 28 l 1
 28 28 l 25
 28 0 l 25
 18 0 l 1
 18 14 l 29
 10 0 l 1
 0 0 l 25
EndSplineSet
EndChar

StartChar: uni0443
Encoding: 1091 1091 522
Width: 32
Flags: MW
HStem: -8 6<4 16> 0 6<10 18>
VStem: 0 10<6 28> 18 10<6 28>
AnchorPoint: "top" 14 28 basechar 0
LayerCount: 2
Fore
SplineSet
0 28 m 1
 10 28 l 25
 10 6 l 25
 18 6 l 25
 18 28 l 25
 28 28 l 25
 28 0 l 25
 20 -8 l 25
 4 -8 l 25
 4 -2 l 25
 16 -2 l 25
 18 0 l 5
 6 0 l 1
 0 6 l 1
 0 28 l 1
EndSplineSet
EndChar

StartChar: uni0423
Encoding: 1059 1059 523
Width: 32
Flags: MW
HStem: 0 6<2 14> 11 6<10 18>
VStem: 0 10<18 40> 18 10<10 11 17 40>
AnchorPoint: "top" 14 40 basechar 0
LayerCount: 2
Fore
SplineSet
0 40 m 1
 10 40 l 25
 10 17 l 25
 18 17 l 25
 18 40 l 25
 28 40 l 25
 28 10 l 1
 18 0 l 1
 2 0 l 1
 2 6 l 1
 14 6 l 1
 18 10 l 1
 18 11 l 1
 6 11 l 1
 0 18 l 1
 0 40 l 1
EndSplineSet
EndChar

StartChar: uni042D
Encoding: 1069 1069 529
Width: 32
Flags: W
HStem: 0 6<0 14> 19 6<6 18> 34 6<0 14>
VStem: 18 10<10 19 25 30>
LayerCount: 2
Fore
SplineSet
18 0 m 1
 0 0 l 1
 0 6 l 1
 14 6 l 1
 18 10 l 1
 18 19 l 1
 6 19 l 5
 6 25 l 5
 18 25 l 1
 18 30 l 1
 14 34 l 1
 0 34 l 1
 0 40 l 1
 18 40 l 1
 28 30 l 1
 28 10 l 1
 18 0 l 1
EndSplineSet
EndChar

StartChar: uni0404
Encoding: 1028 1028 530
Width: 32
Flags: W
HStem: 0 6<14 28> 19 6<10 22> 34 6<14 28>
VStem: 0 10<10 19 25 30>
LayerCount: 2
Fore
SplineSet
10 0 m 1
 0 10 l 1
 0 30 l 1
 10 40 l 1
 28 40 l 1
 28 34 l 1
 14 34 l 1
 10 30 l 1
 10 25 l 1
 22 25 l 1
 22 19 l 1
 10 19 l 1
 10 10 l 1
 14 6 l 1
 28 6 l 1
 28 0 l 1
 10 0 l 1
EndSplineSet
EndChar

StartChar: uni044D
Encoding: 1101 1101 531
Width: 32
Flags: W
HStem: 0 6<0 14> 11 6<7 18> 22 6<0 14>
CounterMasks: 1 e0
LayerCount: 2
Fore
SplineSet
18 0 m 1
 0 0 l 1
 0 6 l 1
 14 6 l 1
 18 10 l 1
 18 11 l 1
 7 11 l 1
 7 17 l 1
 18 17 l 1
 18 18 l 5
 14 22 l 1
 0 22 l 1
 0 28 l 1
 18 28 l 1
 28 18 l 1
 28 10 l 1
 18 0 l 1
EndSplineSet
EndChar

StartChar: uni0454
Encoding: 1108 1108 532
Width: 32
Flags: W
HStem: 0 6<14 28> 11 6<10 22> 22 6<14 28>
CounterMasks: 1 e0
LayerCount: 2
Fore
SplineSet
10 0 m 1
 0 10 l 1
 0 18 l 1
 10 28 l 1
 28 28 l 1
 28 22 l 1
 14 22 l 1
 10 18 l 1
 10 17 l 1
 22 17 l 1
 22 11 l 1
 10 11 l 1
 10 10 l 1
 14 6 l 1
 28 6 l 1
 28 0 l 1
 10 0 l 1
EndSplineSet
EndChar

StartChar: uni041B
Encoding: 1051 1051 533
Width: 32
Flags: W
HStem: 0 6<0 3> 34 6<13 18>
VStem: 3 10<6 34> 18 10<0 34>
LayerCount: 2
Fore
SplineSet
0 6 m 29
 3 6 l 29
 3 40 l 1
 28 40 l 1
 28 0 l 1
 18 0 l 1
 18 34 l 1
 13 34 l 1
 13 0 l 1
 0 0 l 1
 0 6 l 29
EndSplineSet
EndChar

StartChar: uni043B
Encoding: 1083 1083 534
Width: 32
Flags: W
HStem: 0 6<0 3> 22 6<13 18>
VStem: 3 10<6 22> 18 10<0 22>
LayerCount: 2
Fore
SplineSet
0 6 m 29
 3 6 l 29
 3 28 l 1
 28 28 l 1
 28 0 l 1
 18 0 l 1
 18 22 l 1
 13 22 l 1
 13 0 l 1
 0 0 l 1
 0 6 l 29
EndSplineSet
EndChar

StartChar: uni0431
Encoding: 1073 1073 535
Width: 32
Flags: W
HStem: 0 6<10 18> 22 6<10 18> 34 6<16 22>
VStem: 0 10<6 22> 18 10<6 22>
LayerCount: 2
Fore
SplineSet
10 22 m 25
 10 6 l 25
 18 6 l 25
 18 22 l 25
 10 22 l 25
22 34 m 1
 16 34 l 1
 10 28 l 5
 22 28 l 1
 28 22 l 1
 28 6 l 1
 22 0 l 1
 0 0 l 1
 0 28 l 1
 12 40 l 1
 22 40 l 1
 22 34 l 1
EndSplineSet
EndChar

StartChar: uni040B
Encoding: 1035 1035 536
Width: 32
Flags: MW
HStem: 22 6<13 18> 34 6<0 3 13 18>
VStem: 3 10<0 22 28 34> 18 10<0 22>
LayerCount: 2
Fore
SplineSet
0 40 m 1
 18 40 l 1
 18 34 l 1
 13 34 l 1
 13 28 l 1
 22 28 l 1
 28 22 l 1
 28 0 l 1
 18 0 l 1
 18 22 l 1
 13 22 l 5
 13 0 l 5
 3 0 l 1
 3 34 l 1
 0 34 l 1
 0 40 l 1
EndSplineSet
EndChar

StartChar: uni0402
Encoding: 1026 1026 537
Width: 32
Flags: W
HStem: 0 6<15 18> 22 6<13 18> 34 6<0 3 13 18>
VStem: 3 10<0 22 28 34> 18 10<6 22>
LayerCount: 2
Fore
SplineSet
0 40 m 1
 18 40 l 1
 18 34 l 1
 13 34 l 1
 13 28 l 1
 22 28 l 1
 28 22 l 1
 28 6 l 1
 22 0 l 1
 15 0 l 5
 15 6 l 5
 18 6 l 1
 18 22 l 1
 13 22 l 1
 13 0 l 1
 3 0 l 1
 3 34 l 1
 0 34 l 1
 0 40 l 1
EndSplineSet
EndChar

StartChar: uni0452
Encoding: 1106 1106 538
Width: 32
Flags: MW
HStem: 22 6<13 18> 31 6<0 3 13 18>
VStem: 3 10<0 22 28 31 37 40> 18 10<0 22>
LayerCount: 2
Fore
SplineSet
3 40 m 1
 13 40 l 1
 13 37 l 1
 18 37 l 1
 18 31 l 1
 13 31 l 1
 13 28 l 1
 22 28 l 1
 28 22 l 1
 28 0 l 1
 24 -8 l 1
 14 -8 l 5
 18 0 l 1
 18 22 l 1
 13 22 l 1
 13 0 l 1
 3 0 l 1
 3 31 l 1
 0 31 l 1
 0 37 l 1
 3 37 l 1
 3 40 l 1
EndSplineSet
EndChar

StartChar: uni0409
Encoding: 1033 1033 539
Width: 32
Flags: MW
HStem: 0 6<17 18> 22 6<17 18> 36 4<6 7>
VStem: 0 6<0 36> 7 10<6 22 28 36> 18 10<6 22>
LayerCount: 2
Fore
SplineSet
18 22 m 25
 17 22 l 1
 17 6 l 29
 18 6 l 1
 18 22 l 25
0 0 m 25
 0 40 l 25
 17 40 l 25
 17 28 l 25
 22 28 l 1
 28 22 l 1
 28 6 l 1
 22 0 l 5
 7 0 l 1
 7 36 l 1
 6 36 l 1
 6 0 l 1
 0 0 l 25
EndSplineSet
EndChar

StartChar: uni0459
Encoding: 1113 1113 540
Width: 32
Flags: MW
HStem: 0 6<17 20> 11 6<17 20> 22 6<6 7>
VStem: 0 6<0 22> 7 10<6 11 17 22> 20 8<6 11>
LayerCount: 2
Fore
SplineSet
20 11 m 25
 17 11 l 1
 17 6 l 25
 20 6 l 1
 20 11 l 25
0 0 m 25
 0 28 l 25
 17 28 l 29
 17 17 l 25
 22 17 l 1
 28 11 l 1
 28 6 l 1
 22 0 l 1
 7 0 l 1
 7 22 l 5
 6 22 l 1
 6 0 l 1
 0 0 l 25
EndSplineSet
EndChar

StartChar: uni0414
Encoding: 1044 1044 541
Width: 32
Flags: MW
HStem: 0 6<13 15> 34 6<13 15>
VStem: 0 10<-10 0> 3 10<6 34> 15 10<6 34> 18 10<-10 0>
LayerCount: 2
Fore
SplineSet
15 34 m 5x18
 13 34 l 1
 13 6 l 1
 15 6 l 1
 15 34 l 5x18
0 -10 m 1x24
 0 6 l 25x24
 3 6 l 1
 3 34 l 25
 9 40 l 1
 25 40 l 5
 25 6 l 1x18
 28 6 l 1
 28 -10 l 1
 18 -10 l 1
 18 0 l 1
 10 0 l 1
 10 -10 l 1
 0 -10 l 1x24
EndSplineSet
EndChar

StartChar: uni0434
Encoding: 1076 1076 542
Width: 32
Flags: MW
HStem: 0 6<13 15> 22 6<13 15>
VStem: 0 10<-10 0> 3 10<6 22> 15 10<6 22> 18 10<-10 0>
LayerCount: 2
Fore
SplineSet
15 22 m 1x18
 13 22 l 1
 13 6 l 5
 15 6 l 1
 15 22 l 1x18
0 -10 m 1x24
 0 6 l 25x24
 3 6 l 1
 3 22 l 25
 9 28 l 1
 25 28 l 1
 25 6 l 1x18
 28 6 l 1
 28 -10 l 1
 18 -10 l 1
 18 0 l 5
 10 0 l 1
 10 -10 l 1
 0 -10 l 1x24
EndSplineSet
EndChar

StartChar: uni0490
Encoding: 1168 1168 543
Width: 32
Flags: MW
HStem: 34 6<10 18>
VStem: 0 10<0 34> 18 10<40 46>
LayerCount: 2
Fore
SplineSet
0 0 m 1
 0 40 l 1
 18 40 l 25
 18 46 l 1
 28 46 l 1
 28 34 l 1
 10 34 l 1
 10 0 l 1
 0 0 l 1
EndSplineSet
EndChar

StartChar: uni0491
Encoding: 1169 1169 544
Width: 32
Flags: MWO
HStem: 22 6<10 18>
VStem: 0 10<0 22> 18 10<28 34>
LayerCount: 2
Fore
SplineSet
0 0 m 1
 0 28 l 1
 18 28 l 25
 18 34 l 5
 28 34 l 5
 28 22 l 1
 10 22 l 1
 10 0 l 1
 0 0 l 1
EndSplineSet
EndChar

StartChar: endash
Encoding: 8211 8211 553
Width: 32
Flags: HW
HStem: 16 8<4 28>
LayerCount: 2
Fore
SplineSet
4 24 m 29
 28 24 l 29
 28 16 l 29
 4 16 l 29
 4 24 l 29
EndSplineSet
EndChar

StartChar: emdash
Encoding: 8212 8212 554
Width: 32
Flags: HW
HStem: 16 8<0 28>
LayerCount: 2
Fore
SplineSet
0 24 m 1
 28 24 l 1
 28 16 l 1
 0 16 l 5
 0 24 l 1
EndSplineSet
EndChar

StartChar: uni2015
Encoding: 8213 8213 555
Width: 32
Flags: HW
HStem: 20 4<0 28>
LayerCount: 2
Fore
SplineSet
0 24 m 1
 28 24 l 1
 28 20 l 5
 0 20 l 5
 0 24 l 1
EndSplineSet
EndChar

StartChar: underscoredbl
Encoding: 8215 8215 556
Width: 32
Flags: HW
HStem: -12 4<0 28> -4 4<0 28>
LayerCount: 2
Fore
SplineSet
0 -8 m 25
 28 -8 l 25
 28 -12 l 25
 0 -12 l 25
 0 -8 l 25
0 0 m 1
 28 0 l 25
 28 -4 l 1
 0 -4 l 29
 0 0 l 1
EndSplineSet
EndChar

StartChar: quoteleft
Encoding: 8216 8216 557
Width: 32
Flags: HW
HStem: 28 12<12 16>
VStem: 8 8<28 32>
LayerCount: 2
Fore
SplineSet
16 28 m 5
 8 28 l 5
 8 32 l 29
 12 40 l 5
 20 40 l 5
 16 32 l 29
 16 28 l 5
EndSplineSet
EndChar

StartChar: quoteright
Encoding: 8217 8217 558
Width: 32
Flags: HW
HStem: 28 12<12 16>
VStem: 12 8<36 40>
LayerCount: 2
Fore
SplineSet
12 40 m 5
 20 40 l 5
 20 36 l 29
 16 28 l 5
 8 28 l 5
 12 36 l 29
 12 40 l 5
EndSplineSet
EndChar

StartChar: quotesinglbase
Encoding: 8218 8218 559
Width: 32
Flags: HW
HStem: 0 12<12 16>
VStem: 12 8<8 12>
LayerCount: 2
Fore
SplineSet
12 12 m 5
 20 12 l 5
 20 8 l 29
 16 0 l 5
 8 0 l 5
 12 8 l 29
 12 12 l 5
EndSplineSet
EndChar

StartChar: quotereversed
Encoding: 8219 8219 560
Width: 32
Flags: HW
HStem: 28 12<12 16>
VStem: 8 8<36 40>
LayerCount: 2
Fore
SplineSet
16 40 m 1
 16 36 l 25
 20 28 l 1
 12 28 l 1
 8 36 l 25
 8 40 l 1
 16 40 l 1
EndSplineSet
EndChar

StartChar: quotedblleft
Encoding: 8220 8220 561
Width: 32
Flags: HW
HStem: 28 12<8 12 20 24>
VStem: 4 8<28 32> 16 8<28 32>
LayerCount: 2
Fore
SplineSet
24 28 m 5
 16 28 l 5
 16 32 l 29
 20 40 l 5
 28 40 l 5
 24 32 l 29
 24 28 l 5
12 28 m 5
 4 28 l 5
 4 32 l 29
 8 40 l 5
 16 40 l 5
 12 32 l 29
 12 28 l 5
EndSplineSet
EndChar

StartChar: quotedblright
Encoding: 8221 8221 562
Width: 32
Flags: HW
HStem: 28 12<8 12 20 24>
VStem: 8 8<36 40> 20 8<36 40>
LayerCount: 2
Fore
SplineSet
20 40 m 5
 28 40 l 5
 28 36 l 29
 24 28 l 5
 16 28 l 5
 20 36 l 29
 20 40 l 5
8 40 m 5
 16 40 l 5
 16 36 l 29
 12 28 l 5
 4 28 l 5
 8 36 l 29
 8 40 l 5
EndSplineSet
EndChar

StartChar: quotedblbase
Encoding: 8222 8222 563
Width: 32
Flags: HW
HStem: 0 12<8 12 20 24>
VStem: 8 8<8 12> 20 8<8 12>
LayerCount: 2
Fore
SplineSet
20 12 m 5
 28 12 l 5
 28 8 l 29
 24 0 l 5
 16 0 l 5
 20 8 l 29
 20 12 l 5
8 12 m 5
 16 12 l 5
 16 8 l 29
 12 0 l 5
 4 0 l 5
 8 8 l 29
 8 12 l 5
EndSplineSet
EndChar

StartChar: dagger
Encoding: 8224 8224 564
Width: 32
Flags: HMW
HStem: 28 4<4 12 16 24>
VStem: 12 4<0 28 32 40>
LayerCount: 2
Fore
SplineSet
4 32 m 1
 12 32 l 1
 12 40 l 25
 16 40 l 25
 16 32 l 1
 24 32 l 1
 24 28 l 1
 16 28 l 1
 16 0 l 1
 12 0 l 25
 12 28 l 1
 4 28 l 1
 4 32 l 1
EndSplineSet
EndChar

StartChar: daggerdbl
Encoding: 8225 8225 565
Width: 32
Flags: HMW
HStem: 8 4<4 12 16 24> 28 4<4 12 16 24>
VStem: 12 4<0 8 12 28 32 40>
LayerCount: 2
Fore
SplineSet
12 40 m 25
 16 40 l 25
 16 32 l 25
 24 32 l 29
 24 28 l 29
 16 28 l 25
 16 12 l 25
 24 12 l 29
 24 8 l 29
 16 8 l 25
 16 0 l 1
 12 0 l 25
 12 8 l 1
 4 8 l 25
 4 12 l 25
 12 12 l 25
 12 28 l 25
 4 28 l 25
 4 32 l 25
 12 32 l 25
 12 40 l 25
EndSplineSet
EndChar

StartChar: bullet
Encoding: 8226 8226 566
Width: 32
Flags: HW
HStem: 16 12<8 20>
VStem: 8 12<16 28>
LayerCount: 2
Fore
SplineSet
8 28 m 5
 20 28 l 5
 20 16 l 5
 8 16 l 5
 8 28 l 5
EndSplineSet
EndChar

StartChar: ellipsis
Encoding: 8230 8230 567
Width: 32
Flags: HW
HStem: 0 8<0 4 12 16 24 28>
VStem: 0 4<0 8> 12 4<0 8> 24 4<0 8>
CounterMasks: 1 70
LayerCount: 2
Fore
SplineSet
24 8 m 1
 28 8 l 1
 28 0 l 1
 24 0 l 1
 24 8 l 1
12 8 m 1
 16 8 l 1
 16 0 l 1
 12 0 l 1
 12 8 l 1
0 8 m 1
 4 8 l 1
 4 0 l 1
 0 0 l 1
 0 8 l 1
EndSplineSet
EndChar

StartChar: perthousand
Encoding: 8240 8240 568
Width: 32
Flags: HMW
HStem: 0 4<4 8 20 24> 8 4<4 8 20 24> 28 4<4 8> 36 4<4 8>
VStem: 0 4<4 8 32 36> 8 4<4 8 32 36> 16 4<4 8> 24 4<4 8>
LayerCount: 2
Fore
SplineSet
8 8 m 25
 4 8 l 25
 4 4 l 25
 8 4 l 25
 8 8 l 25
0 8 m 17
 4 12 l 1
 8 12 l 17
 12 8 l 1
 12 4 l 1
 8 0 l 9
 4 0 l 1
 0 4 l 1
 0 8 l 17
24 8 m 25
 20 8 l 29
 20 4 l 25
 24 4 l 25
 24 8 l 25
8 36 m 25
 4 36 l 25
 4 32 l 25
 8 32 l 25
 8 36 l 25
16 8 m 21
 20 12 l 1
 24 12 l 17
 28 8 l 1
 28 4 l 1
 24 0 l 9
 20 0 l 1
 16 4 l 1
 16 8 l 21
0 36 m 25
 4 40 l 1
 8 40 l 25
 12 36 l 1
 12 32 l 1
 8 28 l 25
 4 28 l 17
 0 32 l 1
 0 36 l 25
20 28 m 1
 28 28 l 1
 8 16 l 1
 0 16 l 1
 20 28 l 1
EndSplineSet
EndChar

StartChar: minute
Encoding: 8242 8242 569
Width: 32
Flags: HW
HStem: 28 12
VStem: 8 12
LayerCount: 2
Fore
SplineSet
12 40 m 5
 20 40 l 5
 12 28 l 5
 8 28 l 5
 12 40 l 5
EndSplineSet
EndChar

StartChar: second
Encoding: 8243 8243 570
Width: 32
Flags: HW
HStem: 28 12
LayerCount: 2
Fore
SplineSet
20 40 m 1
 28 40 l 5
 20 28 l 1
 16 28 l 1
 20 40 l 1
8 40 m 1
 16 40 l 1
 8 28 l 1
 4 28 l 1
 8 40 l 1
EndSplineSet
EndChar

StartChar: guilsinglleft
Encoding: 8249 8249 571
Width: 32
Flags: HMW
VStem: 8 16
LayerCount: 2
Fore
SplineSet
16 20 m 5
 24 20 l 5
 16 10 l 5
 24 0 l 5
 16 0 l 5
 8 10 l 5
 16 20 l 5
EndSplineSet
EndChar

StartChar: guilsinglright
Encoding: 8250 8250 572
Width: 32
Flags: HW
HStem: 0 42G<16 16>
VStem: 8 16
LayerCount: 2
Fore
SplineSet
16 20 m 1
 24 10 l 1
 16 0 l 1
 8 0 l 1
 16 10 l 1
 8 20 l 1
 16 20 l 1
EndSplineSet
EndChar

StartChar: exclamdbl
Encoding: 8252 8252 573
Width: 32
VWidth: 48
Flags: HMW
HStem: 0 8<4 12 20 28>
VStem: 4 8<0 8 16 40> 20 8<0 8 16 40>
LayerCount: 2
Fore
SplineSet
20 40 m 25
 28 40 l 25
 28 16 l 25
 20 16 l 25
 20 40 l 25
20 8 m 25
 28 8 l 25
 28 0 l 25
 20 0 l 25
 20 8 l 25
4 40 m 25
 12 40 l 25
 12 16 l 25
 4 16 l 25
 4 40 l 25
4 8 m 25
 12 8 l 25
 12 0 l 25
 4 0 l 25
 4 8 l 25
EndSplineSet
EndChar

StartChar: uni203E
Encoding: 8254 8254 574
Width: 32
Flags: HW
HStem: 48 4<0 32>
LayerCount: 2
Fore
SplineSet
0 52 m 5
 32 52 l 5
 32 48 l 5
 0 48 l 5
 0 52 l 5
EndSplineSet
EndChar

StartChar: fraction
Encoding: 8260 8260 575
Width: 32
Flags: HW
LayerCount: 2
Fore
SplineSet
24 36 m 5
 28 36 l 5
 4 4 l 5
 0 4 l 5
 24 36 l 5
EndSplineSet
EndChar

StartChar: uni207F
Encoding: 8319 8319 576
Width: 32
Flags: HW
HStem: 36 4<12 16>
VStem: 8 4<20 36> 16 4<20 36>
LayerCount: 2
Fore
SplineSet
8 20 m 25
 8 40 l 25
 16 40 l 25
 20 36 l 25
 20 20 l 25
 16 20 l 25
 16 36 l 25
 12 36 l 25
 12 20 l 25
 8 20 l 25
EndSplineSet
EndChar

StartChar: franc
Encoding: 8355 8355 577
Width: 32
Flags: HMW
HStem: 4 4<0 4 12 16> 20 4<12 24> 36 4<12 28>
VStem: 4 8<0 4 8 20 24 36>
CounterMasks: 1 e0
LayerCount: 2
Fore
SplineSet
4 0 m 1
 4 4 l 25
 0 4 l 25
 0 8 l 25
 4 8 l 25
 4 40 l 25
 28 40 l 1
 28 36 l 1
 12 36 l 1
 12 24 l 1
 24 24 l 1
 24 20 l 5
 12 20 l 1
 12 8 l 1
 16 8 l 1
 16 4 l 1
 12 4 l 1
 12 0 l 1
 4 0 l 1
EndSplineSet
EndChar

StartChar: lira
Encoding: 8356 8356 578
Width: 32
Flags: HW
HStem: 0 4<0 4 12 28> 16 4<0 4 12 28> 24 4<0 4 12 28>
VStem: 4 8<4 16 20 24 28 34>
LayerCount: 2
Fore
SplineSet
0 0 m 1
 0 4 l 1
 4 4 l 1
 4 16 l 1
 0 16 l 1
 0 20 l 1
 4 20 l 1
 4 24 l 1
 0 24 l 1
 0 28 l 1
 4 28 l 1
 4 34 l 1
 10 40 l 1
 22 40 l 1
 28 34 l 1
 28 32 l 5
 20 32 l 1
 20 36 l 1
 12 36 l 1
 12 28 l 1
 28 28 l 1
 28 24 l 1
 12 24 l 1
 12 20 l 1
 28 20 l 1
 28 16 l 1
 12 16 l 1
 12 4 l 1
 28 4 l 1
 28 0 l 1
 0 0 l 1
EndSplineSet
EndChar

StartChar: peseta
Encoding: 8359 8359 579
Width: 32
Flags: HMW
HStem: 0 4<24 28> 20 4<4 8> 24 4<16 20 24 28> 36 4<4 8>
VStem: 0 4<0 20 24 36> 8 4<24 36> 20 4<4 24 28 40>
LayerCount: 2
Fore
SplineSet
8 36 m 29xca
 4 36 l 1
 4 24 l 25
 8 24 l 1
 8 36 l 29xca
20 40 m 25
 24 40 l 25
 24 28 l 1
 28 28 l 1
 28 24 l 1
 24 24 l 1
 24 4 l 1
 28 4 l 1
 28 0 l 1
 24 0 l 1
 20 4 l 1
 20 24 l 1
 16 24 l 1
 16 28 l 1
 20 28 l 25xaa
 20 40 l 25
0 0 m 25
 0 40 l 25
 8 40 l 29
 12 36 l 25
 12 24 l 25xaa
 8 20 l 1
 4 20 l 25xca
 4 0 l 1
 0 0 l 25
EndSplineSet
EndChar

StartChar: Euro
Encoding: 8364 8364 580
Width: 32
Flags: HMW
HStem: 0 4<18 28> 16 4<0 4 12 20> 24 4<0 4 12 20> 36 4<18 28>
VStem: 4 8<10 16 20 24 28 30>
LayerCount: 2
Fore
SplineSet
14 0 m 1
 4 10 l 1
 4 16 l 1
 0 16 l 1
 0 20 l 1
 4 20 l 1
 4 24 l 1
 0 24 l 1
 0 28 l 1
 4 28 l 1
 4 30 l 1
 14 40 l 1
 28 40 l 5
 28 36 l 5
 18 36 l 1
 12 30 l 1
 12 28 l 1
 20 28 l 1
 20 24 l 1
 12 24 l 1
 12 20 l 1
 20 20 l 1
 20 16 l 1
 12 16 l 1
 12 10 l 1
 18 4 l 1
 28 4 l 1
 28 0 l 1
 14 0 l 1
EndSplineSet
EndChar

StartChar: uni2105
Encoding: 8453 8453 581
Width: 32
Flags: HW
HStem: 0 4<20 24> 8 4<20 24> 28 4<4 10> 36 4<4 10>
VStem: 0 4<32 36> 16 4<4 8> 24 4<4 8>
LayerCount: 2
Fore
SplineSet
4 40 m 1
 10 40 l 25
 10 36 l 25
 4 36 l 25
 4 32 l 25
 10 32 l 25
 10 28 l 25
 4 28 l 25
 0 32 l 1
 0 36 l 29
 4 40 l 1
24 8 m 25
 20 8 l 25
 20 4 l 25
 24 4 l 25
 24 8 l 25
16 8 m 17
 20 12 l 1
 24 12 l 17
 28 8 l 1
 28 4 l 1
 24 0 l 9
 20 0 l 1
 16 4 l 1
 16 8 l 17
20 40 m 25
 28 40 l 25
 8 0 l 25
 0 0 l 25
 20 40 l 25
EndSplineSet
EndChar

StartChar: uni2103
Encoding: 8451 8451 582
Width: 32
Flags: HW
HStem: 0 4<20 24> 28 4<4 8> 36 4<4 8 20 24>
VStem: 0 4<32 36> 8 4<32 36> 16 4<4 36> 24 4<4 8 32 36>
LayerCount: 2
Fore
SplineSet
20 40 m 5
 24 40 l 29
 28 36 l 5
 28 32 l 5
 24 32 l 29
 24 36 l 5
 20 36 l 29
 20 4 l 5
 24 4 l 5
 24 8 l 5
 28 8 l 5
 28 4 l 5
 24 0 l 5
 20 0 l 5
 16 4 l 29
 16 36 l 5
 20 40 l 5
8 36 m 29
 4 36 l 29
 4 32 l 29
 8 32 l 29
 8 36 l 29
0 36 m 29
 4 40 l 29
 8 40 l 29
 12 36 l 29
 12 32 l 29
 8 28 l 29
 4 28 l 29
 0 32 l 29
 0 36 l 29
EndSplineSet
EndChar

StartChar: uni2109
Encoding: 8457 8457 583
Width: 32
Flags: HMW
HStem: 20 4<20 28> 28 4<4 8> 36 4<4 8 20 28>
VStem: 0 4<32 36> 8 4<32 36> 16 4<0 20 24 36>
CounterMasks: 1 e0
LayerCount: 2
Fore
SplineSet
16 40 m 29
 28 40 l 25
 28 36 l 1
 20 36 l 5
 20 24 l 1
 28 24 l 1
 28 20 l 1
 20 20 l 1
 20 0 l 1
 16 0 l 1
 16 40 l 29
8 36 m 25
 4 36 l 25
 4 32 l 25
 8 32 l 25
 8 36 l 25
0 36 m 25
 4 40 l 25
 8 40 l 25
 12 36 l 25
 12 32 l 25
 8 28 l 25
 4 28 l 25
 0 32 l 25
 0 36 l 25
EndSplineSet
EndChar

StartChar: uni2113
Encoding: 8467 8467 584
Width: 32
Flags: HW
HStem: 0 4<12 16> 12 4<4 8 12 16> 36 4<12 16>
VStem: 8 4<4 12 16 36> 16 4<4 8 16 36>
LayerCount: 2
Fore
SplineSet
16 36 m 1
 12 36 l 1
 12 16 l 1
 16 16 l 1
 16 36 l 1
4 16 m 1
 8 16 l 1
 8 36 l 1
 12 40 l 1
 16 40 l 1
 20 36 l 1
 20 16 l 1
 16 12 l 1
 12 12 l 1
 12 4 l 1
 16 4 l 1
 16 8 l 1
 20 8 l 1
 20 4 l 1
 16 0 l 1
 12 0 l 1
 8 4 l 1
 8 12 l 1
 4 12 l 1
 4 16 l 1
EndSplineSet
EndChar

StartChar: uni2116
Encoding: 8470 8470 585
Width: 32
Flags: HMW
HStem: 20 4<16 28> 28 4<20 24> 36 4<4 8 20 24>
VStem: 0 4<0 36> 8 4<0 36> 16 4<32 36> 24 4<32 36>
CounterMasks: 1 e0
LayerCount: 2
Fore
SplineSet
0 0 m 1
 0 40 l 1
 8 40 l 29
 12 36 l 1
 12 0 l 25
 8 0 l 25
 8 36 l 1
 4 36 l 1
 4 0 l 1
 0 0 l 1
16 24 m 25
 28 24 l 25
 28 20 l 25
 16 20 l 25
 16 24 l 25
24 36 m 1
 20 36 l 1
 20 32 l 1
 24 32 l 1
 24 36 l 1
20 40 m 1
 24 40 l 1
 28 36 l 1
 28 32 l 1
 24 28 l 1
 20 28 l 1
 16 32 l 1
 16 36 l 1
 20 40 l 1
EndSplineSet
EndChar

StartChar: trademark
Encoding: 8482 8482 586
Width: 32
Flags: HMW
HStem: 36 4<0 4 8 12>
VStem: 4 4<24 36> 16 4<24 34> 24 4<24 34>
LayerCount: 2
Fore
SplineSet
16 24 m 1
 16 40 l 1
 20 40 l 1
 22 36 l 1
 24 40 l 1
 28 40 l 1
 28 24 l 1
 24 24 l 1
 24 34 l 5
 22 30 l 1
 20 34 l 5
 20 24 l 1
 16 24 l 1
4 24 m 1
 4 36 l 1
 0 36 l 25
 0 40 l 1
 12 40 l 1
 12 36 l 1
 8 36 l 1
 8 24 l 1
 4 24 l 1
EndSplineSet
EndChar

StartChar: estimated
Encoding: 8494 8494 588
Width: 32
Flags: HW
HStem: 0 2<8 20> 12 2<8 20> 26 2<8 20>
VStem: 0 8<6 12 14 22> 20 8<14 22>
AnchorPoint: "top" 14 28 basechar 0
AnchorPoint: "bottom" 14 0 basechar 0
LayerCount: 2
Fore
SplineSet
20 26 m 1
 8 26 l 1
 8 14 l 1
 20 14 l 1
 20 26 l 1
6 28 m 1
 22 28 l 1
 28 22 l 1
 28 12 l 1
 8 12 l 1
 8 2 l 1
 20 2 l 1
 26 8 l 5
 28 8 l 1
 28 6 l 1
 22 0 l 1
 6 0 l 1
 0 6 l 1
 0 22 l 1
 6 28 l 1
EndSplineSet
EndChar

StartChar: oneeighth
Encoding: 8539 8539 589
Width: 32
Flags: HMW
HStem: -4 4<20 24> 4 4<20 24> 12 4<20 24> 24 4<0 4 8 12> 36 4<0 4>
VStem: 4 4<28 36 40 44> 16 4<0 4 8 12> 24 4<0 4 8 12>
LayerCount: 2
Fore
SplineSet
24 4 m 25
 20 4 l 25
 20 0 l 25
 24 0 l 25
 24 4 l 25
24 12 m 25
 20 12 l 25
 20 8 l 25
 24 8 l 25
 24 12 l 25
16 16 m 1
 28 16 l 1
 28 -4 l 1
 16 -4 l 1
 16 16 l 1
24 36 m 1
 28 36 l 1
 4 4 l 1
 0 4 l 1
 24 36 l 1
0 40 m 25
 4 40 l 29
 4 44 l 25
 8 44 l 25
 8 28 l 25
 12 28 l 25
 12 24 l 25
 0 24 l 25
 0 28 l 25
 4 28 l 25
 4 36 l 29
 0 36 l 25
 0 40 l 25
EndSplineSet
EndChar

StartChar: threeeighths
Encoding: 8540 8540 590
Width: 32
Flags: HMW
HStem: -4 4<20 24> 4 4<20 24> 12 4<20 24> 24 4<0 8> 32 4<0 8> 40 4<0 8>
VStem: 8 4<28 32 36 40> 16 4<0 4 8 12> 24 4<0 4 8 12>
CounterMasks: 1 0380
LayerCount: 2
Fore
SplineSet
24 4 m 25
 20 4 l 25
 20 0 l 25
 24 0 l 25
 24 4 l 25
24 12 m 25
 20 12 l 25
 20 8 l 25
 24 8 l 25
 24 12 l 25
16 16 m 1
 28 16 l 1
 28 -4 l 1
 16 -4 l 1
 16 16 l 1
24 36 m 1
 28 36 l 1
 4 4 l 1
 0 4 l 1
 24 36 l 1
0 36 m 1
 8 36 l 1
 8 40 l 1
 0 40 l 1
 0 44 l 1
 12 44 l 1
 12 24 l 1
 0 24 l 25
 0 28 l 25
 8 28 l 1
 8 32 l 1
 0 32 l 1
 0 36 l 1
EndSplineSet
EndChar

StartChar: fiveeighths
Encoding: 8541 8541 591
Width: 32
Flags: HW
HStem: -4 4<20 24> 4 4<20 24> 12 4<20 24> 24 4<0 8> 32 4<4 8> 40 4<4 12>
VStem: 0 4<36 40> 8 4<28 32> 16 4<0 4 8 12> 24 4<0 4 8 12>
LayerCount: 2
Fore
SplineSet
0 44 m 25
 12 44 l 25
 12 40 l 1
 4 40 l 1
 4 36 l 1
 12 36 l 1
 12 24 l 1
 0 24 l 25
 0 28 l 25
 8 28 l 1
 8 32 l 25
 0 32 l 1
 0 44 l 25
24 4 m 25
 20 4 l 25
 20 0 l 25
 24 0 l 25
 24 4 l 25
24 12 m 25
 20 12 l 25
 20 8 l 25
 24 8 l 25
 24 12 l 25
16 16 m 1
 28 16 l 1
 28 -4 l 1
 16 -4 l 1
 16 16 l 1
24 36 m 1
 28 36 l 1
 4 4 l 1
 0 4 l 1
 24 36 l 1
EndSplineSet
EndChar

StartChar: seveneighths
Encoding: 8542 8542 592
Width: 32
Flags: HW
HStem: -4 4<20 24> 4 4<20 24> 12 4<20 24> 40 4<0 8>
VStem: 8 4<24 40> 16 4<0 4 8 12> 24 4<0 4 8 12>
CounterMasks: 1 0e
LayerCount: 2
Fore
SplineSet
0 44 m 1
 12 44 l 1
 12 24 l 5
 8 24 l 5
 8 40 l 1
 0 40 l 1
 0 44 l 1
24 4 m 25
 20 4 l 25
 20 0 l 25
 24 0 l 25
 24 4 l 25
24 12 m 25
 20 12 l 25
 20 8 l 25
 24 8 l 25
 24 12 l 25
16 16 m 1
 28 16 l 1
 28 -4 l 1
 16 -4 l 1
 16 16 l 1
24 36 m 1
 28 36 l 1
 4 4 l 1
 0 4 l 1
 24 36 l 1
EndSplineSet
EndChar

StartChar: arrowleft
Encoding: 8592 8592 593
Width: 32
Flags: HW
HStem: 16 12<10 28>
LayerCount: 2
Fore
SplineSet
14 36 m 5
 18 36 l 5
 10 28 l 5
 28 28 l 5
 28 16 l 5
 10 16 l 5
 18 8 l 5
 14 8 l 5
 0 22 l 5
 14 36 l 5
EndSplineSet
EndChar

StartChar: arrowright
Encoding: 8594 8594 594
Width: 32
Flags: HW
HStem: 16 12<0 18>
LayerCount: 2
Fore
SplineSet
14 36 m 1
 28 22 l 1
 14 8 l 1
 10 8 l 1
 18 16 l 1
 0 16 l 1
 0 28 l 1
 18 28 l 1
 10 36 l 1
 14 36 l 1
EndSplineSet
EndChar

StartChar: arrowup
Encoding: 8593 8593 595
Width: 32
Flags: HMW
VStem: 8 12<4 30>
LayerCount: 2
Fore
SplineSet
8 4 m 5
 8 30 l 5
 0 22 l 5
 0 26 l 5
 14 40 l 5
 28 26 l 5
 28 22 l 5
 20 30 l 5
 20 4 l 5
 8 4 l 5
EndSplineSet
EndChar

StartChar: arrowdown
Encoding: 8595 8595 596
Width: 32
Flags: HW
HStem: 0 40G<8 20>
VStem: 8 12<14 40>
LayerCount: 2
Fore
SplineSet
8 40 m 1
 20 40 l 1
 20 14 l 1
 28 22 l 1
 28 18 l 1
 14 4 l 1
 0 18 l 1
 0 22 l 1
 8 14 l 1
 8 40 l 1
EndSplineSet
EndChar

StartChar: arrowboth
Encoding: 8596 8596 597
Width: 32
Flags: HW
HStem: 16 12<8 24>
LayerCount: 2
Fore
SplineSet
8 36 m 5
 12 36 l 5
 8 28 l 5
 24 28 l 5
 20 36 l 5
 24 36 l 5
 32 22 l 5
 24 8 l 5
 20 8 l 5
 24 16 l 5
 8 16 l 5
 12 8 l 5
 8 8 l 5
 0 22 l 5
 8 36 l 5
EndSplineSet
EndChar

StartChar: arrowupdn
Encoding: 8597 8597 598
Width: 32
Flags: HMW
VStem: 8 12<12 32>
LayerCount: 2
Fore
SplineSet
8 12 m 5
 8 32 l 5
 0 26 l 5
 0 30 l 5
 14 40 l 5
 28 30 l 5
 28 26 l 5
 20 32 l 5
 20 12 l 5
 28 18 l 5
 28 14 l 5
 14 4 l 5
 0 14 l 5
 0 18 l 5
 8 12 l 5
EndSplineSet
EndChar

StartChar: arrowupdnbse
Encoding: 8616 8616 599
Width: 32
Flags: HMW
HStem: -4 4<0 28>
VStem: 8 12<12 32>
LayerCount: 2
Fore
SplineSet
0 0 m 25
 28 0 l 25
 28 -4 l 25
 0 -4 l 25
 0 0 l 25
8 12 m 1
 8 32 l 1
 0 26 l 1
 0 30 l 1
 14 40 l 1
 28 30 l 1
 28 26 l 1
 20 32 l 1
 20 12 l 1
 28 18 l 1
 28 14 l 1
 14 4 l 1
 0 14 l 1
 0 18 l 1
 8 12 l 1
EndSplineSet
EndChar

StartChar: partialdiff
Encoding: 8706 8706 600
Width: 32
Flags: HW
HStem: 0 4<8 20> 20 4<8 20> 36 4<4 14>
VStem: 0 8<6 18> 20 8<6 20 24 30>
LayerCount: 2
Fore
SplineSet
8 20 m 5
 8 4 l 5
 20 4 l 5
 20 20 l 5
 8 20 l 5
18 40 m 5
 28 30 l 5
 28 24 l 5
 28 6 l 5
 22 0 l 5
 6 0 l 5
 0 6 l 5
 0 18 l 5
 6 24 l 5
 20 24 l 5
 20 30 l 5
 14 36 l 5
 4 36 l 5
 4 40 l 5
 18 40 l 5
EndSplineSet
EndChar

StartChar: radical
Encoding: 8730 8730 607
Width: 32
Flags: HMW
HStem: 36 4<16 28>
VStem: 8 8<8 36>
LayerCount: 2
Fore
SplineSet
0 8 m 1
 0 16 l 5
 8 8 l 1
 8 40 l 25
 28 40 l 1
 28 36 l 1
 16 36 l 1
 16 0 l 1
 8 0 l 1
 0 8 l 1
EndSplineSet
EndChar

StartChar: orthogonal
Encoding: 8735 8735 608
Width: 32
Flags: HMW
HStem: 0 4<4 28>
VStem: 0 4<4 28>
LayerCount: 2
Fore
SplineSet
0 28 m 25
 4 28 l 1
 4 4 l 25
 28 4 l 5
 28 0 l 25
 0 0 l 25
 0 28 l 25
EndSplineSet
EndChar

StartChar: infinity
Encoding: 8734 8734 609
Width: 32
Flags: HW
HStem: 12 4<4 8 20 24> 24 4<4 8 20 24>
VStem: 0 4<16 24> 24 4<16 24>
LayerCount: 2
Fore
SplineSet
24 24 m 29
 20 24 l 5
 16 20 l 5
 20 16 l 5
 24 16 l 29
 24 24 l 29
8 24 m 5
 4 24 l 29
 4 16 l 29
 8 16 l 5
 12 20 l 5
 8 24 l 5
0 16 m 5
 0 24 l 5
 4 28 l 29
 8 28 l 5
 14 22 l 29
 20 28 l 5
 24 28 l 5
 28 24 l 5
 28 16 l 5
 24 12 l 5
 20 12 l 5
 14 18 l 5
 8 12 l 5
 4 12 l 5
 0 16 l 5
EndSplineSet
EndChar

StartChar: intersection
Encoding: 8745 8745 610
Width: 32
Flags: HMW
HStem: 36 4<12 16>
VStem: 4 4<0 32> 20 4<0 32>
LayerCount: 2
Fore
SplineSet
4 36 m 25
 8 40 l 25
 20 40 l 25
 24 36 l 1
 24 0 l 1
 20 0 l 1
 20 32 l 5
 16 36 l 1
 12 36 l 1
 8 32 l 1
 8 0 l 25
 4 0 l 25
 4 36 l 25
EndSplineSet
EndChar

StartChar: integral
Encoding: 8747 8747 611
Width: 32
Flags: HMW
HStem: -8 4<6 10> 44 4<18 22>
VStem: 0 4<-2 0> 12 4<-2 42> 24 4<40 42>
CounterMasks: 1 38
LayerCount: 2
Fore
SplineSet
0 0 m 5
 4 0 l 29
 4 -2 l 29
 6 -4 l 5
 10 -4 l 5
 12 -2 l 5
 12 44 l 5
 16 48 l 5
 24 48 l 5
 28 44 l 5
 28 40 l 5
 24 40 l 5
 24 42 l 29
 22 44 l 29
 18 44 l 5
 16 42 l 5
 16 -4 l 5
 12 -8 l 5
 4 -8 l 5
 0 -4 l 5
 0 0 l 5
EndSplineSet
EndChar

StartChar: approxequal
Encoding: 8776 8776 612
Width: 32
Flags: HMW
LayerCount: 2
Fore
SplineSet
4 8 m 25
 12 16 l 25
 20 8 l 25
 28 16 l 25
 28 8 l 25
 20 0 l 25
 12 8 l 25
 4 0 l 25
 4 8 l 25
4 24 m 29
 12 32 l 29
 20 24 l 29
 28 32 l 29
 28 24 l 29
 20 16 l 29
 12 24 l 29
 4 16 l 29
 4 24 l 29
EndSplineSet
EndChar

StartChar: notequal
Encoding: 8800 8800 613
Width: 32
Flags: HW
HStem: 8 8<0 4 8 10 14 28> 20 8<0 14 18 20 24 28>
LayerCount: 2
Fore
SplineSet
24 32 m 1
 28 32 l 1
 24 28 l 1
 28 28 l 1
 28 20 l 1
 18 20 l 1
 14 16 l 1
 28 16 l 1
 28 8 l 1
 8 8 l 1
 4 4 l 1
 0 4 l 1
 4 8 l 1
 0 8 l 1
 0 16 l 1
 10 16 l 1
 14 20 l 1
 0 20 l 1
 0 28 l 1
 20 28 l 1
 24 32 l 1
EndSplineSet
EndChar

StartChar: equivalence
Encoding: 8801 8801 614
Width: 32
Flags: HW
HStem: 0 8<0 28> 12 8<0 28> 24 8<0 28>
VStem: 0 28<0 8 12 20 24 32>
CounterMasks: 1 e0
LayerCount: 2
Fore
SplineSet
0 32 m 5
 28 32 l 5
 28 24 l 5
 0 24 l 5
 0 32 l 5
0 8 m 29
 28 8 l 29
 28 0 l 29
 0 0 l 29
 0 8 l 29
0 20 m 5
 28 20 l 5
 28 12 l 5
 0 12 l 5
 0 20 l 5
EndSplineSet
EndChar

StartChar: lessequal
Encoding: 8804 8804 615
Width: 32
Flags: HMW
HStem: 0 8<0 24>
LayerCount: 2
Fore
SplineSet
0 8 m 29
 24 8 l 29
 24 0 l 29
 0 0 l 29
 0 8 l 29
16 40 m 5
 24 40 l 5
 8 26 l 5
 24 12 l 5
 16 12 l 5
 0 26 l 5
 16 40 l 5
EndSplineSet
EndChar

StartChar: greaterequal
Encoding: 8805 8805 616
Width: 32
Flags: HMW
HStem: 0 8<0 24>
LayerCount: 2
Fore
SplineSet
24 8 m 25
 24 0 l 25
 0 0 l 25
 0 8 l 25
 24 8 l 25
8 40 m 1
 24 26 l 1
 8 12 l 1
 0 12 l 1
 16 26 l 1
 0 40 l 1
 8 40 l 1
EndSplineSet
EndChar

StartChar: house
Encoding: 8962 8962 617
Width: 32
Flags: HW
HStem: 0 40G<0 28> 0 4<4 24>
VStem: 0 4<4 26> 24 4<4 26>
LayerCount: 2
Fore
SplineSet
14 34 m 1x70
 4 26 l 1
 4 4 l 1
 24 4 l 1
 24 26 l 5
 14 34 l 1x70
0 0 m 25xb0
 0 28 l 1
 14 40 l 25
 28 28 l 1
 28 0 l 25
 0 0 l 25xb0
EndSplineSet
EndChar

StartChar: revlogicalnot
Encoding: 8976 8976 618
Width: 32
Flags: HW
HStem: 20 8<0 8> 24 4<8 28>
VStem: 0 8<20 24>
LayerCount: 2
Fore
SplineSet
28 28 m 5x60
 28 24 l 29
 8 24 l 5x60
 8 20 l 29
 0 20 l 29
 0 28 l 29xa0
 28 28 l 5x60
EndSplineSet
EndChar

StartChar: integraltp
Encoding: 8992 8992 619
Width: 32
Flags: HW
HStem: 40 42G<24 28> 44 4<18 22>
VStem: 12 4<-12 42> 24 4<40 42>
LayerCount: 2
Fore
SplineSet
16 42 m 9x70
 16 -12 l 1
 12 -12 l 1
 12 44 l 1
 16 48 l 1
 24 48 l 1
 28 44 l 1x70
 28 40 l 1
 24 40 l 1xb0
 24 42 l 25
 22 44 l 25
 18 44 l 1
 16 42 l 9x70
EndSplineSet
EndChar

StartChar: integralbt
Encoding: 8993 8993 620
Width: 32
Flags: HW
HStem: -40 40G<0 4> -8 4<6 10>
VStem: 0 4<-2 0> 12 4<-2 52>
LayerCount: 2
Fore
SplineSet
16 52 m 5x70
 16 -4 l 1
 12 -8 l 1
 4 -8 l 1
 0 -4 l 1x70
 0 0 l 1
 4 0 l 25xb0
 4 -2 l 25
 6 -4 l 1
 10 -4 l 1
 12 -2 l 1
 12 52 l 5
 16 52 l 5x70
EndSplineSet
EndChar

StartChar: SF100000
Encoding: 9472 9472 621
Width: 32
Flags: HW
HStem: 20 4<0 32>
LayerCount: 2
Fore
SplineSet
0 24 m 29
 32 24 l 29
 32 20 l 29
 0 20 l 29
 0 24 l 29
EndSplineSet
EndChar

StartChar: SF110000
Encoding: 9474 9474 622
Width: 32
Flags: HW
VStem: 12 4<-12 52>
LayerCount: 2
Fore
SplineSet
12 52 m 29
 16 52 l 29
 16 -12 l 29
 12 -12 l 29
 12 52 l 29
EndSplineSet
EndChar

StartChar: SF010000
Encoding: 9484 9484 623
Width: 32
Flags: HW
HStem: 20 4<16 32>
VStem: 12 4<-12 20>
LayerCount: 2
Fore
SplineSet
12 24 m 5
 32 24 l 29
 32 20 l 29
 16 20 l 29
 16 -12 l 1
 12 -12 l 25
 12 24 l 5
EndSplineSet
EndChar

StartChar: SF030000
Encoding: 9488 9488 624
Width: 32
Flags: HW
HStem: 20 4<0 12>
VStem: 12 4<-12 20>
LayerCount: 2
Fore
SplineSet
0 24 m 29
 16 24 l 29
 16 -12 l 25
 12 -12 l 25
 12 20 l 29
 0 20 l 29
 0 24 l 29
EndSplineSet
EndChar

StartChar: SF020000
Encoding: 9492 9492 625
Width: 32
Flags: HW
HStem: 20 4<16 32>
VStem: 12 4<24 52>
LayerCount: 2
Fore
SplineSet
12 52 m 25
 16 52 l 25
 16 24 l 29
 32 24 l 29
 32 20 l 29
 12 20 l 29
 12 52 l 25
EndSplineSet
EndChar

StartChar: SF040000
Encoding: 9496 9496 626
Width: 32
Flags: HW
HStem: 20 4<0 12>
VStem: 12 4<24 52>
LayerCount: 2
Fore
SplineSet
0 24 m 29
 12 24 l 29
 12 52 l 25
 16 52 l 25
 16 20 l 29
 0 20 l 29
 0 24 l 29
EndSplineSet
EndChar

StartChar: SF080000
Encoding: 9500 9500 627
Width: 32
Flags: HW
HStem: 20 4<16 32>
VStem: 12 4<-12 20 24 52>
LayerCount: 2
Fore
SplineSet
12 52 m 25
 16 52 l 25
 16 24 l 29
 32 24 l 29
 32 20 l 29
 16 20 l 29
 16 -12 l 25
 12 -12 l 25
 12 52 l 25
EndSplineSet
EndChar

StartChar: SF090000
Encoding: 9508 9508 628
Width: 32
Flags: HW
HStem: 20 4<0 12>
VStem: 12 4<-12 20 24 52>
LayerCount: 2
Fore
SplineSet
0 24 m 25
 12 24 l 25
 12 52 l 25
 16 52 l 25
 16 -12 l 1
 12 -12 l 29
 12 20 l 1
 0 20 l 25
 0 24 l 25
EndSplineSet
EndChar

StartChar: SF060000
Encoding: 9516 9516 629
Width: 32
Flags: HW
HStem: 20 4<0 12 16 32>
VStem: 12 4<-12 20>
LayerCount: 2
Fore
SplineSet
0 24 m 29
 32 24 l 25
 32 20 l 25
 16 20 l 25
 16 -12 l 25
 12 -12 l 25
 12 20 l 25
 0 20 l 25
 0 24 l 29
EndSplineSet
EndChar

StartChar: SF070000
Encoding: 9524 9524 630
Width: 32
Flags: HW
HStem: 20 4<0 12 16 32>
VStem: 12 4<24 52>
LayerCount: 2
Fore
SplineSet
0 24 m 29
 12 24 l 25
 12 52 l 25
 16 52 l 25
 16 24 l 25
 32 24 l 25
 32 20 l 25
 0 20 l 25
 0 24 l 29
EndSplineSet
EndChar

StartChar: SF050000
Encoding: 9532 9532 631
Width: 32
Flags: HW
HStem: 20 4<0 12 16 32>
VStem: 12 4<-12 20 24 52>
LayerCount: 2
Fore
SplineSet
0 24 m 29
 12 24 l 25
 12 52 l 25
 16 52 l 25
 16 24 l 25
 32 24 l 25
 32 20 l 25
 16 20 l 25
 16 -12 l 25
 12 -12 l 25
 12 20 l 25
 0 20 l 25
 0 24 l 29
EndSplineSet
EndChar

StartChar: SF430000
Encoding: 9552 9552 632
Width: 32
Flags: HW
HStem: 16 4<0 32> 24 4<0 32>
LayerCount: 2
Fore
SplineSet
0 20 m 1
 32 20 l 1
 32 16 l 1
 0 16 l 1
 0 20 l 1
0 28 m 29
 32 28 l 29
 32 24 l 25
 0 24 l 25
 0 28 l 29
EndSplineSet
EndChar

StartChar: SF240000
Encoding: 9553 9553 633
Width: 32
Flags: HW
VStem: 8 4<-12 52> 16 4<-12 52>
LayerCount: 2
Fore
SplineSet
16 52 m 25
 20 52 l 25
 20 -12 l 25
 16 -12 l 25
 16 52 l 25
8 52 m 25
 12 52 l 1
 12 -12 l 29
 8 -12 l 1
 8 52 l 25
EndSplineSet
EndChar

StartChar: SF510000
Encoding: 9554 9554 634
Width: 32
Flags: HW
HStem: 16 4<16 32> 24 4<16 32>
VStem: 12 4<-12 16 20 24>
LayerCount: 2
Fore
SplineSet
12 28 m 29
 32 28 l 25
 32 24 l 25
 16 24 l 25
 16 20 l 25
 32 20 l 25
 32 16 l 25
 16 16 l 25
 16 -12 l 25
 12 -12 l 25
 12 28 l 29
EndSplineSet
EndChar

StartChar: SF520000
Encoding: 9555 9555 635
Width: 32
Flags: HW
HStem: 20 4<12 16 20 32>
VStem: 8 4<-12 20> 16 4<-12 20>
LayerCount: 2
Fore
SplineSet
8 24 m 29
 32 24 l 25
 32 20 l 25
 20 20 l 25
 20 -12 l 25
 16 -12 l 25
 16 20 l 25
 12 20 l 25
 12 -12 l 25
 8 -12 l 25
 8 24 l 29
EndSplineSet
EndChar

StartChar: SF390000
Encoding: 9556 9556 636
Width: 32
Flags: HW
HStem: 16 4<20 32> 24 4<12 32>
VStem: 8 4<-12 24> 16 4<-12 16>
LayerCount: 2
Fore
SplineSet
16 -12 m 25
 16 20 l 25
 32 20 l 25
 32 16 l 5
 20 16 l 25
 20 -12 l 1
 16 -12 l 25
8 -12 m 25
 8 28 l 25
 32 28 l 25
 32 24 l 25
 12 24 l 25
 12 -12 l 25
 8 -12 l 25
EndSplineSet
EndChar

StartChar: SF220000
Encoding: 9557 9557 637
Width: 32
Flags: HW
HStem: 16 4<0 12> 24 4<0 12>
VStem: 12 4<-12 16 20 24>
LayerCount: 2
Fore
SplineSet
0 28 m 25
 16 28 l 25
 16 -12 l 25
 12 -12 l 1
 12 16 l 29
 0 16 l 5
 0 20 l 5
 12 20 l 5
 12 24 l 1
 0 24 l 1
 0 28 l 25
EndSplineSet
EndChar

StartChar: SF210000
Encoding: 9558 9558 638
Width: 32
Flags: HW
HStem: 20 4<0 8 12 16>
VStem: 8 4<-12 20> 16 4<-12 20>
LayerCount: 2
Fore
SplineSet
0 24 m 25
 20 24 l 25
 20 -12 l 25
 16 -12 l 25
 16 20 l 25
 12 20 l 1
 12 -12 l 25
 8 -12 l 5
 8 20 l 25
 0 20 l 25
 0 24 l 25
EndSplineSet
EndChar

StartChar: SF250000
Encoding: 9559 9559 639
Width: 32
Flags: HW
HStem: 16 4<0 8> 24 4<0 16>
VStem: 8 4<-12 16> 16 4<-12 24>
LayerCount: 2
Fore
SplineSet
0 20 m 29
 12 20 l 25
 12 -12 l 25
 8 -12 l 25
 8 16 l 25
 0 16 l 25
 0 20 l 29
0 28 m 25
 20 28 l 25
 20 -12 l 25
 16 -12 l 25
 16 24 l 25
 0 24 l 25
 0 28 l 25
EndSplineSet
EndChar

StartChar: SF500000
Encoding: 9560 9560 640
Width: 32
Flags: HW
HStem: 16 4<16 32> 24 4<16 32>
VStem: 12 4<20 24 28 52>
LayerCount: 2
Fore
SplineSet
12 52 m 29
 16 52 l 25
 16 28 l 25
 32 28 l 25
 32 24 l 25
 16 24 l 25
 16 20 l 25
 32 20 l 25
 32 16 l 25
 12 16 l 25
 12 52 l 29
EndSplineSet
EndChar

StartChar: SF490000
Encoding: 9561 9561 641
Width: 32
Flags: HW
HStem: 20 4<12 16 20 32>
VStem: 8 4<24 52> 16 4<24 52>
LayerCount: 2
Fore
SplineSet
8 52 m 29
 12 52 l 25
 12 24 l 25
 16 24 l 25
 16 52 l 25
 20 52 l 25
 20 24 l 25
 32 24 l 25
 32 20 l 25
 8 20 l 25
 8 52 l 29
EndSplineSet
EndChar

StartChar: SF380000
Encoding: 9562 9562 642
Width: 32
Flags: HW
HStem: 16 4<12 32> 24 4<20 32>
VStem: 8 4<20 52> 16 4<28 52>
LayerCount: 2
Fore
SplineSet
16 52 m 25
 20 52 l 25
 20 28 l 25
 32 28 l 25
 32 24 l 25
 16 24 l 25
 16 52 l 25
8 52 m 25
 12 52 l 25
 12 20 l 29
 32 20 l 29
 32 16 l 29
 8 16 l 29
 8 52 l 25
EndSplineSet
EndChar

StartChar: SF280000
Encoding: 9563 9563 643
Width: 32
Flags: HW
HStem: 16 4<0 12> 24 4<0 12>
VStem: 12 4<20 24 28 52>
LayerCount: 2
Fore
SplineSet
0 28 m 25
 12 28 l 25
 12 52 l 25
 16 52 l 25
 16 16 l 29
 0 16 l 29
 0 20 l 29
 12 20 l 29
 12 24 l 25
 0 24 l 25
 0 28 l 25
EndSplineSet
EndChar

StartChar: SF270000
Encoding: 9564 9564 644
Width: 32
Flags: HW
HStem: 20 4<0 8 12 16>
VStem: 8 4<24 52> 16 4<24 52>
LayerCount: 2
Fore
SplineSet
0 24 m 29
 8 24 l 25
 8 52 l 25
 12 52 l 25
 12 24 l 25
 16 24 l 25
 16 52 l 25
 20 52 l 25
 20 20 l 25
 0 20 l 25
 0 24 l 29
EndSplineSet
EndChar

StartChar: SF260000
Encoding: 9565 9565 645
Width: 32
Flags: HW
HStem: 16 4<0 16> 24 4<0 8>
VStem: 8 4<28 52> 16 4<20 52>
LayerCount: 2
Fore
SplineSet
0 20 m 29
 16 20 l 25
 16 52 l 25
 20 52 l 25
 20 16 l 25
 0 16 l 25
 0 20 l 29
0 28 m 25
 8 28 l 25
 8 52 l 25
 12 52 l 25
 12 24 l 25
 0 24 l 25
 0 28 l 25
EndSplineSet
EndChar

StartChar: SF360000
Encoding: 9566 9566 646
Width: 32
Flags: HW
HStem: 16 4<16 32> 24 4<16 32>
VStem: 12 4<-12 16 20 24 28 52>
LayerCount: 2
Fore
SplineSet
12 52 m 29
 16 52 l 25
 16 28 l 25
 32 28 l 25
 32 24 l 25
 16 24 l 25
 16 20 l 25
 32 20 l 25
 32 16 l 25
 16 16 l 25
 16 -12 l 25
 12 -12 l 25
 12 52 l 29
EndSplineSet
EndChar

StartChar: SF370000
Encoding: 9567 9567 647
Width: 32
Flags: HW
HStem: 20 4<20 32>
VStem: 8 4<-12 52> 16 4<-12 20 24 52>
LayerCount: 2
Fore
SplineSet
16 52 m 25
 20 52 l 25
 20 24 l 29
 32 24 l 29
 32 20 l 29
 20 20 l 29
 20 -12 l 25
 16 -12 l 25
 16 52 l 25
8 52 m 25
 12 52 l 25
 12 -12 l 25
 8 -12 l 25
 8 52 l 25
EndSplineSet
EndChar

StartChar: SF420000
Encoding: 9568 9568 648
Width: 32
Flags: HW
HStem: 16 4<20 32> 24 4<20 32>
VStem: 8 4<-12 52> 16 4<-12 16 28 52>
LayerCount: 2
Fore
SplineSet
16 20 m 1
 32 20 l 25
 32 16 l 25
 20 16 l 25
 20 -12 l 1
 16 -12 l 25
 16 20 l 1
16 52 m 29
 20 52 l 29
 20 28 l 25
 32 28 l 25
 32 24 l 25
 16 24 l 25
 16 52 l 29
8 52 m 29
 12 52 l 29
 12 -12 l 25
 8 -12 l 25
 8 52 l 29
EndSplineSet
EndChar

StartChar: SF190000
Encoding: 9569 9569 649
Width: 32
Flags: HW
HStem: 16 4<0 12> 24 4<0 12>
VStem: 12 4<-12 16 20 24 28 52>
LayerCount: 2
Fore
SplineSet
0 28 m 25
 12 28 l 25
 12 52 l 25
 16 52 l 25
 16 -12 l 1
 12 -12 l 25
 12 16 l 5
 0 16 l 29
 0 20 l 29
 12 20 l 29
 12 24 l 25
 0 24 l 25
 0 28 l 25
EndSplineSet
EndChar

StartChar: SF200000
Encoding: 9570 9570 650
Width: 32
Flags: HMW
HStem: 20 4<0 8>
VStem: 8 4<-12 20 24 52> 16 4<-12 52>
LayerCount: 2
Fore
SplineSet
16 52 m 29
 20 52 l 29
 20 -12 l 25
 16 -12 l 25
 16 52 l 29
0 24 m 25
 8 24 l 25
 8 52 l 25
 12 52 l 25
 12 -12 l 25
 8 -12 l 25
 8 20 l 25
 0 20 l 25
 0 24 l 25
EndSplineSet
EndChar

StartChar: SF230000
Encoding: 9571 9571 651
Width: 32
Flags: HMW
HStem: 16 4<0 8> 24 4<0 8>
VStem: 8 4<-12 16 28 52> 16 4<-12 52>
LayerCount: 2
Fore
SplineSet
16 52 m 29
 20 52 l 29
 20 -12 l 25
 16 -12 l 25
 16 52 l 29
0 20 m 25
 12 20 l 25
 12 -12 l 25
 8 -12 l 25
 8 16 l 25
 0 16 l 25
 0 20 l 25
0 28 m 25
 8 28 l 25
 8 52 l 25
 12 52 l 25
 12 24 l 25
 0 24 l 25
 0 28 l 25
EndSplineSet
EndChar

StartChar: SF470000
Encoding: 9572 9572 652
Width: 32
Flags: HMW
HStem: 16 4<0 12 16 32> 24 4<0 32>
VStem: 12 4<-12 16>
LayerCount: 2
Fore
SplineSet
0 20 m 25
 32 20 l 25
 32 16 l 25
 16 16 l 25
 16 -12 l 25
 12 -12 l 1
 12 16 l 25
 0 16 l 1
 0 20 l 25
0 28 m 25
 32 28 l 29
 32 24 l 29
 0 24 l 25
 0 28 l 25
EndSplineSet
EndChar

StartChar: SF480000
Encoding: 9573 9573 653
Width: 32
Flags: HW
HStem: 20 4<0 8 12 16 20 32>
VStem: 8 4<-12 20> 16 4<-12 20>
LayerCount: 2
Fore
SplineSet
0 24 m 29
 32 24 l 29
 32 20 l 29
 20 20 l 29
 20 -12 l 25
 16 -12 l 25
 16 20 l 29
 12 20 l 29
 12 -12 l 25
 8 -12 l 25
 8 20 l 29
 0 20 l 29
 0 24 l 29
EndSplineSet
EndChar

StartChar: SF410000
Encoding: 9574 9574 654
Width: 32
Flags: HMW
HStem: 16 4<0 8 20 32> 24 4<0 32>
VStem: 8 4<-12 16> 16 4<-12 16>
LayerCount: 2
Fore
SplineSet
16 20 m 25
 32 20 l 25
 32 16 l 25
 20 16 l 25
 20 -12 l 25
 16 -12 l 25
 16 20 l 25
0 20 m 25
 12 20 l 25
 12 -12 l 25
 8 -12 l 25
 8 16 l 25
 0 16 l 25
 0 20 l 25
0 28 m 5
 32 28 l 25
 32 24 l 1
 0 24 l 29
 0 28 l 5
EndSplineSet
EndChar

StartChar: SF450000
Encoding: 9575 9575 655
Width: 32
Flags: HW
HStem: 16 4<0 32> 24 4<0 12 16 32>
VStem: 12 4<28 52>
LayerCount: 2
Fore
SplineSet
0 20 m 29
 32 20 l 25
 32 16 l 25
 0 16 l 25
 0 20 l 29
0 28 m 25
 12 28 l 25
 12 52 l 25
 16 52 l 25
 16 28 l 25
 32 28 l 25
 32 24 l 25
 0 24 l 25
 0 28 l 25
EndSplineSet
EndChar

StartChar: SF460000
Encoding: 9576 9576 656
Width: 32
Flags: HW
HStem: 20 4<0 8 12 16 20 32>
VStem: 8 4<24 52> 16 4<24 52>
LayerCount: 2
Fore
SplineSet
0 24 m 29
 8 24 l 25
 8 52 l 25
 12 52 l 25
 12 24 l 25
 16 24 l 25
 16 52 l 25
 20 52 l 25
 20 24 l 25
 32 24 l 25
 32 20 l 25
 0 20 l 25
 0 24 l 29
EndSplineSet
EndChar

StartChar: SF400000
Encoding: 9577 9577 657
Width: 32
Flags: HW
HStem: 16 4<0 32> 24 4<0 8 20 32>
VStem: 8 4<28 52> 16 4<28 52>
LayerCount: 2
Fore
SplineSet
0 20 m 25
 32 20 l 25
 32 16 l 25
 0 16 l 25
 0 20 l 25
16 52 m 29
 20 52 l 29
 20 28 l 29
 32 28 l 25
 32 24 l 25
 16 24 l 29
 16 52 l 29
0 28 m 25
 8 28 l 29
 8 52 l 29
 12 52 l 29
 12 24 l 29
 0 24 l 25
 0 28 l 25
EndSplineSet
EndChar

StartChar: SF540000
Encoding: 9578 9578 658
Width: 32
Flags: HW
HStem: 16 4<0 12 16 32> 24 4<0 12 16 32>
VStem: 12 4<-12 16 20 24 28 52>
LayerCount: 2
Fore
SplineSet
12 52 m 29
 16 52 l 25
 16 28 l 25
 32 28 l 25
 32 24 l 25
 16 24 l 25
 16 20 l 25
 32 20 l 25
 32 16 l 25
 16 16 l 25
 16 -12 l 25
 12 -12 l 25
 12 16 l 25
 0 16 l 25
 0 20 l 25
 12 20 l 25
 12 24 l 25
 0 24 l 25
 0 28 l 25
 12 28 l 25
 12 52 l 29
EndSplineSet
EndChar

StartChar: SF530000
Encoding: 9579 9579 659
Width: 32
Flags: HW
HStem: 20 4<0 8 12 16 20 32>
VStem: 8 4<-12 20 24 52> 16 4<-12 20 24 52>
LayerCount: 2
Fore
SplineSet
0 24 m 29
 8 24 l 25
 8 52 l 25
 12 52 l 25
 12 24 l 25
 16 24 l 25
 16 52 l 25
 20 52 l 25
 20 24 l 25
 32 24 l 25
 32 20 l 25
 20 20 l 25
 20 -12 l 25
 16 -12 l 25
 16 20 l 25
 12 20 l 25
 12 -12 l 25
 8 -12 l 25
 8 20 l 25
 0 20 l 25
 0 24 l 29
EndSplineSet
EndChar

StartChar: SF440000
Encoding: 9580 9580 660
Width: 32
Flags: HMW
HStem: 16 4<0 8 20 32> 24 4<0 8 20 32>
VStem: 8 4<-12 16 28 52> 16 4<-12 16 28 52>
LayerCount: 2
Fore
SplineSet
16 20 m 29
 32 20 l 25
 32 16 l 25
 20 16 l 25
 20 -12 l 25
 16 -12 l 25
 16 20 l 29
0 20 m 25
 12 20 l 25
 12 -12 l 25
 8 -12 l 1
 8 16 l 25
 0 16 l 1
 0 20 l 25
16 52 m 25
 20 52 l 25
 20 28 l 25
 32 28 l 25
 32 24 l 25
 16 24 l 25
 16 52 l 25
0 28 m 25
 8 28 l 25
 8 52 l 25
 12 52 l 25
 12 24 l 25
 0 24 l 25
 0 28 l 25
EndSplineSet
EndChar

StartChar: upblock
Encoding: 9600 9600 661
Width: 32
Flags: HW
HStem: 20 32<0 32>
VStem: 0 32<20 52>
LayerCount: 2
Fore
SplineSet
0 52 m 25
 32 52 l 25
 32 20 l 25
 0 20 l 25
 0 52 l 25
EndSplineSet
EndChar

StartChar: dnblock
Encoding: 9604 9604 662
Width: 32
Flags: HW
HStem: -12 32<0 32>
VStem: 0 32<-12 20>
LayerCount: 2
Fore
SplineSet
0 20 m 29
 32 20 l 29
 32 -12 l 29
 0 -12 l 29
 0 20 l 29
EndSplineSet
EndChar

StartChar: block
Encoding: 9608 9608 663
Width: 32
Flags: HW
VStem: 0 32<-12 52>
LayerCount: 2
Fore
SplineSet
0 52 m 29
 32 52 l 25
 32 -12 l 25
 0 -12 l 25
 0 52 l 29
EndSplineSet
EndChar

StartChar: lfblock
Encoding: 9612 9612 664
Width: 32
Flags: HW
VStem: 0 16<-12 52>
LayerCount: 2
Fore
SplineSet
0 52 m 25
 16 52 l 29
 16 -12 l 25
 0 -12 l 25
 0 52 l 25
EndSplineSet
EndChar

StartChar: rtblock
Encoding: 9616 9616 665
Width: 32
Flags: HW
VStem: 16 16<-12 52>
LayerCount: 2
Fore
SplineSet
16 52 m 25
 32 52 l 25
 32 -12 l 25
 16 -12 l 29
 16 52 l 25
EndSplineSet
EndChar

StartChar: ltshade
Encoding: 9617 9617 666
Width: 32
Flags: HW
HStem: -8 4<0 4 8 12 16 20 24 28> 0 4<0 4 8 12 16 20 24 28> 8 4<0 4 8 12 16 20 24 28> 16 4<0 4 8 12 16 20 24 28> 24 4<0 4 8 12 16 20 24 28> 32 4<0 4 8 12 16 20 24 28> 40 4<0 4 8 12 16 20 24 28> 48 4<0 4 8 12 16 20 24 28>
VStem: 0 4<-8 -4 0 4 8 12 16 20 24 28 32 36 40 44 48 52> 8 4<-8 -4 0 4 8 12 16 20 24 28 32 36 40 44 48 52> 16 4<-8 -4 0 4 8 12 16 20 24 28 32 36 40 44 48 52> 24 4<-8 -4 0 4 8 12 16 20 24 28 32 36 40 44 48 52>
LayerCount: 2
Fore
SplineSet
24 -4 m 29
 28 -4 l 29
 28 -8 l 29
 24 -8 l 29
 24 -4 l 29
16 -4 m 29
 20 -4 l 29
 20 -8 l 29
 16 -8 l 29
 16 -4 l 29
8 -4 m 29
 12 -4 l 29
 12 -8 l 29
 8 -8 l 29
 8 -4 l 29
0 -4 m 29
 4 -4 l 29
 4 -8 l 29
 0 -8 l 29
 0 -4 l 29
24 4 m 29
 28 4 l 29
 28 0 l 29
 24 0 l 29
 24 4 l 29
16 4 m 29
 20 4 l 29
 20 0 l 29
 16 0 l 29
 16 4 l 29
8 4 m 29
 12 4 l 29
 12 0 l 29
 8 0 l 29
 8 4 l 29
0 4 m 29
 4 4 l 29
 4 0 l 29
 0 0 l 29
 0 4 l 29
24 12 m 29
 28 12 l 29
 28 8 l 29
 24 8 l 29
 24 12 l 29
16 12 m 29
 20 12 l 29
 20 8 l 29
 16 8 l 29
 16 12 l 29
8 12 m 29
 12 12 l 29
 12 8 l 29
 8 8 l 29
 8 12 l 29
0 12 m 29
 4 12 l 29
 4 8 l 29
 0 8 l 29
 0 12 l 29
24 20 m 29
 28 20 l 29
 28 16 l 29
 24 16 l 29
 24 20 l 29
16 20 m 29
 20 20 l 29
 20 16 l 29
 16 16 l 29
 16 20 l 29
8 20 m 29
 12 20 l 29
 12 16 l 29
 8 16 l 29
 8 20 l 29
0 20 m 29
 4 20 l 29
 4 16 l 29
 0 16 l 29
 0 20 l 29
24 28 m 29
 28 28 l 29
 28 24 l 29
 24 24 l 29
 24 28 l 29
16 28 m 29
 20 28 l 29
 20 24 l 29
 16 24 l 29
 16 28 l 29
8 28 m 29
 12 28 l 29
 12 24 l 29
 8 24 l 29
 8 28 l 29
0 28 m 29
 4 28 l 29
 4 24 l 29
 0 24 l 29
 0 28 l 29
24 36 m 29
 28 36 l 29
 28 32 l 29
 24 32 l 29
 24 36 l 29
16 36 m 29
 20 36 l 29
 20 32 l 29
 16 32 l 29
 16 36 l 29
8 36 m 29
 12 36 l 29
 12 32 l 29
 8 32 l 29
 8 36 l 29
0 36 m 29
 4 36 l 29
 4 32 l 29
 0 32 l 29
 0 36 l 29
24 44 m 29
 28 44 l 29
 28 40 l 29
 24 40 l 29
 24 44 l 29
16 44 m 29
 20 44 l 29
 20 40 l 29
 16 40 l 29
 16 44 l 29
8 44 m 29
 12 44 l 29
 12 40 l 29
 8 40 l 29
 8 44 l 29
0 44 m 29
 4 44 l 29
 4 40 l 29
 0 40 l 29
 0 44 l 29
24 52 m 29
 28 52 l 29
 28 48 l 29
 24 48 l 29
 24 52 l 29
16 52 m 29
 20 52 l 29
 20 48 l 29
 16 48 l 29
 16 52 l 29
8 52 m 29
 12 52 l 29
 12 48 l 29
 8 48 l 29
 8 52 l 29
0 52 m 29
 4 52 l 29
 4 48 l 29
 0 48 l 29
 0 52 l 29
EndSplineSet
EndChar

StartChar: shade
Encoding: 9618 9618 667
Width: 32
Flags: HMW
LayerCount: 2
Fore
SplineSet
28 -8 m 29
 32 -8 l 29
 32 -12 l 25
 28 -12 l 25
 28 -8 l 29
20 -8 m 25
 24 -8 l 25
 24 -12 l 25
 20 -12 l 25
 20 -8 l 25
12 -8 m 25
 16 -8 l 25
 16 -12 l 25
 12 -12 l 25
 12 -8 l 25
4 -8 m 25
 8 -8 l 25
 8 -12 l 25
 4 -12 l 25
 4 -8 l 25
28 0 m 25
 32 0 l 25
 32 -4 l 25
 28 -4 l 25
 28 0 l 25
20 0 m 25
 24 0 l 25
 24 -4 l 25
 20 -4 l 25
 20 0 l 25
12 0 m 25
 16 0 l 25
 16 -4 l 25
 12 -4 l 25
 12 0 l 25
4 0 m 25
 8 0 l 25
 8 -4 l 25
 4 -4 l 25
 4 0 l 25
28 8 m 25
 32 8 l 25
 32 4 l 25
 28 4 l 25
 28 8 l 25
20 8 m 25
 24 8 l 25
 24 4 l 25
 20 4 l 25
 20 8 l 25
12 8 m 25
 16 8 l 25
 16 4 l 25
 12 4 l 25
 12 8 l 25
4 8 m 25
 8 8 l 25
 8 4 l 25
 4 4 l 25
 4 8 l 25
28 16 m 25
 32 16 l 25
 32 12 l 25
 28 12 l 25
 28 16 l 25
20 16 m 25
 24 16 l 25
 24 12 l 25
 20 12 l 25
 20 16 l 25
12 16 m 25
 16 16 l 25
 16 12 l 25
 12 12 l 25
 12 16 l 25
4 16 m 25
 8 16 l 25
 8 12 l 25
 4 12 l 25
 4 16 l 25
28 24 m 25
 32 24 l 25
 32 20 l 25
 28 20 l 25
 28 24 l 25
20 24 m 25
 24 24 l 25
 24 20 l 25
 20 20 l 25
 20 24 l 25
12 24 m 25
 16 24 l 25
 16 20 l 25
 12 20 l 25
 12 24 l 25
4 24 m 25
 8 24 l 25
 8 20 l 25
 4 20 l 25
 4 24 l 25
28 32 m 25
 32 32 l 25
 32 28 l 25
 28 28 l 25
 28 32 l 25
20 32 m 25
 24 32 l 25
 24 28 l 25
 20 28 l 25
 20 32 l 25
12 32 m 25
 16 32 l 25
 16 28 l 25
 12 28 l 25
 12 32 l 25
4 32 m 25
 8 32 l 25
 8 28 l 25
 4 28 l 25
 4 32 l 25
28 40 m 25
 32 40 l 25
 32 36 l 25
 28 36 l 25
 28 40 l 25
20 40 m 25
 24 40 l 25
 24 36 l 25
 20 36 l 25
 20 40 l 25
12 40 m 25
 16 40 l 25
 16 36 l 25
 12 36 l 25
 12 40 l 25
4 40 m 25
 8 40 l 25
 8 36 l 25
 4 36 l 25
 4 40 l 25
28 48 m 25
 32 48 l 25
 32 44 l 25
 28 44 l 25
 28 48 l 25
20 48 m 25
 24 48 l 25
 24 44 l 25
 20 44 l 25
 20 48 l 25
12 48 m 25
 16 48 l 25
 16 44 l 25
 12 44 l 25
 12 48 l 25
4 48 m 25
 8 48 l 25
 8 44 l 25
 4 44 l 25
 4 48 l 25
24 -4 m 25
 28 -4 l 29
 28 -8 l 29
 24 -8 l 25
 24 -4 l 25
16 -4 m 25
 20 -4 l 25
 20 -8 l 25
 16 -8 l 25
 16 -4 l 25
8 -4 m 25
 12 -4 l 25
 12 -8 l 25
 8 -8 l 25
 8 -4 l 25
0 -4 m 25
 4 -4 l 25
 4 -8 l 25
 0 -8 l 25
 0 -4 l 25
24 4 m 25
 28 4 l 25
 28 0 l 25
 24 0 l 25
 24 4 l 25
16 4 m 25
 20 4 l 25
 20 0 l 25
 16 0 l 25
 16 4 l 25
8 4 m 25
 12 4 l 25
 12 0 l 25
 8 0 l 25
 8 4 l 25
0 4 m 25
 4 4 l 25
 4 0 l 25
 0 0 l 25
 0 4 l 25
24 12 m 25
 28 12 l 25
 28 8 l 25
 24 8 l 25
 24 12 l 25
16 12 m 25
 20 12 l 25
 20 8 l 25
 16 8 l 25
 16 12 l 25
8 12 m 25
 12 12 l 25
 12 8 l 25
 8 8 l 25
 8 12 l 25
0 12 m 25
 4 12 l 25
 4 8 l 25
 0 8 l 25
 0 12 l 25
24 20 m 25
 28 20 l 25
 28 16 l 25
 24 16 l 25
 24 20 l 25
16 20 m 25
 20 20 l 25
 20 16 l 25
 16 16 l 25
 16 20 l 25
8 20 m 25
 12 20 l 25
 12 16 l 25
 8 16 l 25
 8 20 l 25
0 20 m 25
 4 20 l 25
 4 16 l 25
 0 16 l 25
 0 20 l 25
24 28 m 25
 28 28 l 25
 28 24 l 25
 24 24 l 25
 24 28 l 25
16 28 m 25
 20 28 l 25
 20 24 l 25
 16 24 l 25
 16 28 l 25
8 28 m 25
 12 28 l 25
 12 24 l 25
 8 24 l 25
 8 28 l 25
0 28 m 25
 4 28 l 25
 4 24 l 25
 0 24 l 25
 0 28 l 25
24 36 m 25
 28 36 l 25
 28 32 l 25
 24 32 l 25
 24 36 l 25
16 36 m 25
 20 36 l 25
 20 32 l 25
 16 32 l 25
 16 36 l 25
8 36 m 25
 12 36 l 25
 12 32 l 25
 8 32 l 25
 8 36 l 25
0 36 m 25
 4 36 l 25
 4 32 l 25
 0 32 l 25
 0 36 l 25
24 44 m 25
 28 44 l 25
 28 40 l 25
 24 40 l 25
 24 44 l 25
16 44 m 25
 20 44 l 25
 20 40 l 25
 16 40 l 25
 16 44 l 25
8 44 m 25
 12 44 l 25
 12 40 l 25
 8 40 l 25
 8 44 l 25
0 44 m 25
 4 44 l 25
 4 40 l 25
 0 40 l 25
 0 44 l 25
24 52 m 25
 28 52 l 25
 28 48 l 25
 24 48 l 25
 24 52 l 25
16 52 m 25
 20 52 l 25
 20 48 l 25
 16 48 l 25
 16 52 l 25
8 52 m 25
 12 52 l 25
 12 48 l 25
 8 48 l 25
 8 52 l 25
0 52 m 25
 4 52 l 25
 4 48 l 25
 0 48 l 25
 0 52 l 25
EndSplineSet
EndChar

StartChar: dkshade
Encoding: 9619 9619 668
Width: 32
Flags: HMW
HStem: -8 4<4 8 12 16 20 24 28 32> 0 4<4 8 12 16 20 24 28 32> 8 4<4 8 12 16 20 24 28 32> 16 4<4 8 12 16 20 24 28 32> 24 4<4 8 12 16 20 24 28 32> 32 4<4 8 12 16 20 24 28 32> 40 4<4 8 12 16 20 24 28 32> 48 4<4 8 12 16 20 24 28 32>
VStem: 0 4<-12 -8 -4 0 4 8 12 16 20 24 28 32 36 40 44 48> 8 4<-12 -8 -4 0 4 8 12 16 20 24 28 32 36 40 44 48> 16 4<-12 -8 -4 0 4 8 12 16 20 24 28 32 36 40 44 48> 24 4<-12 -8 -4 0 4 8 12 16 20 24 28 32 36 40 44 48>
LayerCount: 2
Fore
SplineSet
0 -12 m 1
 0 52 l 1
 32 52 l 1
 32 48 l 1
 28 48 l 1
 28 44 l 1
 32 44 l 1
 32 40 l 1
 28 40 l 1
 28 36 l 1
 32 36 l 1
 32 32 l 1
 28 32 l 1
 28 28 l 1
 32 28 l 1
 32 24 l 1
 28 24 l 1
 28 20 l 1
 32 20 l 1
 32 16 l 1
 28 16 l 1
 28 12 l 1
 32 12 l 1
 32 8 l 1
 28 8 l 1
 28 4 l 1
 32 4 l 1
 32 0 l 1
 28 0 l 1
 28 -4 l 1
 32 -4 l 1
 32 -8 l 1
 28 -8 l 1
 28 -12 l 1
 24 -12 l 1
 24 -8 l 1
 20 -8 l 1
 20 -12 l 1
 16 -12 l 1
 16 -8 l 1
 12 -8 l 1
 12 -12 l 1
 8 -12 l 1
 8 -8 l 1
 4 -8 l 1
 4 -12 l 1
 0 -12 l 1
4 48 m 1
 4 44 l 1
 8 44 l 1
 8 48 l 1
 4 48 l 1
12 48 m 1
 12 44 l 1
 16 44 l 1
 16 48 l 1
 12 48 l 1
20 48 m 1
 20 44 l 1
 24 44 l 1
 24 48 l 1
 20 48 l 1
4 40 m 1
 4 36 l 1
 8 36 l 1
 8 40 l 1
 4 40 l 1
12 40 m 1
 12 36 l 1
 16 36 l 1
 16 40 l 1
 12 40 l 1
20 40 m 1
 20 36 l 1
 24 36 l 1
 24 40 l 1
 20 40 l 1
4 32 m 1
 4 28 l 1
 8 28 l 1
 8 32 l 1
 4 32 l 1
12 32 m 1
 12 28 l 1
 16 28 l 1
 16 32 l 1
 12 32 l 1
20 32 m 1
 20 28 l 1
 24 28 l 1
 24 32 l 1
 20 32 l 1
4 24 m 1
 4 20 l 1
 8 20 l 1
 8 24 l 1
 4 24 l 1
12 24 m 1
 12 20 l 1
 16 20 l 1
 16 24 l 1
 12 24 l 1
20 24 m 1
 20 20 l 1
 24 20 l 1
 24 24 l 1
 20 24 l 1
4 16 m 1
 4 12 l 1
 8 12 l 1
 8 16 l 1
 4 16 l 1
12 16 m 1
 12 12 l 1
 16 12 l 1
 16 16 l 1
 12 16 l 1
20 16 m 1
 20 12 l 1
 24 12 l 1
 24 16 l 1
 20 16 l 1
4 8 m 1
 4 4 l 1
 8 4 l 1
 8 8 l 1
 4 8 l 1
12 8 m 1
 12 4 l 1
 16 4 l 1
 16 8 l 1
 12 8 l 1
20 8 m 1
 20 4 l 1
 24 4 l 1
 24 8 l 1
 20 8 l 1
4 0 m 1
 4 -4 l 1
 8 -4 l 1
 8 0 l 1
 4 0 l 1
12 0 m 1
 12 -4 l 1
 16 -4 l 1
 16 0 l 1
 12 0 l 1
20 0 m 1
 20 -4 l 1
 24 -4 l 1
 24 0 l 1
 20 0 l 1
EndSplineSet
EndChar

StartChar: filledbox
Encoding: 9632 9632 669
Width: 32
Flags: HW
HStem: 8 20<4 24>
VStem: 4 20<8 28>
LayerCount: 2
Fore
SplineSet
4 28 m 1
 24 28 l 1
 24 8 l 1
 4 8 l 1
 4 28 l 1
EndSplineSet
EndChar

StartChar: H22073
Encoding: 9633 9633 670
Width: 32
Flags: HW
HStem: 8 4<8 20> 24 4<8 20>
VStem: 4 4<12 24> 20 4<12 24>
LayerCount: 2
Fore
SplineSet
20 24 m 1
 8 24 l 29
 8 12 l 1
 20 12 l 25
 20 24 l 1
4 28 m 1
 24 28 l 1
 24 8 l 1
 4 8 l 1
 4 28 l 1
EndSplineSet
EndChar

StartChar: H18543
Encoding: 9642 9642 671
Width: 32
Flags: HW
HStem: 12 12<8 20>
VStem: 8 12<12 24>
LayerCount: 2
Fore
SplineSet
8 24 m 5
 20 24 l 5
 20 12 l 5
 8 12 l 5
 8 24 l 5
EndSplineSet
EndChar

StartChar: H18551
Encoding: 9643 9643 672
Width: 32
Flags: HW
HStem: 12 4<12 16> 20 4<12 16>
VStem: 8 4<16 20> 16 4<16 20>
LayerCount: 2
Fore
SplineSet
16 20 m 29
 12 20 l 29
 12 16 l 29
 16 16 l 29
 16 20 l 29
8 24 m 5
 20 24 l 5
 20 12 l 5
 8 12 l 5
 8 24 l 5
EndSplineSet
EndChar

StartChar: filledrect
Encoding: 9644 9644 673
Width: 32
Flags: HW
HStem: 4 32<4 28>
VStem: 4 24<4 36>
LayerCount: 2
Fore
SplineSet
4 36 m 25
 28 36 l 29
 28 4 l 29
 4 4 l 25
 4 36 l 25
EndSplineSet
EndChar

StartChar: triagup
Encoding: 9650 9650 674
Width: 32
Flags: HMW
LayerCount: 2
Fore
SplineSet
4 4 m 29
 16 36 l 29
 28 4 l 29
 4 4 l 29
EndSplineSet
EndChar

StartChar: triagdn
Encoding: 9660 9660 675
Width: 32
Flags: HMW
LayerCount: 2
Fore
SplineSet
28 36 m 29
 16 4 l 29
 4 36 l 29
 28 36 l 29
EndSplineSet
EndChar

StartChar: uni25B6
Encoding: 9654 9654 676
Width: 32
Flags: HMW
LayerCount: 2
Fore
SplineSet
4 36 m 29
 28 20 l 29
 4 4 l 29
 4 36 l 29
EndSplineSet
EndChar

StartChar: uni25C0
Encoding: 9664 9664 677
Width: 32
Flags: HMW
LayerCount: 2
Fore
SplineSet
28 4 m 29
 4 20 l 29
 28 36 l 29
 28 4 l 29
EndSplineSet
EndChar

StartChar: lozenge
Encoding: 9674 9674 678
Width: 32
Flags: HMW
LayerCount: 2
Fore
SplineSet
4 20 m 5
 16 32 l 5
 28 20 l 5
 16 8 l 5
 4 20 l 5
EndSplineSet
EndChar

StartChar: circle
Encoding: 9675 9675 679
Width: 32
Flags: HW
HStem: 8 4<12 20> 28 4<12 20>
VStem: 4 4<16 24> 24 4<16 24>
LayerCount: 2
Fore
SplineSet
4 26 m 5
 10 32 l 5
 22 32 l 5
 28 26 l 5
 28 14 l 5
 22 8 l 5
 10 8 l 5
 4 14 l 5
 4 26 l 5
8 16 m 5
 12 12 l 5
 20 12 l 5
 24 16 l 5
 24 24 l 5
 20 28 l 5
 12 28 l 5
 8 24 l 5
 8 16 l 5
EndSplineSet
EndChar

StartChar: H18533
Encoding: 9679 9679 680
Width: 32
Flags: HW
HStem: 12 16<12 20>
VStem: 8 16<16 24>
LayerCount: 2
Fore
SplineSet
8 16 m 5
 8 24 l 5
 12 28 l 5
 20 28 l 5
 24 24 l 5
 24 16 l 5
 20 12 l 5
 12 12 l 5
 8 16 l 5
EndSplineSet
EndChar

StartChar: invbullet
Encoding: 9688 9688 681
Width: 32
Flags: HW
VStem: 0 8<16 24> 24 8<16 24>
LayerCount: 2
Fore
SplineSet
0 52 m 25
 32 52 l 25
 32 -12 l 25
 0 -12 l 25
 0 52 l 25
8 16 m 5
 12 12 l 5
 20 12 l 5
 24 16 l 5
 24 24 l 5
 20 28 l 5
 12 28 l 5
 8 24 l 5
 8 16 l 5
EndSplineSet
EndChar

StartChar: invcircle
Encoding: 9689 9689 682
Width: 32
Flags: HMW
VStem: 0 4<14 26> 28 4<14 26>
LayerCount: 2
Fore
SplineSet
4 26 m 5
 4 14 l 5
 10 8 l 5
 22 8 l 5
 28 14 l 5
 28 26 l 5
 22 32 l 5
 10 32 l 5
 4 26 l 5
8 16 m 5
 8 24 l 5
 12 28 l 5
 20 28 l 5
 24 24 l 5
 24 16 l 5
 20 12 l 5
 12 12 l 5
 8 16 l 5
0 52 m 25
 32 52 l 25
 32 -12 l 25
 0 -12 l 25
 0 52 l 25
EndSplineSet
EndChar

StartChar: openbullet
Encoding: 9702 9702 683
Width: 32
Flags: HW
HStem: 12 4<12 16> 20 4<12 16>
VStem: 8 4<16 20> 16 4<16 20>
LayerCount: 2
Fore
SplineSet
16 20 m 25
 12 20 l 25
 12 16 l 25
 16 16 l 25
 16 20 l 25
12 24 m 1
 16 24 l 1
 20 20 l 1
 20 16 l 1
 16 12 l 1
 12 12 l 1
 8 16 l 5
 8 20 l 1
 12 24 l 1
EndSplineSet
EndChar

StartChar: smileface
Encoding: 9786 9786 684
Width: 32
Flags: HMW
HStem: 8 4<4 12 16 24> 24 4<8 12 16 20> 32 4<4 24>
VStem: 0 4<12 32> 8 4<24 28> 16 4<24 28> 24 4<12 32>
LayerCount: 2
Fore
SplineSet
0 12 m 1
 0 32 l 1
 4 36 l 1
 24 36 l 5
 28 32 l 1
 28 12 l 1
 24 8 l 1
 4 8 l 1
 0 12 l 1
24 32 m 5
 4 32 l 1
 4 12 l 1
 12 12 l 1
 8 16 l 1
 8 20 l 1
 20 20 l 1
 20 16 l 1
 16 12 l 1
 24 12 l 1
 24 32 l 5
8 28 m 1
 12 28 l 1
 12 24 l 1
 8 24 l 1
 8 28 l 1
16 28 m 1
 20 28 l 1
 20 24 l 1
 16 24 l 1
 16 28 l 1
EndSplineSet
EndChar

StartChar: invsmileface
Encoding: 9787 9787 685
Width: 32
Flags: HW
HStem: 8 4<12 16> 20 4<8 12 16 20> 28 8<8 12 16 20>
VStem: 0 8<16 20 24 28> 20 8<16 20 24 28>
LayerCount: 2
Fore
SplineSet
20 20 m 25
 8 20 l 25
 8 16 l 25
 12 12 l 25
 16 12 l 25
 20 16 l 25
 20 20 l 25
20 28 m 25
 16 28 l 25
 16 24 l 25
 20 24 l 25
 20 28 l 25
0 12 m 1
 0 32 l 1
 4 36 l 1
 24 36 l 1
 28 32 l 1
 28 12 l 1
 24 8 l 1
 4 8 l 1
 0 12 l 1
12 24 m 1
 12 28 l 1
 8 28 l 1
 8 24 l 1
 12 24 l 1
EndSplineSet
EndChar

StartChar: sun
Encoding: 9788 9788 686
Width: 32
Flags: HMW
HStem: 12 4<8 12 16 20> 20 4<0 4 24 28> 28 4<8 12 16 20>
VStem: 4 4<16 20 24 28> 12 4<8 12 32 36> 20 4<16 20 24 28>
CounterMasks: 1 fc
LayerCount: 2
Fore
SplineSet
20 28 m 25
 8 28 l 25
 8 16 l 25
 20 16 l 25
 20 28 l 25
0 24 m 1
 4 24 l 1
 4 30 l 1
 0 34 l 1
 0 36 l 1
 2 36 l 1
 6 32 l 1
 12 32 l 1
 12 36 l 1
 16 36 l 1
 16 32 l 1
 22 32 l 1
 26 36 l 25
 28 36 l 25
 28 34 l 1
 24 30 l 1
 24 24 l 1
 28 24 l 1
 28 20 l 1
 24 20 l 1
 24 14 l 1
 28 10 l 1
 28 8 l 1
 26 8 l 1
 22 12 l 1
 16 12 l 1
 16 8 l 1
 12 8 l 1
 12 12 l 1
 6 12 l 1
 2 8 l 1
 0 8 l 1
 0 10 l 1
 4 14 l 1
 4 20 l 1
 0 20 l 1
 0 24 l 1
EndSplineSet
EndChar

StartChar: female
Encoding: 9792 9792 687
Width: 32
Flags: HMW
HStem: 12 4<8 12 16 20> 20 4<8 12 16 20> 32 4<8 20>
VStem: 4 4<24 32> 12 4<8 12 16 20> 20 4<24 32>
LayerCount: 2
Fore
SplineSet
20 32 m 29
 8 32 l 25
 8 24 l 25
 20 24 l 25
 20 32 l 29
12 8 m 1
 12 12 l 25
 8 12 l 25
 8 16 l 25
 12 16 l 25
 12 20 l 25
 8 20 l 25
 4 24 l 25
 4 32 l 25
 8 36 l 1
 20 36 l 5
 24 32 l 1
 24 24 l 1
 20 20 l 1
 16 20 l 1
 16 16 l 1
 20 16 l 1
 20 12 l 1
 16 12 l 1
 16 8 l 1
 12 8 l 1
EndSplineSet
EndChar

StartChar: male
Encoding: 9794 9794 688
Width: 32
Flags: HW
HStem: 8 4<4 12> 20 4<4 12> 32 4<12 22>
VStem: 0 4<12 20> 12 4<12 20> 24 4<20 30>
CounterMasks: 1 fc
LayerCount: 2
Fore
SplineSet
12 20 m 25
 4 20 l 25
 4 12 l 25
 12 12 l 25
 12 20 l 25
0 20 m 1
 4 24 l 1
 14 24 l 1
 22 32 l 1
 12 32 l 1
 12 36 l 1
 28 36 l 1
 28 20 l 1
 24 20 l 1
 24 30 l 1
 16 22 l 1
 16 12 l 1
 12 8 l 5
 4 8 l 1
 0 12 l 1
 0 20 l 1
EndSplineSet
EndChar

StartChar: spade
Encoding: 9824 9824 689
Width: 32
Flags: HW
HStem: 8 4<8 12 16 20>
VStem: 12 4<12 16>
LayerCount: 2
Fore
SplineSet
8 8 m 29
 8 12 l 29
 12 12 l 5
 12 16 l 5
 4 16 l 5
 0 20 l 5
 0 24 l 5
 14 36 l 29
 28 24 l 29
 28 20 l 5
 24 16 l 5
 16 16 l 5
 16 12 l 5
 20 12 l 29
 20 8 l 29
 8 8 l 29
EndSplineSet
EndChar

StartChar: club
Encoding: 9827 9827 690
Width: 32
Flags: HMW
HStem: 8 4<8 12 16 20> 20 4<10 12 16 18>
VStem: 12 4<12 20 24 26>
LayerCount: 2
Fore
SplineSet
8 8 m 25
 8 12 l 25
 12 12 l 1
 12 20 l 1
 10 20 l 1
 6 16 l 1
 4 16 l 1
 0 20 l 1
 0 24 l 1
 4 28 l 1
 6 28 l 1
 10 24 l 1
 12 24 l 1
 12 26 l 1
 8 30 l 1
 8 32 l 1
 12 36 l 1
 16 36 l 1
 20 32 l 1
 20 30 l 1
 16 26 l 1
 16 24 l 1
 18 24 l 1
 22 28 l 1
 24 28 l 1
 28 24 l 1
 28 20 l 1
 24 16 l 1
 22 16 l 1
 18 20 l 1
 16 20 l 1
 16 12 l 1
 20 12 l 25
 20 8 l 25
 8 8 l 25
EndSplineSet
EndChar

StartChar: heart
Encoding: 9829 9829 691
Width: 32
Flags: HW
LayerCount: 2
Fore
SplineSet
14 8 m 1
 0 20 l 1
 0 30 l 5
 6 36 l 1
 10 36 l 1
 14 32 l 1
 18 36 l 1
 22 36 l 1
 28 30 l 1
 28 20 l 1
 14 8 l 1
EndSplineSet
EndChar

StartChar: diamond
Encoding: 9830 9830 692
Width: 32
Flags: HW
LayerCount: 2
Fore
SplineSet
0 22 m 29
 14 36 l 25
 28 22 l 25
 14 8 l 25
 0 22 l 29
EndSplineSet
EndChar

StartChar: musicalnote
Encoding: 9834 9834 693
Width: 32
Flags: HMW
VStem: 12 4<16 32> 24 4<28 32>
LayerCount: 2
Fore
SplineSet
0 6 m 1
 0 10 l 1
 6 16 l 1
 12 16 l 1
 12 44 l 1
 18 44 l 1
 28 34 l 1
 28 28 l 1
 24 28 l 1
 24 32 l 1
 16 32 l 1
 16 6 l 5
 10 0 l 1
 6 0 l 1
 0 6 l 1
EndSplineSet
EndChar

StartChar: musicalnotedbl
Encoding: 9835 9835 694
Width: 32
Flags: HMW
HStem: 36 8<12 24>
VStem: 8 4<12 36> 24 4<12 36>
LayerCount: 2
Fore
SplineSet
0 8 m 1
 4 12 l 1
 8 12 l 1
 8 44 l 1
 28 44 l 1
 28 0 l 1
 20 0 l 25
 16 4 l 1
 16 8 l 1
 20 12 l 1
 24 12 l 5
 24 36 l 1
 12 36 l 1
 12 0 l 1
 4 0 l 1
 0 4 l 1
 0 8 l 1
EndSplineSet
EndChar
